Exo-BlackItalic.ufo
<glyph name=".notdef" format="2">
  <advance width="659"/>
  <unicode hex="0000"/>
  <outline>
    <contour>
      <point x="80" y="-10" type="line"/>
      <point x="639" y="-10" type="line"/>
      <point x="639" y="549" type="line"/>
      <point x="80" y="549" type="line"/>
    </contour>
    <contour>
      <point x="527" y="179" type="line"/>
      <point x="437" y="269" type="line"/>
      <point x="527" y="359" type="line"/>
      <point x="450" y="436" type="line"/>
      <point x="360" y="346" type="line"/>
      <point x="270" y="436" type="line"/>
      <point x="193" y="359" type="line"/>
      <point x="283" y="269" type="line"/>
      <point x="193" y="179" type="line"/>
      <point x="270" y="102" type="line"/>
      <point x="360" y="192" type="line"/>
      <point x="450" y="102" type="line"/>
    </contour>
    <contour>
      <point x="164" y="74" type="line"/>
      <point x="164" y="465" type="line"/>
      <point x="555" y="465" type="line"/>
      <point x="555" y="74" type="line"/>
    </contour>
  </outline>
</glyph>
<glyph name="exclam" format="2">
  <advance width="277"/>
  <unicode hex="0021"/>
  <note>
GF Latin Plus glyph
</note>
  <outline>
    <contour>
      <point x="97" y="206" type="line"/>
      <point x="241" y="206" type="line"/>
      <point x="353" y="742" type="line"/>
      <point x="159" y="742" type="line"/>
    </contour>
    <component base="period" xOffset="10"/>
  </outline>
</glyph>
<glyph name="numbersign" format="1">
  <advance width="749"/>
  <unicode hex="0023"/>
  <note>
    GF Latin Plus glyph
  </note>
  <outline>
    <contour>
      <point x="361" y="323" type="line"/>
      <point x="391" y="409" type="line"/>
      <point x="485" y="409" type="line"/>
      <point x="455" y="323" type="line"/>
    </contour>
    <contour>
      <point x="41" y="191" type="line"/>
      <point x="183" y="191" type="line"/>
      <point x="116" y="0" type="line"/>
      <point x="248" y="0" type="line"/>
      <point x="315" y="191" type="line"/>
      <point x="404" y="191" type="line"/>
      <point x="337" y="0" type="line"/>
      <point x="469" y="0" type="line"/>
      <point x="536" y="191" type="line"/>
      <point x="716" y="191" type="line"/>
      <point x="755" y="323" type="line"/>
      <point x="587" y="323" type="line"/>
      <point x="617" y="409" type="line"/>
      <point x="785" y="409" type="line"/>
      <point x="825" y="541" type="line"/>
      <point x="658" y="541" type="line"/>
      <point x="724" y="732" type="line"/>
      <point x="592" y="732" type="line"/>
      <point x="526" y="541" type="line"/>
      <point x="438" y="541" type="line"/>
      <point x="505" y="732" type="line"/>
      <point x="373" y="732" type="line"/>
      <point x="306" y="541" type="line"/>
      <point x="152" y="541" type="line"/>
      <point x="110" y="409" type="line"/>
      <point x="259" y="409" type="line"/>
      <point x="229" y="323" type="line"/>
      <point x="82" y="323" type="line"/>
    </contour>
  </outline>
</glyph>
<glyph name="dollar" format="2">
  <advance width="609"/>
  <unicode hex="0024"/>
  <note>
GF Latin Plus glyph
</note>
  <outline>
    <contour>
      <point x="361" y="718" type="line"/>
      <point x="469" y="718" type="line"/>
      <point x="486" y="824" type="line"/>
      <point x="378" y="824" type="line"/>
    </contour>
    <contour>
      <point x="233" y="-90" type="line"/>
      <point x="341" y="-90" type="line"/>
      <point x="357" y="12" type="line"/>
      <point x="249" y="12" type="line"/>
    </contour>
    <component base="S"/>
  </outline>
</glyph>
<glyph name="percent" format="1">
  <advance width="968"/>
  <unicode hex="0025"/>
  <note>
    GF Latin Plus glyph
  </note>
  <outline>
    <contour>
      <point x="720" y="168" type="curve" smooth="yes"/>
      <point x="728" y="221" type="line" smooth="yes"/>
      <point x="733" y="255"/>
      <point x="751" y="261"/>
      <point x="773" y="261" type="curve" smooth="yes"/>
      <point x="823" y="261" type="line" smooth="yes"/>
      <point x="844" y="261"/>
      <point x="856" y="256"/>
      <point x="856" y="235" type="curve" smooth="yes"/>
      <point x="856" y="231"/>
      <point x="856" y="226"/>
      <point x="855" y="221" type="curve" smooth="yes"/>
      <point x="847" y="168" type="line" smooth="yes"/>
      <point x="843" y="146"/>
      <point x="834" y="128"/>
      <point x="800" y="128" type="curve" smooth="yes"/>
      <point x="750" y="128" type="line" smooth="yes"/>
      <point x="725" y="128"/>
      <point x="718" y="139"/>
      <point x="718" y="154" type="curve" smooth="yes"/>
      <point x="718" y="158"/>
      <point x="719" y="163"/>
    </contour>
    <contour>
      <point x="590" y="138" type="line" smooth="yes"/>
      <point x="588" y="125"/>
      <point x="587" y="114"/>
      <point x="587" y="103" type="curve" smooth="yes"/>
      <point x="587" y="39"/>
      <point x="621" y="3"/>
      <point x="704" y="3" type="curve" smooth="yes"/>
      <point x="806" y="3" type="line" smooth="yes"/>
      <point x="907" y="3"/>
      <point x="953" y="53"/>
      <point x="967" y="138" type="curve" smooth="yes"/>
      <point x="985" y="251" type="line" smooth="yes"/>
      <point x="987" y="263"/>
      <point x="988" y="275"/>
      <point x="988" y="286" type="curve" smooth="yes"/>
      <point x="988" y="350"/>
      <point x="953" y="386"/>
      <point x="869" y="386" type="curve" smooth="yes"/>
      <point x="767" y="386" type="line" smooth="yes"/>
      <point x="666" y="386"/>
      <point x="621" y="336"/>
      <point x="608" y="251" type="curve" smooth="yes"/>
    </contour>
    <contour>
      <point x="192" y="0" type="line"/>
      <point x="323" y="0" type="line"/>
      <point x="886" y="732" type="line"/>
      <point x="762" y="732" type="line"/>
    </contour>
    <contour>
      <point x="230" y="514" type="curve" smooth="yes"/>
      <point x="239" y="567" type="line" smooth="yes"/>
      <point x="244" y="601"/>
      <point x="262" y="607"/>
      <point x="284" y="607" type="curve" smooth="yes"/>
      <point x="335" y="607" type="line" smooth="yes"/>
      <point x="356" y="607"/>
      <point x="367" y="602"/>
      <point x="367" y="581" type="curve" smooth="yes"/>
      <point x="367" y="577"/>
      <point x="367" y="572"/>
      <point x="366" y="567" type="curve" smooth="yes"/>
      <point x="357" y="514" type="line" smooth="yes"/>
      <point x="354" y="492"/>
      <point x="346" y="474"/>
      <point x="312" y="474" type="curve" smooth="yes"/>
      <point x="261" y="474" type="line" smooth="yes"/>
      <point x="236" y="474"/>
      <point x="229" y="485"/>
      <point x="229" y="500" type="curve" smooth="yes"/>
      <point x="229" y="504"/>
      <point x="230" y="509"/>
    </contour>
    <contour>
      <point x="101" y="484" type="line" smooth="yes"/>
      <point x="99" y="472"/>
      <point x="98" y="460"/>
      <point x="98" y="449" type="curve" smooth="yes"/>
      <point x="98" y="385"/>
      <point x="133" y="349"/>
      <point x="216" y="349" type="curve" smooth="yes"/>
      <point x="317" y="349" type="line" smooth="yes"/>
      <point x="418" y="349"/>
      <point x="464" y="399"/>
      <point x="478" y="484" type="curve" smooth="yes"/>
      <point x="496" y="597" type="line" smooth="yes"/>
      <point x="498" y="609"/>
      <point x="499" y="621"/>
      <point x="499" y="632" type="curve" smooth="yes"/>
      <point x="499" y="696"/>
      <point x="464" y="732"/>
      <point x="380" y="732" type="curve" smooth="yes"/>
      <point x="279" y="732" type="line" smooth="yes"/>
      <point x="178" y="732"/>
      <point x="132" y="682"/>
      <point x="119" y="597" type="curve" smooth="yes"/>
    </contour>
  </outline>
</glyph>
<glyph name="ampersand" format="1">
  <advance width="715"/>
  <unicode hex="0026"/>
  <note>
    GF Latin Plus glyph
  </note>
  <outline>
    <contour>
      <point x="296" y="171" type="curve" smooth="yes"/>
      <point x="271" y="171"/>
      <point x="254" y="190"/>
      <point x="254" y="217" type="curve" smooth="yes"/>
      <point x="254" y="242"/>
      <point x="263" y="265"/>
      <point x="296" y="283" type="curve" smooth="yes"/>
      <point x="322" y="297" type="line"/>
      <point x="374" y="213" type="line"/>
      <point x="350" y="192" type="line" smooth="yes"/>
      <point x="332" y="176"/>
      <point x="315" y="171"/>
    </contour>
    <contour>
      <point x="236" y="-6" type="curve" smooth="yes"/>
      <point x="304.8068181818182" y="-6.0"/>
      <point x="355.6248732202257" y="10.67212643305944"/>
      <point x="409" y="51" type="curve" smooth="yes"/>
      <point x="454" y="85" type="line"/>
      <point x="510" y="0" type="line"/>
      <point x="708" y="0" type="line"/>
      <point x="601" y="181" type="line"/>
      <point x="657" y="229" type="line"/>
      <point x="733" y="350" type="line"/>
      <point x="677" y="438" type="line"/>
      <point x="519" y="317" type="line"/>
      <point x="442" y="453" type="line" smooth="yes"/>
      <point x="421" y="490"/>
      <point x="409" y="513"/>
      <point x="409" y="530" type="curve" smooth="yes"/>
      <point x="409" y="548"/>
      <point x="420" y="568"/>
      <point x="457" y="568" type="curve" smooth="yes"/>
      <point x="609" y="568" type="line"/>
      <point x="631" y="710" type="line"/>
      <point x="595" y="722"/>
      <point x="515" y="739"/>
      <point x="446" y="739" type="curve" smooth="yes"/>
      <point x="284" y="739"/>
      <point x="217" y="649"/>
      <point x="217" y="552" type="curve" smooth="yes"/>
      <point x="217" y="524"/>
      <point x="220" y="490"/>
      <point x="243" y="445" type="curve" smooth="yes"/>
      <point x="251" y="429" type="line"/>
      <point x="179" y="388" type="line" smooth="yes"/>
      <point x="98.73503488354574" y="342.293561530908"/>
      <point x="57" y="276"/>
      <point x="57" y="168" type="curve" smooth="yes"/>
      <point x="57" y="64"/>
      <point x="128.1931818181818" y="-6.0"/>
    </contour>
  </outline>
</glyph>
<glyph name="quotesingle" format="2">
  <advance width="256"/>
  <unicode hex="0027"/>
  <note>
GF Latin Plus glyph
</note>
  <outline>
    <contour>
      <point x="141" y="692" type="line"/>
      <point x="120" y="491" type="line"/>
      <point x="284" y="491" type="line"/>
      <point x="326" y="692" type="line"/>
      <point x="336" y="759" type="line"/>
      <point x="151" y="759" type="line"/>
    </contour>
  </outline>
</glyph>
<glyph name="parenleft" format="2">
  <advance width="413"/>
  <unicode hex="0028"/>
  <note>
GF Latin Plus glyph
</note>
  <outline>
    <contour>
      <point x="234" y="733"/>
      <point x="80" y="424"/>
      <point x="80" y="160" type="curve" smooth="yes"/>
      <point x="80" y="-17"/>
      <point x="136" y="-130"/>
      <point x="198" y="-210" type="curve"/>
      <point x="369" y="-210" type="line"/>
      <point x="312" y="-87"/>
      <point x="274" y="25"/>
      <point x="274" y="169" type="curve" smooth="yes"/>
      <point x="274" y="412"/>
      <point x="410" y="697"/>
      <point x="538" y="860" type="curve"/>
      <point x="367" y="860" type="line"/>
    </contour>
  </outline>
</glyph>
<glyph name="parenright" format="2">
  <advance width="413"/>
  <unicode hex="0029"/>
  <note>
GF Latin Plus glyph
</note>
  <outline>
    <contour>
      <point x="-22" y="-210" type="curve"/>
      <point x="149" y="-210" type="line"/>
      <point x="282" y="-83"/>
      <point x="436" y="226"/>
      <point x="436" y="490" type="curve" smooth="yes"/>
      <point x="436" y="667"/>
      <point x="380" y="780"/>
      <point x="318" y="860" type="curve"/>
      <point x="147" y="860" type="line"/>
      <point x="204" y="737"/>
      <point x="242" y="625"/>
      <point x="242" y="481" type="curve" smooth="yes"/>
      <point x="242" y="238"/>
      <point x="106" y="-47"/>
    </contour>
  </outline>
</glyph>
<glyph name="plus" format="2">
  <advance width="609"/>
  <unicode hex="002B"/>
  <note>
GF Latin Plus glyph
</note>
  <outline>
    <contour>
      <point x="124" y="279" type="line"/>
      <point x="572" y="279" type="line"/>
      <point x="596" y="433" type="line"/>
      <point x="148" y="433" type="line"/>
    </contour>
    <contour>
      <point x="402" y="132" type="line"/>
      <point x="472" y="580" type="line"/>
      <point x="318" y="580" type="line"/>
      <point x="248" y="132" type="line"/>
    </contour>
  </outline>
</glyph>
<glyph name="comma" format="1">
  <advance width="257"/>
  <unicode hex="002C"/>
  <note>
    GF Latin Plus glyph
  </note>
  <outline>
    <contour>
      <point x="57" y="58" type="line" smooth="yes"/>
      <point x="55" y="46"/>
      <point x="54" y="38"/>
      <point x="54" y="34" type="curve" smooth="yes"/>
      <point x="54" y="20"/>
      <point x="63" y="14"/>
      <point x="75" y="14" type="curve" smooth="yes"/>
      <point x="86" y="14" type="line"/>
      <point x="83" y="-5" type="line" smooth="yes"/>
      <point x="80" y="-23"/>
      <point x="70" y="-26"/>
      <point x="49" y="-26" type="curve"/>
      <point x="39" y="-88" type="line"/>
      <point x="39" y="-88"/>
      <point x="67" y="-97"/>
      <point x="100" y="-97" type="curve" smooth="yes"/>
      <point x="143" y="-97"/>
      <point x="194" y="-82"/>
      <point x="206" y="-11" type="curve" smooth="yes"/>
      <point x="227" y="117" type="line" smooth="yes"/>
      <point x="229" y="129"/>
      <point x="230" y="139"/>
      <point x="230" y="143" type="curve" smooth="yes"/>
      <point x="230" y="155"/>
      <point x="225" y="163"/>
      <point x="210" y="163" type="curve" smooth="yes"/>
      <point x="99" y="163" type="line" smooth="yes"/>
      <point x="83" y="163"/>
      <point x="72" y="154"/>
      <point x="70" y="136" type="curve" smooth="yes"/>
    </contour>
  </outline>
</glyph>
<glyph name="hyphen" format="2">
  <advance width="353"/>
  <unicode hex="002D"/>
  <note>
GF Latin Plus glyph
</note>
  <outline>
    <contour>
      <point x="54" y="213" type="line"/>
      <point x="368" y="213" type="line"/>
      <point x="392" y="367" type="line"/>
      <point x="78" y="367" type="line"/>
    </contour>
  </outline>
</glyph>
<glyph name="slash" format="1">
  <advance width="502"/>
  <unicode hex="002F"/>
  <note>
    GF Latin Plus glyph
  </note>
  <outline>
    <contour>
      <point x="0" y="-72" type="line"/>
      <point x="199" y="-72" type="line"/>
      <point x="613" y="770" type="line"/>
      <point x="414" y="770" type="line"/>
    </contour>
  </outline>
</glyph>
<glyph name="zero" format="2">
  <advance width="641"/>
  <unicode hex="0030"/>
  <note>
GF Latin Plus glyph
</note>
  <outline>
    <contour>
      <point x="270" y="227" type="curve" smooth="yes"/>
      <point x="316" y="517" type="line" smooth="yes"/>
      <point x="322" y="557"/>
      <point x="340" y="575"/>
      <point x="375" y="575" type="curve" smooth="yes"/>
      <point x="450" y="575" type="line" smooth="yes"/>
      <point x="473" y="575"/>
      <point x="490" y="567"/>
      <point x="490" y="535" type="curve" smooth="yes"/>
      <point x="490" y="530"/>
      <point x="490" y="524"/>
      <point x="489" y="517" type="curve" smooth="yes"/>
      <point x="443" y="226" type="line" smooth="yes"/>
      <point x="436" y="184"/>
      <point x="414" y="168"/>
      <point x="378" y="168" type="curve" smooth="yes"/>
      <point x="318" y="168" type="line" smooth="yes"/>
      <point x="285" y="168"/>
      <point x="268" y="179"/>
      <point x="268" y="209" type="curve" smooth="yes"/>
      <point x="268" y="215"/>
      <point x="269" y="220"/>
    </contour>
    <contour>
      <point x="71" y="196" type="line" smooth="yes"/>
      <point x="68" y="179"/>
      <point x="67" y="163"/>
      <point x="67" y="148" type="curve" smooth="yes"/>
      <point x="67" y="50"/>
      <point x="123" y="-6"/>
      <point x="242" y="-6" type="curve" smooth="yes"/>
      <point x="404" y="-6" type="line" smooth="yes"/>
      <point x="530" y="-6"/>
      <point x="612" y="71"/>
      <point x="632" y="196" type="curve" smooth="yes"/>
      <point x="686" y="537" type="line" smooth="yes"/>
      <point x="689" y="556"/>
      <point x="691" y="574"/>
      <point x="691" y="590" type="curve" smooth="yes"/>
      <point x="691" y="693"/>
      <point x="633" y="749"/>
      <point x="525" y="749" type="curve" smooth="yes"/>
      <point x="363" y="749" type="line" smooth="yes"/>
      <point x="232" y="749"/>
      <point x="147" y="674"/>
      <point x="125" y="537" type="curve" smooth="yes"/>
    </contour>
  </outline>
</glyph>
<glyph name="one" format="2">
  <advance width="379"/>
  <unicode hex="0031"/>
  <note>
GF Latin Plus glyph
</note>
  <outline>
    <contour>
      <point x="111" y="559" type="line"/>
      <point x="230" y="569" type="line"/>
      <point x="140" y="0" type="line"/>
      <point x="334" y="0" type="line"/>
      <point x="452" y="743" type="line"/>
      <point x="280" y="743" type="line"/>
      <point x="130" y="683" type="line"/>
    </contour>
  </outline>
</glyph>
<glyph name="two" format="2">
  <advance width="582"/>
  <unicode hex="0032"/>
  <note>
GF Latin Plus glyph
</note>
  <outline>
    <contour>
      <point x="141" y="565" type="line"/>
      <point x="362" y="565" type="line" smooth="yes"/>
      <point x="393.7647058823529" y="565"/>
      <point x="410" y="551"/>
      <point x="410" y="519" type="curve" smooth="yes"/>
      <point x="410" y="482"/>
      <point x="384.3003895140109" y="435.0070331795783"/>
      <point x="333" y="390" type="curve" smooth="yes"/>
      <point x="64" y="154" type="line"/>
      <point x="40" y="0" type="line"/>
      <point x="554" y="0" type="line"/>
      <point x="582" y="174" type="line"/>
      <point x="334" y="174" type="line"/>
      <point x="482" y="305" type="line" smooth="yes"/>
      <point x="572.8717339870274" y="385.43376454257157"/>
      <point x="604.0" y="475.0"/>
      <point x="604" y="577" type="curve" smooth="yes"/>
      <point x="604" y="676"/>
      <point x="550" y="749"/>
      <point x="401" y="749" type="curve" smooth="yes"/>
      <point x="302.3921568627451" y="749.0"/>
      <point x="227.96494397575728" y="731.947898741203"/>
      <point x="166" y="719" type="curve"/>
    </contour>
  </outline>
</glyph>
<glyph name="three" format="2">
  <advance width="575"/>
  <unicode hex="0033"/>
  <note>
GF Latin Plus glyph
</note>
  <outline>
    <contour>
      <point x="135" y="575" type="line"/>
      <point x="339" y="575" type="line" smooth="yes"/>
      <point x="387" y="575"/>
      <point x="424" y="567"/>
      <point x="424" y="526" type="curve" smooth="yes"/>
      <point x="424" y="522"/>
      <point x="423.45532084640473" y="518.0978876176426"/>
      <point x="422" y="505" type="curve" smooth="yes"/>
      <point x="417" y="474"/>
      <point x="389" y="457"/>
      <point x="336" y="454" type="curve" smooth="yes"/>
      <point x="165" y="443" type="line"/>
      <point x="143" y="303" type="line"/>
      <point x="295" y="296" type="line" smooth="yes"/>
      <point x="354" y="293"/>
      <point x="388" y="273"/>
      <point x="388" y="242" type="curve" smooth="yes"/>
      <point x="388" y="240"/>
      <point x="387.34874291623146" y="237.20870513613258"/>
      <point x="384" y="216" type="curve" smooth="yes"/>
      <point x="378" y="179"/>
      <point x="356" y="167"/>
      <point x="278" y="167" type="curve" smooth="yes"/>
      <point x="60" y="167" type="line"/>
      <point x="37" y="21" type="line"/>
      <point x="120" y="4"/>
      <point x="220" y="-6"/>
      <point x="327" y="-6" type="curve" smooth="yes"/>
      <point x="461" y="-6"/>
      <point x="554" y="60"/>
      <point x="573" y="181" type="curve" smooth="yes"/>
      <point x="579.0901502628648" y="225.1535894057694"/>
      <point x="581" y="239"/>
      <point x="581" y="253" type="curve" smooth="yes"/>
      <point x="581" y="312"/>
      <point x="558" y="357"/>
      <point x="509" y="373" type="curve"/>
      <point x="574" y="395"/>
      <point x="604" y="442"/>
      <point x="615" y="510" type="curve" smooth="yes"/>
      <point x="625.390830115827" y="574.9426882239193"/>
      <point x="626" y="589"/>
      <point x="626" y="601" type="curve" smooth="yes"/>
      <point x="626.0" y="718.6470588235294"/>
      <point x="551" y="749"/>
      <point x="428" y="749" type="curve" smooth="yes"/>
      <point x="335" y="749"/>
      <point x="241" y="735"/>
      <point x="158" y="721" type="curve"/>
    </contour>
  </outline>
</glyph>
<glyph name="four" format="2">
  <advance width="635"/>
  <unicode hex="0034"/>
  <note>
GF Latin Plus glyph
</note>
  <outline>
    <contour>
      <point x="56" y="224" type="line"/>
      <point x="77" y="137" type="line"/>
      <point x="386" y="137" type="line"/>
      <point x="364" y="0" type="line"/>
      <point x="558" y="0" type="line"/>
      <point x="580" y="137" type="line"/>
      <point x="644" y="167" type="line"/>
      <point x="666" y="301" type="line"/>
      <point x="606" y="301" type="line"/>
      <point x="638" y="507" type="line"/>
      <point x="481" y="507" type="line"/>
      <point x="429" y="411" type="line"/>
      <point x="412" y="301" type="line"/>
      <point x="300" y="301" type="line"/>
      <point x="552" y="743" type="line"/>
      <point x="354" y="743" type="line"/>
    </contour>
  </outline>
</glyph>
<glyph name="six" format="2">
  <advance width="597"/>
  <unicode hex="0036"/>
  <note>
GF Latin Plus glyph
</note>
  <outline>
    <contour>
      <point x="279" y="302" type="curve"/>
      <point x="365" y="302" type="line" smooth="yes"/>
      <point x="400" y="302"/>
      <point x="412" y="294"/>
      <point x="412" y="269" type="curve" smooth="yes"/>
      <point x="412" y="262"/>
      <point x="411" y="255"/>
      <point x="410" y="247" type="curve" smooth="yes"/>
      <point x="406" y="219" type="line" smooth="yes"/>
      <point x="400" y="186"/>
      <point x="388" y="168"/>
      <point x="355" y="168" type="curve" smooth="yes"/>
      <point x="338" y="168" type="line" smooth="yes"/>
      <point x="292" y="168"/>
      <point x="272" y="184"/>
      <point x="272" y="237" type="curve" smooth="yes"/>
      <point x="272" y="254"/>
      <point x="275" y="276"/>
    </contour>
    <contour>
      <point x="178" y="749"/>
      <point x="79" y="534"/>
      <point x="79" y="211" type="curve" smooth="yes"/>
      <point x="79" y="41"/>
      <point x="146" y="-6"/>
      <point x="270" y="-6" type="curve" smooth="yes"/>
      <point x="373" y="-6" type="line" smooth="yes"/>
      <point x="489" y="-6"/>
      <point x="573" y="48"/>
      <point x="593" y="178" type="curve" smooth="yes"/>
      <point x="610" y="286" type="line" smooth="yes"/>
      <point x="613" y="303"/>
      <point x="615" y="320"/>
      <point x="615" y="335" type="curve" smooth="yes"/>
      <point x="615" y="411"/>
      <point x="577" y="466"/>
      <point x="448" y="466" type="curve" smooth="yes"/>
      <point x="374" y="466"/>
      <point x="341" y="462"/>
      <point x="301" y="445" type="curve"/>
      <point x="315" y="528"/>
      <point x="352" y="575"/>
      <point x="443" y="575" type="curve" smooth="yes"/>
      <point x="612" y="575" type="line"/>
      <point x="636" y="729" type="line"/>
      <point x="585" y="743"/>
      <point x="519" y="749"/>
      <point x="448" y="749" type="curve" smooth="yes"/>
    </contour>
  </outline>
</glyph>
<glyph name="seven" format="2">
  <advance width="561"/>
  <unicode hex="0037"/>
  <note>
GF Latin Plus glyph
</note>
  <outline>
    <contour>
      <point x="104" y="549" type="line"/>
      <point x="381" y="549" type="line"/>
      <point x="90" y="0" type="line"/>
      <point x="316" y="0" type="line"/>
      <point x="650" y="665" type="line"/>
      <point x="616" y="743" type="line"/>
      <point x="135" y="743" type="line"/>
    </contour>
  </outline>
</glyph>
<glyph name="eight" format="1">
  <advance width="618"/>
  <unicode hex="0038"/>
  <note>
    GF Latin Plus glyph
  </note>
  <outline>
    <contour>
      <point x="328" y="515" type="curve" smooth="yes"/>
      <point x="332" y="546" type="line" smooth="yes"/>
      <point x="338" y="583"/>
      <point x="352" y="585"/>
      <point x="376" y="585" type="curve" smooth="yes"/>
      <point x="428" y="585" type="line" smooth="yes"/>
      <point x="444" y="585"/>
      <point x="460" y="584"/>
      <point x="460" y="559" type="curve" smooth="yes"/>
      <point x="460" y="556"/>
      <point x="459" y="551"/>
      <point x="458" y="546" type="curve" smooth="yes"/>
      <point x="454" y="515" type="line" smooth="yes"/>
      <point x="448" y="478"/>
      <point x="443" y="462"/>
      <point x="408" y="462" type="curve" smooth="yes"/>
      <point x="356" y="462" type="line" smooth="yes"/>
      <point x="335" y="462"/>
      <point x="325" y="465"/>
      <point x="325" y="489" type="curve" smooth="yes"/>
      <point x="325" y="496"/>
      <point x="326" y="504"/>
    </contour>
    <contour>
      <point x="268" y="204" type="curve" smooth="yes"/>
      <point x="276" y="251" type="line" smooth="yes"/>
      <point x="280" y="278"/>
      <point x="298" y="298"/>
      <point x="330" y="298" type="curve" smooth="yes"/>
      <point x="384" y="298" type="line" smooth="yes"/>
      <point x="410" y="298"/>
      <point x="423" y="282"/>
      <point x="423" y="260" type="curve" smooth="yes"/>
      <point x="423" y="257"/>
      <point x="422" y="254"/>
      <point x="422" y="251" type="curve" smooth="yes"/>
      <point x="414" y="204" type="line" smooth="yes"/>
      <point x="410" y="176"/>
      <point x="404" y="158"/>
      <point x="360" y="158" type="curve" smooth="yes"/>
      <point x="308" y="158" type="line" smooth="yes"/>
      <point x="279" y="158"/>
      <point x="267" y="166"/>
      <point x="267" y="188" type="curve" smooth="yes"/>
      <point x="267" y="193"/>
      <point x="267" y="198"/>
    </contour>
    <contour>
      <point x="67" y="159" type="line" smooth="yes"/>
      <point x="65" y="146"/>
      <point x="63" y="131"/>
      <point x="63" y="115" type="curve" smooth="yes"/>
      <point x="63" y="59"/>
      <point x="89" y="-6"/>
      <point x="237" y="-6" type="curve" smooth="yes"/>
      <point x="392" y="-6" type="line" smooth="yes"/>
      <point x="489" y="-6"/>
      <point x="579" y="19"/>
      <point x="602" y="165" type="curve" smooth="yes"/>
      <point x="618" y="264" type="line" smooth="yes"/>
      <point x="619" y="275"/>
      <point x="621" y="288"/>
      <point x="621" y="303" type="curve" smooth="yes"/>
      <point x="621" y="340"/>
      <point x="611" y="382"/>
      <point x="563" y="394" type="curve"/>
      <point x="617" y="401"/>
      <point x="637" y="483"/>
      <point x="642" y="510" type="curve" smooth="yes"/>
      <point x="655" y="594" type="line" smooth="yes"/>
      <point x="657" y="609"/>
      <point x="659" y="623"/>
      <point x="659" y="635" type="curve" smooth="yes"/>
      <point x="659" y="718"/>
      <point x="607" y="749"/>
      <point x="513" y="749" type="curve" smooth="yes"/>
      <point x="357" y="749" type="line" smooth="yes"/>
      <point x="261" y="749"/>
      <point x="171" y="720"/>
      <point x="151" y="596" type="curve" smooth="yes"/>
      <point x="138" y="510" type="line" smooth="yes"/>
      <point x="135" y="491"/>
      <point x="132" y="472"/>
      <point x="132" y="455" type="curve" smooth="yes"/>
      <point x="132" y="426"/>
      <point x="141" y="400"/>
      <point x="176" y="380" type="curve"/>
      <point x="118" y="367"/>
      <point x="91" y="311"/>
      <point x="84" y="264" type="curve" smooth="yes"/>
    </contour>
  </outline>
</glyph>
<glyph name="less" format="2">
  <advance width="609"/>
  <unicode hex="003C"/>
  <note>
GF Latin Plus glyph
</note>
  <outline>
    <contour>
      <point x="133" y="266" type="line"/>
      <point x="526" y="130" type="line"/>
      <point x="553" y="300" type="line"/>
      <point x="337" y="353" type="line"/>
      <point x="569" y="396" type="line"/>
      <point x="596" y="566" type="line"/>
      <point x="160" y="436" type="line"/>
    </contour>
  </outline>
</glyph>
<glyph name="question" format="2">
  <advance width="528"/>
  <unicode hex="003F"/>
  <note>
GF Latin Plus glyph
</note>
  <outline>
    <contour>
      <point x="126" y="535" type="line"/>
      <point x="179" y="552"/>
      <point x="230" y="565"/>
      <point x="282" y="565" type="curve" smooth="yes"/>
      <point x="337" y="565"/>
      <point x="369" y="550"/>
      <point x="369" y="513" type="curve" smooth="yes"/>
      <point x="369" y="510"/>
      <point x="369" y="506"/>
      <point x="369" y="502" type="curve" smooth="yes"/>
      <point x="366" y="487" type="line" smooth="yes"/>
      <point x="359" y="442"/>
      <point x="326" y="430"/>
      <point x="284" y="430" type="curve" smooth="yes"/>
      <point x="202" y="430" type="line"/>
      <point x="167" y="206" type="line"/>
      <point x="311" y="206" type="line"/>
      <point x="323" y="286" type="line"/>
      <point x="460" y="286"/>
      <point x="539" y="355"/>
      <point x="559" y="483" type="curve" smooth="yes"/>
      <point x="568" y="534" type="line" smooth="yes"/>
      <point x="570" y="546"/>
      <point x="571" y="559"/>
      <point x="571" y="570" type="curve" smooth="yes"/>
      <point x="571" y="669"/>
      <point x="501" y="739"/>
      <point x="370" y="739" type="curve" smooth="yes"/>
      <point x="275" y="739"/>
      <point x="200" y="710"/>
      <point x="149" y="679" type="curve"/>
    </contour>
    <component base="period" xOffset="80"/>
  </outline>
</glyph>
<glyph name="at" format="2">
  <advance width="942"/>
  <unicode hex="0040"/>
  <note>
GF Latin Plus glyph
</note>
  <outline>
    <contour>
      <point x="418.0" y="318.1145833333333"/>
      <point x="464" y="393"/>
      <point x="544" y="393" type="curve" smooth="yes"/>
      <point x="553" y="393"/>
      <point x="573" y="391"/>
      <point x="595" y="388" type="curve"/>
      <point x="563" y="180" type="line"/>
      <point x="545" y="158"/>
      <point x="507" y="140"/>
      <point x="470" y="140" type="curve" smooth="yes"/>
      <point x="428" y="140"/>
      <point x="418" y="174"/>
      <point x="418" y="211" type="curve" smooth="yes"/>
    </contour>
    <contour>
      <point x="49" y="59" type="line" smooth="yes"/>
      <point x="46" y="38"/>
      <point x="44" y="17"/>
      <point x="44" y="-4" type="curve" smooth="yes"/>
      <point x="44" y="-107"/>
      <point x="93" y="-199"/>
      <point x="270" y="-199" type="curve" smooth="yes"/>
      <point x="358" y="-199" type="line" smooth="yes"/>
      <point x="484" y="-199"/>
      <point x="600" y="-182"/>
      <point x="650" y="-172" type="curve"/>
      <point x="667" y="-65" type="line"/>
      <point x="281" y="-65" type="line" smooth="yes"/>
      <point x="211" y="-65"/>
      <point x="192" y="-30"/>
      <point x="192" y="10" type="curve" smooth="yes"/>
      <point x="192" y="19"/>
      <point x="193" y="29"/>
      <point x="195" y="39" type="curve" smooth="yes"/>
      <point x="265" y="481" type="line" smooth="yes"/>
      <point x="274" y="538"/>
      <point x="292" y="604"/>
      <point x="387" y="604" type="curve" smooth="yes"/>
      <point x="729" y="604" type="line" smooth="yes"/>
      <point x="787" y="604"/>
      <point x="831" y="579"/>
      <point x="831" y="524" type="curve" smooth="yes"/>
      <point x="831" y="511"/>
      <point x="829" y="497"/>
      <point x="827" y="481" type="curve" smooth="yes"/>
      <point x="788" y="217" type="line" smooth="yes"/>
      <point x="776" y="136"/>
      <point x="749" y="127"/>
      <point x="701" y="127" type="curve"/>
      <point x="755" y="467" type="line"/>
      <point x="705" y="505"/>
      <point x="646" y="536"/>
      <point x="557" y="536" type="curve" smooth="yes"/>
      <point x="407.05226480836234" y="536.0"/>
      <point x="272.0" y="412.4391691394659"/>
      <point x="272" y="189" type="curve" smooth="yes"/>
      <point x="272.0" y="50.1219512195122"/>
      <point x="339.06849315068496" y="-6.0"/>
      <point x="416" y="-6" type="curve" smooth="yes"/>
      <point x="486.06976744186045" y="-6.0"/>
      <point x="531.9258094182491" y="30.89118714676523"/>
      <point x="547" y="53" type="curve"/>
      <point x="581" y="0" type="line"/>
      <point x="695" y="0" type="line" smooth="yes"/>
      <point x="829" y="0"/>
      <point x="912" y="57"/>
      <point x="933" y="198" type="curve" smooth="yes"/>
      <point x="972" y="461" type="line" smooth="yes"/>
      <point x="976" y="488"/>
      <point x="978" y="515"/>
      <point x="978" y="540" type="curve" smooth="yes"/>
      <point x="978" y="654"/>
      <point x="912" y="739"/>
      <point x="773" y="739" type="curve" smooth="yes"/>
      <point x="418" y="739" type="line" smooth="yes"/>
      <point x="263" y="739"/>
      <point x="153" y="708"/>
      <point x="123" y="521" type="curve" smooth="yes"/>
    </contour>
  </outline>
</glyph>
<glyph name="A" format="2">
  <advance width="709"/>
  <unicode hex="0041"/>
  <note>
GF Latin Plus glyph
</note>
  <anchor x="480" y="810" name="top"/>
  <anchor x="328" y="-150" name="bottom"/>
  <anchor x="555" y="0" name="ogonek"/>
  <outline>
    <contour>
      <point x="334" y="292" type="line"/>
      <point x="446" y="578" type="line"/>
      <point x="467" y="292" type="line"/>
    </contour>
    <contour>
      <point x="15" y="0" type="line"/>
      <point x="214" y="0" type="line"/>
      <point x="262" y="118" type="line"/>
      <point x="485" y="118" type="line"/>
      <point x="496" y="0" type="line"/>
      <point x="697" y="0" type="line"/>
      <point x="595" y="743" type="line"/>
      <point x="353" y="743" type="line"/>
    </contour>
  </outline>
</glyph>
<glyph name="B" format="1">
  <advance width="649.0"/>
  <unicode hex="0042"/>
  <note>
    GF Latin Plus glyph
  </note>
  <outline>
    <contour>
      <point x="321" y="451" type="line"/>
      <point x="340" y="569" type="line"/>
      <point x="438" y="569" type="line" smooth="yes"/>
      <point x="471" y="569"/>
      <point x="487" y="559"/>
      <point x="487" y="531" type="curve" smooth="yes"/>
      <point x="487" y="521"/>
      <point x="485" y="511"/>
      <point x="482" y="497" type="curve" smooth="yes"/>
      <point x="477" y="474"/>
      <point x="465" y="451"/>
      <point x="425" y="451" type="curve" smooth="yes"/>
    </contour>
    <contour>
      <point x="278" y="174" type="line"/>
      <point x="298" y="304" type="line"/>
      <point x="402" y="304" type="line" smooth="yes"/>
      <point x="449" y="304"/>
      <point x="466" y="291"/>
      <point x="466" y="260" type="curve" smooth="yes"/>
      <point x="466" y="253"/>
      <point x="466" y="247"/>
      <point x="465" y="240" type="curve" smooth="yes"/>
      <point x="458" y="189"/>
      <point x="437" y="174"/>
      <point x="385" y="174" type="curve" smooth="yes"/>
    </contour>
    <contour>
      <point x="57" y="0" type="line"/>
      <point x="360" y="0" type="line" smooth="yes"/>
      <point x="522" y="0"/>
      <point x="621" y="42"/>
      <point x="642" y="175" type="curve" smooth="yes"/>
      <point x="648" y="210"/>
      <point x="648" y="226"/>
      <point x="648" y="240" type="curve" smooth="yes"/>
      <point x="648" y="325"/>
      <point x="615" y="365"/>
      <point x="539" y="386" type="curve"/>
      <point x="616" y="403"/>
      <point x="664" y="464"/>
      <point x="675" y="532" type="curve" smooth="yes"/>
      <point x="678" y="551"/>
      <point x="679" y="568"/>
      <point x="679" y="585" type="curve" smooth="yes"/>
      <point x="679" y="677"/>
      <point x="640" y="743"/>
      <point x="479" y="743" type="curve" smooth="yes"/>
      <point x="173" y="743" type="line"/>
    </contour>
    <contour>
      <point x="411" y="810" type="move" name="top"/>
    </contour>
  </outline>
</glyph>
<glyph name="C" format="2">
  <advance width="592"/>
  <unicode hex="0043"/>
  <note>
GF Latin Plus glyph
</note>
  <anchor x="460" y="810" name="top"/>
  <anchor x="308" y="-150" name="bottom"/>
  <outline>
    <contour>
      <point x="98" y="399" type="curve" smooth="yes"/>
      <point x="90" y="348"/>
      <point x="86" y="300"/>
      <point x="86" y="258" type="curve" smooth="yes"/>
      <point x="86" y="95"/>
      <point x="170" y="-6"/>
      <point x="348" y="-6" type="curve" smooth="yes"/>
      <point x="415.0" y="-6.0"/>
      <point x="492.9629876222912" y="-1.0146960911490837"/>
      <point x="561" y="26" type="curve"/>
      <point x="585" y="179" type="line"/>
      <point x="528.9961154509144" y="172.99958379831224"/>
      <point x="484.0" y="168.0"/>
      <point x="400" y="168" type="curve" smooth="yes"/>
      <point x="308" y="168"/>
      <point x="278" y="195"/>
      <point x="278" y="256" type="curve" smooth="yes"/>
      <point x="278" y="284"/>
      <point x="283" y="320"/>
      <point x="290" y="366" type="curve" smooth="yes"/>
      <point x="321" y="562"/>
      <point x="370" y="575"/>
      <point x="456" y="575" type="curve" smooth="yes"/>
      <point x="516.0" y="575.0"/>
      <point x="589.9754727327743" y="562.0074044580304"/>
      <point x="643" y="546" type="curve"/>
      <point x="668" y="700" type="line"/>
      <point x="624.9773408378959" y="721.0110661024229"/>
      <point x="544.0" y="749.0"/>
      <point x="420" y="749" type="curve" smooth="yes"/>
      <point x="223" y="749"/>
      <point x="134" y="632"/>
    </contour>
  </outline>
</glyph>
<glyph name="D" format="2">
  <advance width="696"/>
  <unicode hex="0044"/>
  <note>
GF Latin Plus glyph
</note>
  <anchor x="450" y="810" name="top"/>
  <anchor x="298" y="-150" name="bottom"/>
  <outline>
    <contour>
      <point x="277" y="174" type="line"/>
      <point x="339" y="569" type="line"/>
      <point x="416" y="569" type="line" smooth="yes"/>
      <point x="497" y="569"/>
      <point x="532" y="548"/>
      <point x="532" y="474" type="curve" smooth="yes"/>
      <point x="532" y="456"/>
      <point x="528" y="421"/>
      <point x="521" y="375" type="curve" smooth="yes"/>
      <point x="498" y="232"/>
      <point x="452.9148936170213" y="174"/>
      <point x="361" y="174" type="curve" smooth="yes"/>
    </contour>
    <contour>
      <point x="55" y="0" type="line"/>
      <point x="340" y="0" type="line" smooth="yes"/>
      <point x="554" y="0"/>
      <point x="674" y="85"/>
      <point x="715" y="344" type="curve" smooth="yes"/>
      <point x="723" y="393"/>
      <point x="726" y="440"/>
      <point x="726" y="483" type="curve" smooth="yes"/>
      <point x="726" y="636"/>
      <point x="672" y="743"/>
      <point x="464" y="743" type="curve" smooth="yes"/>
      <point x="173" y="743" type="line"/>
    </contour>
  </outline>
</glyph>
<glyph name="E" format="2">
  <advance width="604"/>
  <unicode hex="0045"/>
  <note>
GF Latin Plus glyph
</note>
  <anchor x="430" y="810" name="top"/>
  <anchor x="278" y="-150" name="bottom"/>
  <anchor x="541" y="12" name="ogonek"/>
  <outline>
    <contour>
      <point x="82" y="173" type="line" smooth="yes"/>
      <point x="58" y="20"/>
      <point x="177" y="-6"/>
      <point x="251" y="-6" type="curve" smooth="yes"/>
      <point x="363" y="-6"/>
      <point x="458" y="3"/>
      <point x="551" y="12" type="curve"/>
      <point x="577" y="176" type="line"/>
      <point x="331" y="176" type="line" smooth="yes"/>
      <point x="292" y="176"/>
      <point x="280" y="195"/>
      <point x="285" y="228" type="curve" smooth="yes"/>
      <point x="294" y="286" type="line"/>
      <point x="544" y="296" type="line"/>
      <point x="568" y="450" type="line"/>
      <point x="322" y="460" type="line"/>
      <point x="329" y="507" type="line" smooth="yes"/>
      <point x="335" y="544"/>
      <point x="348" y="564"/>
      <point x="390" y="564" type="curve" smooth="yes"/>
      <point x="638" y="564" type="line"/>
      <point x="664" y="728" type="line"/>
      <point x="558" y="737"/>
      <point x="460" y="743"/>
      <point x="360" y="743" type="curve" smooth="yes"/>
      <point x="251" y="743"/>
      <point x="165" y="697"/>
      <point x="143" y="556" type="curve" smooth="yes"/>
    </contour>
  </outline>
</glyph>
<glyph name="F" format="2">
  <advance width="572"/>
  <unicode hex="0046"/>
  <note>
GF Latin Plus glyph
</note>
  <anchor x="440" y="810" name="top"/>
  <outline>
    <contour>
      <point x="55" y="0" type="line"/>
      <point x="249" y="0" type="line"/>
      <point x="290" y="256" type="line"/>
      <point x="540" y="266" type="line"/>
      <point x="565" y="420" type="line"/>
      <point x="317" y="429" type="line"/>
      <point x="329" y="508" type="line" smooth="yes"/>
      <point x="334" y="543"/>
      <point x="348" y="563"/>
      <point x="390" y="563" type="curve" smooth="yes"/>
      <point x="636" y="563" type="line"/>
      <point x="662" y="727" type="line"/>
      <point x="567" y="737"/>
      <point x="478" y="743"/>
      <point x="358" y="743" type="curve" smooth="yes"/>
      <point x="268" y="743"/>
      <point x="167" y="707"/>
      <point x="144" y="563" type="curve" smooth="yes"/>
    </contour>
  </outline>
</glyph>
<glyph name="G" format="2">
  <advance width="666"/>
  <unicode hex="0047"/>
  <note>
GF Latin Plus glyph
</note>
  <anchor x="450" y="810" name="top"/>
  <anchor x="298" y="-150" name="bottom"/>
  <outline>
    <contour>
      <point x="100" y="410" type="curve" smooth="yes"/>
      <point x="91.00937026270135" y="353.35903265501855"/>
      <point x="82" y="291"/>
      <point x="82" y="231" type="curve" smooth="yes"/>
      <point x="82" y="68"/>
      <point x="134" y="-6"/>
      <point x="275" y="-6" type="curve" smooth="yes"/>
      <point x="327" y="-6"/>
      <point x="417" y="24"/>
      <point x="457" y="49" type="curve"/>
      <point x="475" y="0" type="line"/>
      <point x="621" y="0" type="line"/>
      <point x="691" y="441" type="line"/>
      <point x="667.7444494031716" y="441.8613166887714"/>
      <point x="601.4444444444445" y="443.0"/>
      <point x="567" y="443" type="curve" smooth="yes"/>
      <point x="493.0958904109589" y="443.0"/>
      <point x="436.2300294586686" y="435.2729051263657"/>
      <point x="401" y="433" type="curve"/>
      <point x="376" y="279" type="line"/>
      <point x="479" y="279" type="line"/>
      <point x="464" y="183" type="line"/>
      <point x="441" y="178"/>
      <point x="386" y="173"/>
      <point x="345" y="173" type="curve" smooth="yes"/>
      <point x="297" y="173"/>
      <point x="278" y="203"/>
      <point x="278" y="250" type="curve" smooth="yes"/>
      <point x="278" y="279"/>
      <point x="282" y="317"/>
      <point x="290" y="368" type="curve" smooth="yes"/>
      <point x="315" y="531"/>
      <point x="343" y="576"/>
      <point x="457" y="576" type="curve" smooth="yes"/>
      <point x="568" y="576"/>
      <point x="637" y="568"/>
      <point x="673" y="561" type="curve"/>
      <point x="697" y="713" type="line"/>
      <point x="636" y="733"/>
      <point x="564" y="749"/>
      <point x="432" y="749" type="curve" smooth="yes"/>
      <point x="248" y="749"/>
      <point x="137" y="643"/>
    </contour>
  </outline>
</glyph>
<glyph name="H" format="2">
  <advance width="708"/>
  <unicode hex="0048"/>
  <note>
GF Latin Plus glyph
</note>
  <anchor x="482" y="810" name="top"/>
  <anchor x="330" y="-150" name="bottom"/>
  <outline>
    <contour>
      <point x="55" y="0" type="line"/>
      <point x="249" y="0" type="line"/>
      <point x="294" y="283" type="line"/>
      <point x="514" y="283" type="line"/>
      <point x="469" y="0" type="line"/>
      <point x="663" y="0" type="line"/>
      <point x="781" y="743" type="line"/>
      <point x="587" y="743" type="line"/>
      <point x="541" y="457" type="line"/>
      <point x="321" y="457" type="line"/>
      <point x="367" y="743" type="line"/>
      <point x="173" y="743" type="line"/>
    </contour>
  </outline>
</glyph>
<glyph name="J" format="2">
  <advance width="417"/>
  <unicode hex="004A"/>
  <note>
GF Latin Plus glyph
</note>
  <anchor x="391" y="810" name="top"/>
  <outline>
    <contour>
      <point x="34" y="15" type="line"/>
      <point x="63" y="3"/>
      <point x="115" y="-6"/>
      <point x="157" y="-6" type="curve" smooth="yes"/>
      <point x="302.1777777777778" y="-6.0"/>
      <point x="369" y="46"/>
      <point x="392" y="189" type="curve" smooth="yes"/>
      <point x="480" y="743" type="line"/>
      <point x="286" y="743" type="line"/>
      <point x="205" y="232" type="line" smooth="yes"/>
      <point x="198.80122112551018" y="192.89412339673711"/>
      <point x="179" y="170"/>
      <point x="123" y="170" type="curve" smooth="yes"/>
      <point x="102" y="170.0"/>
      <point x="80" y="170.0"/>
      <point x="59" y="170" type="curve"/>
    </contour>
  </outline>
</glyph>
<glyph name="K" format="2">
  <advance width="671"/>
  <unicode hex="004B"/>
  <note>
GF Latin Plus glyph
</note>
  <anchor x="460" y="810" name="top"/>
  <anchor x="308" y="-150" name="bottom"/>
  <outline>
    <contour>
      <point x="55" y="0" type="line"/>
      <point x="249" y="0" type="line"/>
      <point x="294" y="286" type="line"/>
      <point x="381" y="286" type="line"/>
      <point x="479" y="0" type="line"/>
      <point x="671" y="0" type="line"/>
      <point x="540" y="369" type="line"/>
      <point x="769" y="743" type="line"/>
      <point x="572" y="743" type="line"/>
      <point x="398" y="460" type="line"/>
      <point x="322" y="460" type="line"/>
      <point x="367" y="743" type="line"/>
      <point x="173" y="743" type="line"/>
    </contour>
  </outline>
</glyph>
<glyph name="L" format="2">
  <advance width="537"/>
  <unicode hex="004C"/>
  <note>
GF Latin Plus glyph
</note>
  <anchor x="280" y="810" name="top"/>
  <anchor x="248" y="-150" name="bottom"/>
  <anchor x="392" y="630" name="altcaron"/>
  <anchor x="414" y="400" name="dot"/>
  <outline>
    <contour>
      <point x="87" y="200" type="line" smooth="yes"/>
      <point x="84" y="182"/>
      <point x="83" y="166"/>
      <point x="83" y="150" type="curve" smooth="yes"/>
      <point x="83" y="48"/>
      <point x="145" y="0"/>
      <point x="243" y="0" type="curve" smooth="yes"/>
      <point x="517" y="0" type="line"/>
      <point x="545" y="174" type="line"/>
      <point x="331" y="174" type="line" smooth="yes"/>
      <point x="298" y="174"/>
      <point x="284" y="188"/>
      <point x="284" y="213" type="curve" smooth="yes"/>
      <point x="284" y="217"/>
      <point x="284" y="221"/>
      <point x="285" y="226" type="curve" smooth="yes"/>
      <point x="367" y="743" type="line"/>
      <point x="173" y="743" type="line"/>
    </contour>
  </outline>
</glyph>
<glyph name="M" format="2">
  <advance width="906"/>
  <unicode hex="004D"/>
  <note>
GF Latin Plus glyph
</note>
  <anchor x="570" y="810" name="top"/>
  <anchor x="418" y="-150" name="bottom"/>
  <outline>
    <contour>
      <point x="30" y="0" type="line"/>
      <point x="222" y="0" type="line"/>
      <point x="330" y="392" type="line"/>
      <point x="365" y="0" type="line"/>
      <point x="547" y="0" type="line"/>
      <point x="709" y="400" type="line"/>
      <point x="693" y="0" type="line"/>
      <point x="880" y="0" type="line"/>
      <point x="909" y="743" type="line"/>
      <point x="729" y="743" type="line"/>
      <point x="493" y="221" type="line"/>
      <point x="423" y="743" type="line"/>
      <point x="241" y="743" type="line"/>
    </contour>
  </outline>
</glyph>
<glyph name="N" format="2">
  <advance width="709"/>
  <unicode hex="004E"/>
  <note>
GF Latin Plus glyph
</note>
  <anchor x="462" y="810" name="top"/>
  <anchor x="310" y="-150" name="bottom"/>
  <outline>
    <contour>
      <point x="55" y="0" type="line"/>
      <point x="249" y="0" type="line"/>
      <point x="315" y="414" type="line"/>
      <point x="510" y="0" type="line"/>
      <point x="664" y="0" type="line"/>
      <point x="782" y="743" type="line"/>
      <point x="588" y="743" type="line"/>
      <point x="522" y="329" type="line"/>
      <point x="327" y="743" type="line"/>
      <point x="173" y="743" type="line"/>
    </contour>
  </outline>
</glyph>
<glyph name="O" format="2">
  <advance width="704"/>
  <unicode hex="004F"/>
  <note>
GF Latin Plus glyph
</note>
  <anchor x="481" y="810" name="top"/>
  <anchor x="329" y="-150" name="bottom"/>
  <anchor x="444" y="0" name="ogonek"/>
  <outline>
    <contour>
      <point x="277" y="249" type="curve" smooth="yes"/>
      <point x="277" y="276"/>
      <point x="283" y="325"/>
      <point x="291" y="373" type="curve" smooth="yes"/>
      <point x="316" y="532"/>
      <point x="349" y="575"/>
      <point x="443" y="575" type="curve" smooth="yes"/>
      <point x="514" y="575"/>
      <point x="543" y="559"/>
      <point x="543" y="490" type="curve" smooth="yes"/>
      <point x="543" y="462"/>
      <point x="537" y="411"/>
      <point x="529" y="361" type="curve" smooth="yes"/>
      <point x="509" y="233"/>
      <point x="479" y="169"/>
      <point x="380" y="169" type="curve" smooth="yes"/>
      <point x="305" y="169"/>
      <point x="277" y="188"/>
    </contour>
    <contour>
      <point x="83" y="239" type="curve" smooth="yes"/>
      <point x="83" y="36"/>
      <point x="194" y="-6"/>
      <point x="350" y="-6" type="curve" smooth="yes"/>
      <point x="577" y="-6"/>
      <point x="678" y="56"/>
      <point x="722" y="336" type="curve" smooth="yes"/>
      <point x="731" y="391"/>
      <point x="737" y="451"/>
      <point x="737" y="492" type="curve" smooth="yes"/>
      <point x="737" y="708"/>
      <point x="621" y="749"/>
      <point x="470" y="749" type="curve" smooth="yes"/>
      <point x="244" y="749"/>
      <point x="141" y="667"/>
      <point x="98" y="398" type="curve" smooth="yes"/>
      <point x="89" y="344"/>
      <point x="83" y="284"/>
    </contour>
  </outline>
</glyph>
<glyph name="P" format="2">
  <advance width="616"/>
  <unicode hex="0050"/>
  <note>
GF Latin Plus glyph
</note>
  <anchor x="420" y="810" name="top"/>
  <outline>
    <contour>
      <point x="309" y="378" type="line"/>
      <point x="339" y="569" type="line"/>
      <point x="441" y="569" type="line" smooth="yes"/>
      <point x="474.3333333333333" y="569"/>
      <point x="491.0" y="553.0"/>
      <point x="491" y="506" type="curve" smooth="yes"/>
      <point x="491" y="500"/>
      <point x="489" y="482"/>
      <point x="486" y="465" type="curve" smooth="yes"/>
      <point x="480.0112483101889" y="419.08623704478157"/>
      <point x="456.04761904761904" y="378"/>
      <point x="412" y="378" type="curve" smooth="yes"/>
    </contour>
    <contour>
      <point x="55" y="0" type="line"/>
      <point x="249" y="0" type="line"/>
      <point x="285" y="226" type="line"/>
      <point x="313" y="215"/>
      <point x="378" y="204"/>
      <point x="440" y="204" type="curve" smooth="yes"/>
      <point x="543.1369294605809" y="204.0"/>
      <point x="651" y="265"/>
      <point x="679" y="443" type="curve" smooth="yes"/>
      <point x="683" y="468"/>
      <point x="689" y="504"/>
      <point x="689" y="525" type="curve" smooth="yes"/>
      <point x="689" y="696"/>
      <point x="596" y="743"/>
      <point x="479" y="743" type="curve" smooth="yes"/>
      <point x="173" y="743" type="line"/>
    </contour>
  </outline>
</glyph>
<glyph name="Q" format="2">
  <advance width="704"/>
  <unicode hex="0051"/>
  <note>
GF Latin Plus glyph
</note>
  <outline>
    <contour>
      <point x="300" y="-41" type="line"/>
      <point x="300.0" y="-163.27932960893855"/>
      <point x="388" y="-212"/>
      <point x="500" y="-212" type="curve" smooth="yes"/>
      <point x="527" y="-212"/>
      <point x="545" y="-211"/>
      <point x="563" y="-208" type="curve"/>
      <point x="585" y="-68" type="line"/>
      <point x="559" y="-73"/>
      <point x="527" y="-78"/>
      <point x="499" y="-78" type="curve" smooth="yes"/>
      <point x="455.0" y="-78.0"/>
      <point x="436" y="-68"/>
      <point x="434" y="-41" type="curve"/>
    </contour>
    <component base="O"/>
  </outline>
</glyph>
<glyph name="R" format="2">
  <advance width="644"/>
  <unicode hex="0052"/>
  <note>
GF Latin Plus glyph
</note>
  <anchor x="430" y="810" name="top"/>
  <anchor x="308" y="-150" name="bottom"/>
  <outline>
    <contour>
      <point x="314" y="410" type="line"/>
      <point x="339" y="569" type="line"/>
      <point x="426" y="569" type="line" smooth="yes"/>
      <point x="468.2641509433962" y="569"/>
      <point x="482.0" y="550.6470588235294"/>
      <point x="482" y="521" type="curve" smooth="yes"/>
      <point x="482" y="513"/>
      <point x="482" y="504"/>
      <point x="480" y="494" type="curve"/>
      <point x="471.3928627107686" y="438.0536076199959"/>
      <point x="458" y="410"/>
      <point x="395" y="410" type="curve" smooth="yes"/>
    </contour>
    <contour>
      <point x="55" y="0" type="line"/>
      <point x="249" y="0" type="line"/>
      <point x="290" y="256" type="line"/>
      <point x="315" y="256.0"/>
      <point x="339" y="256.0"/>
      <point x="364" y="256" type="curve"/>
      <point x="427" y="0" type="line"/>
      <point x="624" y="0" type="line"/>
      <point x="541" y="288" type="line"/>
      <point x="579" y="309"/>
      <point x="655.4047075905579" y="349.5653897833228"/>
      <point x="675" y="483" type="curve" smooth="yes"/>
      <point x="679" y="507"/>
      <point x="681" y="529"/>
      <point x="681" y="549" type="curve" smooth="yes"/>
      <point x="681.0" y="684.0"/>
      <point x="606" y="743"/>
      <point x="465" y="743" type="curve" smooth="yes"/>
      <point x="173" y="743" type="line"/>
    </contour>
  </outline>
</glyph>
<glyph name="S" format="1">
  <advance width="576.0"/>
  <unicode hex="0053"/>
  <note>
    GF Latin Plus glyph
  </note>
  <outline>
    <contour>
      <point x="56" y="23" type="line"/>
      <point x="107" y="9"/>
      <point x="190" y="-6"/>
      <point x="309" y="-6" type="curve" smooth="yes"/>
      <point x="506" y="-6"/>
      <point x="570" y="59"/>
      <point x="589" y="179" type="curve" smooth="yes"/>
      <point x="600" y="249" type="line" smooth="yes"/>
      <point x="602" y="263"/>
      <point x="603" y="276"/>
      <point x="603" y="288" type="curve" smooth="yes"/>
      <point x="603" y="387"/>
      <point x="530" y="459"/>
      <point x="396" y="459" type="curve" smooth="yes"/>
      <point x="352" y="459" type="line" smooth="yes"/>
      <point x="316" y="459"/>
      <point x="301" y="473"/>
      <point x="301" y="500" type="curve" smooth="yes"/>
      <point x="301" y="505"/>
      <point x="302" y="511"/>
      <point x="303" y="517" type="curve" smooth="yes"/>
      <point x="305" y="528" type="line" smooth="yes"/>
      <point x="311" y="563"/>
      <point x="340" y="575"/>
      <point x="382" y="575" type="curve" smooth="yes"/>
      <point x="448" y="575"/>
      <point x="542" y="573"/>
      <point x="615" y="566" type="curve"/>
      <point x="639" y="720" type="line"/>
      <point x="556" y="741"/>
      <point x="480" y="749"/>
      <point x="407" y="749" type="curve" smooth="yes"/>
      <point x="248" y="749"/>
      <point x="147" y="694"/>
      <point x="124" y="551" type="curve" smooth="yes"/>
      <point x="115" y="494" type="line" smooth="yes"/>
      <point x="113" y="479"/>
      <point x="112" y="465"/>
      <point x="112" y="451" type="curve" smooth="yes"/>
      <point x="112" y="350"/>
      <point x="183" y="276"/>
      <point x="304" y="276" type="curve" smooth="yes"/>
      <point x="344" y="276" type="line" smooth="yes"/>
      <point x="393" y="276"/>
      <point x="414" y="267"/>
      <point x="414" y="240" type="curve" smooth="yes"/>
      <point x="414" y="236"/>
      <point x="414" y="232"/>
      <point x="413" y="227" type="curve" smooth="yes"/>
      <point x="411" y="216" type="line" smooth="yes"/>
      <point x="405" y="180"/>
      <point x="380" y="168"/>
      <point x="304" y="168" type="curve" smooth="yes"/>
      <point x="227" y="168"/>
      <point x="142" y="171"/>
      <point x="80" y="177" type="curve"/>
    </contour>
    <contour>
      <point x="413" y="810" type="move" name="top"/>
    </contour>
    <contour>
      <point x="261" y="-150" type="move" name="bottom"/>
    </contour>
  </outline>
</glyph>
<glyph name="T" format="2">
  <advance width="612"/>
  <unicode hex="0054"/>
  <note>
GF Latin Plus glyph
</note>
  <anchor x="430" y="810" name="top"/>
  <anchor x="278" y="-150" name="bottom"/>
  <outline>
    <contour>
      <point x="110" y="569" type="line"/>
      <point x="294" y="569" type="line"/>
      <point x="204" y="0" type="line"/>
      <point x="398" y="0" type="line"/>
      <point x="488" y="569" type="line"/>
      <point x="672" y="569" type="line"/>
      <point x="700" y="743" type="line"/>
      <point x="138" y="743" type="line"/>
    </contour>
  </outline>
</glyph>
<glyph name="U" format="2">
  <advance width="696"/>
  <unicode hex="0055"/>
  <note>
GF Latin Plus glyph
</note>
  <anchor x="472" y="810" name="top"/>
  <anchor x="320" y="-150" name="bottom"/>
  <anchor x="438" y="0" name="ogonek"/>
  <outline>
    <contour>
      <point x="110" y="350" type="line" smooth="yes"/>
      <point x="103" y="306"/>
      <point x="97" y="263"/>
      <point x="97" y="228" type="curve" smooth="yes"/>
      <point x="97" y="64"/>
      <point x="182" y="-6"/>
      <point x="350" y="-6" type="curve" smooth="yes"/>
      <point x="540" y="-6"/>
      <point x="647" y="39"/>
      <point x="687" y="290" type="curve" smooth="yes"/>
      <point x="759" y="743" type="line"/>
      <point x="565" y="743" type="line"/>
      <point x="498" y="320" type="line" smooth="yes"/>
      <point x="479" y="200"/>
      <point x="447" y="168"/>
      <point x="378" y="168" type="curve" smooth="yes"/>
      <point x="313" y="168"/>
      <point x="291" y="195"/>
      <point x="291" y="245" type="curve" smooth="yes"/>
      <point x="291" y="266"/>
      <point x="296" y="292"/>
      <point x="300" y="320" type="curve" smooth="yes"/>
      <point x="367" y="743" type="line"/>
      <point x="173" y="743" type="line"/>
    </contour>
  </outline>
</glyph>
<glyph name="V" format="2">
  <advance width="710"/>
  <unicode hex="0056"/>
  <note>
GF Latin Plus glyph
</note>
  <outline>
    <contour>
      <point x="132" y="743" type="line"/>
      <point x="234" y="0" type="line"/>
      <point x="476" y="0" type="line"/>
      <point x="814" y="743" type="line"/>
      <point x="615" y="743" type="line"/>
      <point x="389" y="211" type="line"/>
      <point x="333" y="743" type="line"/>
    </contour>
  </outline>
</glyph>
<glyph name="W" format="2">
  <advance width="1050"/>
  <unicode hex="0057"/>
  <note>
GF Latin Plus glyph
</note>
  <anchor x="649" y="810" name="top"/>
  <anchor x="492" y="-150" name="bottom"/>
  <outline>
    <contour>
      <point x="133" y="743" type="line"/>
      <point x="185" y="0" type="line"/>
      <point x="379" y="0" type="line"/>
      <point x="578" y="454" type="line"/>
      <point x="632" y="0" type="line"/>
      <point x="826" y="0" type="line"/>
      <point x="1114" y="743" type="line"/>
      <point x="913" y="743" type="line"/>
      <point x="749" y="291" type="line"/>
      <point x="711" y="743" type="line"/>
      <point x="537" y="743" type="line"/>
      <point x="354" y="291" type="line"/>
      <point x="334" y="743" type="line"/>
    </contour>
  </outline>
</glyph>
<glyph name="X" format="2">
  <advance width="680"/>
  <unicode hex="0058"/>
  <note>
GF Latin Plus glyph
</note>
  <anchor x="462" y="810" name="top"/>
  <anchor x="310" y="-150" name="bottom"/>
  <outline>
    <contour>
      <point x="8" y="0" type="line"/>
      <point x="222" y="0" type="line"/>
      <point x="401" y="254" type="line"/>
      <point x="327" y="417" type="line"/>
    </contour>
    <contour>
      <point x="402" y="477" type="line"/>
      <point x="475" y="316" type="line"/>
      <point x="803" y="743" type="line"/>
      <point x="589" y="743" type="line"/>
    </contour>
    <contour>
      <point x="331" y="305" type="line"/>
      <point x="470" y="0" type="line"/>
      <point x="680" y="0" type="line"/>
      <point x="478" y="428" type="line"/>
      <point x="333" y="743" type="line"/>
      <point x="122" y="743" type="line"/>
    </contour>
  </outline>
</glyph>
<glyph name="Y" format="2">
  <advance width="660"/>
  <unicode hex="0059"/>
  <note>
GF Latin Plus glyph
</note>
  <anchor x="460" y="810" name="top"/>
  <anchor x="308" y="-150" name="bottom"/>
  <anchor x="411" y="0" name="ogonek"/>
  <outline>
    <contour>
      <point x="128" y="743" type="line"/>
      <point x="259" y="200" type="line"/>
      <point x="227" y="0" type="line"/>
      <point x="421" y="0" type="line"/>
      <point x="453" y="200" type="line"/>
      <point x="768" y="743" type="line"/>
      <point x="549" y="743" type="line"/>
      <point x="388" y="408" type="line"/>
      <point x="339" y="743" type="line"/>
    </contour>
  </outline>
</glyph>
<glyph name="Z" format="2">
  <advance width="573"/>
  <unicode hex="005A"/>
  <note>
GF Latin Plus glyph
</note>
  <anchor x="420" y="810" name="top"/>
  <anchor x="268" y="-150" name="bottom"/>
  <outline>
    <contour>
      <point x="30" y="0" type="line"/>
      <point x="543" y="0" type="line"/>
      <point x="571" y="174" type="line"/>
      <point x="281" y="174" type="line"/>
      <point x="625" y="579" type="line"/>
      <point x="651" y="743" type="line"/>
      <point x="148" y="743" type="line"/>
      <point x="120" y="569" type="line"/>
      <point x="401" y="569" type="line"/>
      <point x="56" y="164" type="line"/>
    </contour>
  </outline>
</glyph>
<glyph name="bracketleft" format="1">
  <advance width="344"/>
  <unicode hex="005B"/>
  <note>
    GF Latin Plus glyph
  </note>
  <outline>
    <contour>
      <point x="50" y="12" type="line" smooth="yes"/>
      <point x="47" y="-8"/>
      <point x="44" y="-30"/>
      <point x="44" y="-51" type="curve" smooth="yes"/>
      <point x="44" y="-132"/>
      <point x="77" y="-210"/>
      <point x="211" y="-210" type="curve" smooth="yes"/>
      <point x="301" y="-210" type="line"/>
      <point x="325" y="-56" type="line"/>
      <point x="295" y="-56" type="line" smooth="yes"/>
      <point x="263" y="-56"/>
      <point x="243" y="-43"/>
      <point x="243" y="-4" type="curve" smooth="yes"/>
      <point x="243" y="4"/>
      <point x="244" y="12"/>
      <point x="245" y="22" type="curve" smooth="yes"/>
      <point x="339" y="610" type="line" smooth="yes"/>
      <point x="348" y="670"/>
      <point x="375" y="688"/>
      <point x="413" y="688" type="curve" smooth="yes"/>
      <point x="443" y="688" type="line"/>
      <point x="467" y="842" type="line"/>
      <point x="377" y="842" type="line" smooth="yes"/>
      <point x="238" y="842"/>
      <point x="170" y="772"/>
      <point x="149" y="640" type="curve" smooth="yes"/>
    </contour>
  </outline>
</glyph>
<glyph name="backslash" format="2">
  <advance width="502"/>
  <unicode hex="005C"/>
  <note>
GF Latin Plus glyph
</note>
  <outline>
    <contour>
      <point x="133" y="770" type="line"/>
      <point x="281" y="-72" type="line"/>
      <point x="480" y="-72" type="line"/>
      <point x="332" y="770" type="line"/>
    </contour>
  </outline>
</glyph>
<glyph name="bracketright" format="1">
  <advance width="344"/>
  <unicode hex="005D"/>
  <note>
    GF Latin Plus glyph
  </note>
  <outline>
    <contour>
      <point x="2" y="-56" type="line"/>
      <point x="-22" y="-210" type="line"/>
      <point x="68" y="-210" type="line" smooth="yes"/>
      <point x="237" y="-210"/>
      <point x="283" y="-86"/>
      <point x="299" y="12" type="curve" smooth="yes"/>
      <point x="398" y="640" type="line" smooth="yes"/>
      <point x="402" y="660"/>
      <point x="403" y="679"/>
      <point x="403" y="696" type="curve" smooth="yes"/>
      <point x="403" y="792"/>
      <point x="352" y="842"/>
      <point x="234" y="842" type="curve" smooth="yes"/>
      <point x="144" y="842" type="line"/>
      <point x="120" y="688" type="line"/>
      <point x="150" y="688" type="line" smooth="yes"/>
      <point x="182" y="688"/>
      <point x="202" y="675"/>
      <point x="202" y="636" type="curve" smooth="yes"/>
      <point x="202" y="628"/>
      <point x="201" y="620"/>
      <point x="200" y="610" type="curve" smooth="yes"/>
      <point x="106" y="22" type="line" smooth="yes"/>
      <point x="97" y="-38"/>
      <point x="70" y="-56"/>
      <point x="32" y="-56" type="curve" smooth="yes"/>
    </contour>
  </outline>
</glyph>
<glyph name="asciicircum" format="2">
  <advance width="378"/>
  <unicode hex="005E"/>
  <note>
GF Latin Plus glyph
</note>
  <outline>
    <contour>
      <point x="112" y="531" type="line"/>
      <point x="234" y="671" type="line"/>
      <point x="365" y="671" type="line"/>
      <point x="434" y="531" type="line"/>
      <point x="323" y="531" type="line"/>
      <point x="282" y="582" type="line"/>
      <point x="224" y="531" type="line"/>
    </contour>
  </outline>
</glyph>
<glyph name="a" format="1">
  <advance width="575.0"/>
  <unicode hex="0061"/>
  <note>
    GF Latin Plus glyph
  </note>
  <outline>
    <contour>
      <point x="267" y="288" type="curve" smooth="yes"/>
      <point x="277" y="348"/>
      <point x="305" y="390"/>
      <point x="358" y="390" type="curve" smooth="yes"/>
      <point x="376" y="390"/>
      <point x="394" y="385"/>
      <point x="399" y="383" type="curve"/>
      <point x="366" y="178" type="line"/>
      <point x="355" y="166"/>
      <point x="333" y="149"/>
      <point x="302" y="149" type="curve" smooth="yes"/>
      <point x="267" y="149"/>
      <point x="259" y="184"/>
      <point x="259" y="218" type="curve" smooth="yes"/>
      <point x="259" y="231"/>
      <point x="262" y="260"/>
    </contour>
    <contour>
      <point x="77" y="299" type="curve" smooth="yes"/>
      <point x="73" y="272"/>
      <point x="65" y="223"/>
      <point x="65" y="182" type="curve" smooth="yes"/>
      <point x="65" y="50"/>
      <point x="129" y="-6"/>
      <point x="203" y="-6" type="curve" smooth="yes"/>
      <point x="260" y="-6"/>
      <point x="319" y="25"/>
      <point x="347" y="52" type="curve"/>
      <point x="359" y="0" type="line"/>
      <point x="533" y="0" type="line"/>
      <point x="609" y="479" type="line"/>
      <point x="560" y="515"/>
      <point x="470" y="545"/>
      <point x="367" y="545" type="curve" smooth="yes"/>
      <point x="192" y="545"/>
      <point x="103" y="462"/>
    </contour>
    <contour>
      <point x="380" y="650" type="move" name="top"/>
    </contour>
    <contour>
      <point x="254" y="-150" type="move" name="bottom"/>
    </contour>
    <contour>
      <point x="523" y="0" type="move" name="ogonek"/>
    </contour>
  </outline>
</glyph>
<glyph name="b" format="1">
  <advance width="589.0"/>
  <unicode hex="0062"/>
  <note>
    GF Latin Plus glyph
  </note>
  <outline>
    <contour>
      <point x="266" y="171" type="curve"/>
      <point x="298" y="375" type="line"/>
      <point x="316" y="385"/>
      <point x="347" y="390"/>
      <point x="369" y="390" type="curve" smooth="yes"/>
      <point x="394" y="390"/>
      <point x="414" y="375"/>
      <point x="414" y="320" type="curve" smooth="yes"/>
      <point x="414" y="308"/>
      <point x="412" y="292"/>
      <point x="410" y="273" type="curve" smooth="yes"/>
      <point x="397" y="175"/>
      <point x="371" y="149"/>
      <point x="335" y="149" type="curve" smooth="yes"/>
      <point x="299" y="149"/>
      <point x="282" y="155"/>
    </contour>
    <contour>
      <point x="44" y="0" type="line"/>
      <point x="218" y="0" type="line"/>
      <point x="247" y="49" type="line"/>
      <point x="282" y="15"/>
      <point x="337" y="-6"/>
      <point x="398" y="-6" type="curve" smooth="yes"/>
      <point x="498" y="-6"/>
      <point x="571" y="73"/>
      <point x="594" y="223" type="curve" smooth="yes"/>
      <point x="602" y="274"/>
      <point x="608" y="321"/>
      <point x="608" y="351" type="curve" smooth="yes"/>
      <point x="608" y="474"/>
      <point x="544" y="545"/>
      <point x="436" y="545" type="curve" smooth="yes"/>
      <point x="404" y="545"/>
      <point x="357" y="533"/>
      <point x="320" y="515" type="curve"/>
      <point x="359" y="763" type="line"/>
      <point x="165" y="763" type="line"/>
    </contour>
    <contour>
      <point x="276" y="-150" type="move" name="bottom"/>
    </contour>
    <contour>
      <point x="276" y="850" type="move" name="top"/>
    </contour>
  </outline>
</glyph>
<glyph name="c" format="2">
  <advance width="471"/>
  <unicode hex="0063"/>
  <note>
GF Latin Plus glyph
</note>
  <anchor x="360" y="650" name="top"/>
  <anchor x="234" y="-150" name="bottom"/>
  <outline>
    <contour>
      <point x="78" y="300" type="curve" smooth="yes"/>
      <point x="72" y="263"/>
      <point x="69" y="227"/>
      <point x="69" y="204" type="curve" smooth="yes"/>
      <point x="69" y="47"/>
      <point x="145" y="-6"/>
      <point x="270" y="-6" type="curve" smooth="yes"/>
      <point x="351.0" y="-6.0"/>
      <point x="403" y="9"/>
      <point x="450" y="30" type="curve"/>
      <point x="467" y="139" type="line"/>
      <point x="334" y="139" type="line" smooth="yes"/>
      <point x="286" y="139"/>
      <point x="262" y="167"/>
      <point x="262" y="223" type="curve" smooth="yes"/>
      <point x="262" y="229"/>
      <point x="263" y="244"/>
      <point x="267" y="270" type="curve" smooth="yes"/>
      <point x="280" y="346"/>
      <point x="301" y="398"/>
      <point x="376" y="398" type="curve" smooth="yes"/>
      <point x="501" y="398" type="line"/>
      <point x="519" y="509" type="line"/>
      <point x="456" y="529"/>
      <point x="392" y="545"/>
      <point x="329" y="545" type="curve" smooth="yes"/>
      <point x="203" y="545"/>
      <point x="105" y="481"/>
    </contour>
  </outline>
</glyph>
<glyph name="d" format="2">
  <advance width="580"/>
  <unicode hex="0064"/>
  <note>
GF Latin Plus glyph
</note>
  <anchor x="267" y="-150" name="bottom"/>
  <anchor x="658" y="650" name="altcaron"/>
  <anchor x="573" y="850" name="top"/>
  <outline>
    <contour>
      <point x="266" y="271" type="curve" smooth="yes"/>
      <point x="285.7883722820714" y="380.93540156706325"/>
      <point x="328.31182795698925" y="390.0"/>
      <point x="361" y="390" type="curve" smooth="yes"/>
      <point x="380" y="390"/>
      <point x="395" y="386"/>
      <point x="402" y="383" type="curve"/>
      <point x="369" y="178" type="line"/>
      <point x="354" y="163"/>
      <point x="335" y="149"/>
      <point x="305" y="149" type="curve" smooth="yes"/>
      <point x="281.0869565217391" y="149.0"/>
      <point x="261.0" y="163.49180327868854"/>
      <point x="261" y="217" type="curve" smooth="yes"/>
      <point x="261" y="236"/>
      <point x="263" y="252"/>
    </contour>
    <contour>
      <point x="80" y="303" type="curve" smooth="yes"/>
      <point x="72" y="262"/>
      <point x="68" y="221"/>
      <point x="68" y="186" type="curve" smooth="yes"/>
      <point x="68" y="67"/>
      <point x="114" y="-6"/>
      <point x="215" y="-6" type="curve" smooth="yes"/>
      <point x="265" y="-6"/>
      <point x="313" y="18"/>
      <point x="349" y="52" type="curve"/>
      <point x="361" y="0" type="line"/>
      <point x="535" y="0" type="line"/>
      <point x="656" y="763" type="line"/>
      <point x="462" y="763" type="line"/>
      <point x="427" y="541" type="line"/>
      <point x="405" y="544"/>
      <point x="378" y="545"/>
      <point x="351" y="545" type="curve" smooth="yes"/>
      <point x="166" y="545"/>
      <point x="110" y="454"/>
    </contour>
  </outline>
</glyph>
<glyph name="g" format="2">
  <advance width="582"/>
  <unicode hex="0067"/>
  <note>
GF Latin Plus glyph
</note>
  <anchor x="380" y="650" name="top"/>
  <anchor x="214" y="-350" name="bottom"/>
  <outline>
    <contour>
      <point x="269" y="291" type="curve" smooth="yes"/>
      <point x="282" y="365"/>
      <point x="321" y="390"/>
      <point x="355" y="390" type="curve" smooth="yes"/>
      <point x="370" y="390"/>
      <point x="386" y="388"/>
      <point x="400" y="383" type="curve"/>
      <point x="367" y="178" type="line"/>
      <point x="353" y="163"/>
      <point x="331" y="149"/>
      <point x="305" y="149" type="curve" smooth="yes"/>
      <point x="275" y="149"/>
      <point x="260" y="171"/>
      <point x="260" y="217" type="curve" smooth="yes"/>
      <point x="260" y="239"/>
      <point x="262" y="250"/>
    </contour>
    <contour>
      <point x="26" y="-221" type="line"/>
      <point x="151" y="-232" type="line" smooth="yes"/>
      <point x="395" y="-254"/>
      <point x="502" y="-201"/>
      <point x="525" y="-54" type="curve" smooth="yes"/>
      <point x="614" y="505" type="line"/>
      <point x="560" y="524"/>
      <point x="470" y="545"/>
      <point x="364" y="545" type="curve" smooth="yes"/>
      <point x="239" y="545"/>
      <point x="110" y="502"/>
      <point x="80" y="313" type="curve" smooth="yes"/>
      <point x="74" y="273"/>
      <point x="66" y="217"/>
      <point x="66" y="183" type="curve" smooth="yes"/>
      <point x="66" y="88"/>
      <point x="102" y="-6"/>
      <point x="203" y="-6" type="curve" smooth="yes"/>
      <point x="255" y="-6"/>
      <point x="322" y="24"/>
      <point x="348" y="52" type="curve"/>
      <point x="336" y="-24" type="line" smooth="yes"/>
      <point x="328" y="-77"/>
      <point x="288" y="-87"/>
      <point x="221" y="-87" type="curve" smooth="yes"/>
      <point x="47" y="-87" type="line"/>
    </contour>
  </outline>
</glyph>
<glyph name="h" format="1">
  <advance width="600.0"/>
  <unicode hex="0068"/>
  <note>
    GF Latin Plus glyph
  </note>
  <outline>
    <contour>
      <point x="44" y="0" type="line"/>
      <point x="238" y="0" type="line"/>
      <point x="291" y="334" type="line"/>
      <point x="312" y="356"/>
      <point x="340" y="371"/>
      <point x="374" y="371" type="curve" smooth="yes"/>
      <point x="396" y="371"/>
      <point x="415" y="363"/>
      <point x="415" y="333" type="curve" smooth="yes"/>
      <point x="415" y="328"/>
      <point x="415" y="323"/>
      <point x="414" y="318" type="curve" smooth="yes"/>
      <point x="364" y="0" type="line"/>
      <point x="558" y="0" type="line"/>
      <point x="612" y="340" type="line" smooth="yes"/>
      <point x="616" y="366"/>
      <point x="618" y="388"/>
      <point x="618" y="409" type="curve" smooth="yes"/>
      <point x="618" y="508"/>
      <point x="570" y="545"/>
      <point x="486" y="545" type="curve" smooth="yes"/>
      <point x="408" y="545"/>
      <point x="349" y="516"/>
      <point x="315" y="487" type="curve"/>
      <point x="359" y="763" type="line"/>
      <point x="165" y="763" type="line"/>
    </contour>
    <contour>
      <point x="362" y="850" type="move" name="top"/>
    </contour>
    <contour>
      <point x="266" y="-150" type="move" name="bottom"/>
    </contour>
  </outline>
</glyph>
<glyph name="i" format="1">
  <advance width="280.0"/>
  <unicode hex="0069"/>
  <note>
    GF Latin Plus glyph
  </note>
  <outline>
    <contour>
      <point x="142" y="630" type="line" smooth="yes"/>
      <point x="139" y="616"/>
      <point x="148" y="607"/>
      <point x="162" y="607" type="curve" smooth="yes"/>
      <point x="314" y="607" type="line" smooth="yes"/>
      <point x="328" y="607"/>
      <point x="337" y="615"/>
      <point x="340" y="630" type="curve" smooth="yes"/>
      <point x="357" y="741" type="line" smooth="yes"/>
      <point x="359" y="755"/>
      <point x="354" y="766"/>
      <point x="339" y="766" type="curve" smooth="yes"/>
      <point x="187" y="766" type="line" smooth="yes"/>
      <point x="171" y="766"/>
      <point x="162" y="756"/>
      <point x="159" y="741" type="curve" smooth="yes"/>
    </contour>
    <component base="idotless" xOffset="-1"/>
    <contour>
      <point x="126" y="-150" type="move" name="bottom"/>
    </contour>
    <contour>
      <point x="228" y="0" type="move" name="ogonek"/>
    </contour>
  </outline>
</glyph>
<glyph name="k" format="2">
  <advance width="587"/>
  <unicode hex="006B"/>
  <note>
GF Latin Plus glyph
</note>
  <anchor x="286" y="-150" name="bottom"/>
  <outline>
    <contour>
      <point x="44" y="0" type="line"/>
      <point x="238" y="0" type="line"/>
      <point x="273" y="222" type="line"/>
      <point x="283" y="222"/>
      <point x="301" y="225"/>
      <point x="313" y="228" type="curve"/>
      <point x="407" y="0" type="line"/>
      <point x="605" y="0" type="line"/>
      <point x="474" y="288" type="line"/>
      <point x="530" y="322"/>
      <point x="596" y="388"/>
      <point x="637" y="539" type="curve"/>
      <point x="443" y="539" type="line"/>
      <point x="421" y="445"/>
      <point x="372" y="387"/>
      <point x="296" y="366" type="curve"/>
      <point x="359" y="763" type="line"/>
      <point x="165" y="763" type="line"/>
    </contour>
  </outline>
</glyph>
<glyph name="l" format="1">
  <advance width="342.0"/>
  <unicode hex="006C"/>
  <note>
    GF Latin Plus glyph
  </note>
  <outline>
    <contour>
      <point x="74" y="189" type="line" smooth="yes"/>
      <point x="71" y="171"/>
      <point x="71" y="152"/>
      <point x="71" y="129" type="curve" smooth="yes"/>
      <point x="71" y="54"/>
      <point x="133" y="0"/>
      <point x="256" y="0" type="curve" smooth="yes"/>
      <point x="324" y="0" type="line"/>
      <point x="346" y="141" type="line"/>
      <point x="317" y="146" type="line" smooth="yes"/>
      <point x="287" y="151"/>
      <point x="271" y="157"/>
      <point x="271" y="189" type="curve" smooth="yes"/>
      <point x="271" y="204"/>
      <point x="277" y="245"/>
      <point x="279" y="258" type="curve" smooth="yes"/>
      <point x="359" y="763" type="line"/>
      <point x="165" y="763" type="line"/>
    </contour>
    <contour>
      <point x="272" y="850" type="move" name="top"/>
    </contour>
    <contour>
      <point x="156" y="-150" type="move" name="bottom"/>
    </contour>
    <contour>
      <point x="362" y="650" type="move" name="altcaron"/>
    </contour>
    <contour>
      <point x="324" y="350" type="move" name="dot"/>
    </contour>
  </outline>
</glyph>
<glyph name="m" format="2">
  <advance width="921"/>
  <unicode hex="006D"/>
  <note>
GF Latin Plus glyph
</note>
  <anchor x="572" y="650" name="top"/>
  <anchor x="446" y="-150" name="bottom"/>
  <outline>
    <contour>
      <point x="44" y="0" type="line"/>
      <point x="238" y="0" type="line"/>
      <point x="291" y="334" type="line"/>
      <point x="309" y="352"/>
      <point x="333" y="371"/>
      <point x="370" y="371" type="curve" smooth="yes"/>
      <point x="397" y="371"/>
      <point x="415" y="362"/>
      <point x="415" y="332" type="curve" smooth="yes"/>
      <point x="415" y="328"/>
      <point x="415" y="323"/>
      <point x="414" y="317" type="curve" smooth="yes"/>
      <point x="364" y="0" type="line"/>
      <point x="558" y="0" type="line"/>
      <point x="608" y="315" type="line" smooth="yes"/>
      <point x="609" y="322"/>
      <point x="610" y="328"/>
      <point x="611" y="334" type="curve"/>
      <point x="635" y="358"/>
      <point x="663" y="371"/>
      <point x="689" y="371" type="curve" smooth="yes"/>
      <point x="719" y="371"/>
      <point x="735" y="359"/>
      <point x="735" y="331" type="curve" smooth="yes"/>
      <point x="735" y="327"/>
      <point x="735" y="322"/>
      <point x="734" y="317" type="curve" smooth="yes"/>
      <point x="684" y="0" type="line"/>
      <point x="878" y="0" type="line"/>
      <point x="929" y="322" type="line" smooth="yes"/>
      <point x="934" y="352"/>
      <point x="937" y="383"/>
      <point x="937" y="417" type="curve" smooth="yes"/>
      <point x="937" y="491"/>
      <point x="903" y="545"/>
      <point x="794" y="545" type="curve" smooth="yes"/>
      <point x="742" y="545"/>
      <point x="671" y="525"/>
      <point x="614" y="467" type="curve"/>
      <point x="585" y="525"/>
      <point x="543" y="545"/>
      <point x="487" y="545" type="curve" smooth="yes"/>
      <point x="406" y="545"/>
      <point x="357" y="520"/>
      <point x="315" y="487" type="curve"/>
      <point x="291" y="539" type="line"/>
      <point x="129" y="539" type="line"/>
    </contour>
  </outline>
</glyph>
<glyph name="o" format="1">
  <advance width="579.0"/>
  <unicode hex="006F"/>
  <note>
    GF Latin Plus glyph
  </note>
  <outline>
    <contour>
      <point x="266" y="262" type="curve" smooth="yes"/>
      <point x="280.99667956197584" y="369.9760928462262"/>
      <point x="294.3373493975904" y="394.0"/>
      <point x="350" y="394" type="curve" smooth="yes"/>
      <point x="386.5925925925926" y="394.0"/>
      <point x="402.0" y="385.39506172839504"/>
      <point x="402" y="353" type="curve" smooth="yes"/>
      <point x="402.0" y="328.01960784313724"/>
      <point x="398.0994415538065" y="299.73586749816826"/>
      <point x="393" y="262" type="curve" smooth="yes"/>
      <point x="378" y="170"/>
      <point x="365" y="149"/>
      <point x="309" y="149" type="curve" smooth="yes"/>
      <point x="273" y="149"/>
      <point x="260.0" y="160.25"/>
      <point x="260" y="194" type="curve" smooth="yes"/>
      <point x="260.0" y="213.68421052631578"/>
      <point x="261.9811451095029" y="234.87272948914455"/>
    </contour>
    <contour>
      <point x="76" y="289" type="curve" smooth="yes"/>
      <point x="71.0691524359015" y="258.1822027243844"/>
      <point x="68.0" y="225.85714285714286"/>
      <point x="68" y="185" type="curve" smooth="yes"/>
      <point x="68.0" y="63.70142180094787"/>
      <point x="138" y="-6"/>
      <point x="289" y="-6" type="curve" smooth="yes"/>
      <point x="466" y="-6"/>
      <point x="555" y="38"/>
      <point x="586" y="235" type="curve" smooth="yes"/>
      <point x="592.0992259149111" y="274.0350458554314"/>
      <point x="595.0" y="312.1573033707865"/>
      <point x="595" y="344" type="curve" smooth="yes"/>
      <point x="595.0" y="481.3348416289593"/>
      <point x="559.0" y="545.0"/>
      <point x="375" y="545" type="curve" smooth="yes"/>
      <point x="195" y="545"/>
      <point x="110" y="506"/>
    </contour>
    <contour>
      <point x="379" y="650" type="move" name="top"/>
    </contour>
    <contour>
      <point x="253" y="-150" type="move" name="bottom"/>
    </contour>
    <contour>
      <point x="373" y="0" type="move" name="ogonek"/>
    </contour>
  </outline>
</glyph>
<glyph name="p" format="2">
  <advance width="576"/>
  <unicode hex="0070"/>
  <note>
GF Latin Plus glyph
</note>
  <anchor x="389" y="650" name="top"/>
  <outline>
    <contour>
      <point x="263" y="165" type="curve"/>
      <point x="299" y="390" type="line"/>
      <point x="356" y="390" type="line" smooth="yes"/>
      <point x="390" y="390"/>
      <point x="403" y="367"/>
      <point x="403" y="313" type="curve" smooth="yes"/>
      <point x="403" y="301"/>
      <point x="401" y="288"/>
      <point x="399" y="274" type="curve" smooth="yes"/>
      <point x="384" y="186"/>
      <point x="354" y="158"/>
      <point x="309" y="158" type="curve" smooth="yes"/>
      <point x="289" y="158"/>
      <point x="271" y="161"/>
    </contour>
    <contour>
      <point x="6" y="-237" type="line"/>
      <point x="200" y="-237" type="line"/>
      <point x="239" y="9" type="line"/>
      <point x="256" y="-1"/>
      <point x="295" y="-6"/>
      <point x="333" y="-6" type="curve" smooth="yes"/>
      <point x="451" y="-6"/>
      <point x="556" y="64"/>
      <point x="584" y="238" type="curve" smooth="yes"/>
      <point x="590" y="278"/>
      <point x="594" y="315"/>
      <point x="594" y="348" type="curve" smooth="yes"/>
      <point x="594" y="477"/>
      <point x="549" y="545"/>
      <point x="412" y="545" type="curve" smooth="yes"/>
      <point x="314" y="545"/>
      <point x="230" y="531"/>
      <point x="125" y="511" type="curve"/>
    </contour>
  </outline>
</glyph>
<glyph name="q" format="2">
  <advance width="573"/>
  <unicode hex="0071"/>
  <note>
GF Latin Plus glyph
</note>
  <outline>
    <contour>
      <point x="265" y="277" type="curve" smooth="yes"/>
      <point x="278" y="349"/>
      <point x="297" y="390"/>
      <point x="355" y="390" type="curve" smooth="yes"/>
      <point x="368" y="390"/>
      <point x="382" y="388"/>
      <point x="399" y="383" type="curve"/>
      <point x="366" y="178" type="line"/>
      <point x="352" y="163"/>
      <point x="329" y="149"/>
      <point x="302" y="149" type="curve" smooth="yes"/>
      <point x="274" y="149"/>
      <point x="258" y="171"/>
      <point x="258" y="218" type="curve" smooth="yes"/>
      <point x="258" y="230"/>
      <point x="260" y="250"/>
    </contour>
    <contour>
      <point x="76" y="290" type="curve" smooth="yes"/>
      <point x="70" y="250"/>
      <point x="66" y="213"/>
      <point x="66" y="179" type="curve" smooth="yes"/>
      <point x="66" y="59"/>
      <point x="106" y="-6"/>
      <point x="205" y="-6" type="curve" smooth="yes"/>
      <point x="262" y="-6"/>
      <point x="319" y="23"/>
      <point x="346" y="52" type="curve"/>
      <point x="300" y="-237" type="line"/>
      <point x="494" y="-237" type="line"/>
      <point x="612" y="505" type="line"/>
      <point x="561" y="527"/>
      <point x="459" y="545"/>
      <point x="352" y="545" type="curve" smooth="yes"/>
      <point x="227" y="545"/>
      <point x="109" y="496"/>
    </contour>
  </outline>
</glyph>
<glyph name="r" format="2">
  <advance width="435"/>
  <unicode hex="0072"/>
  <note>
GF Latin Plus glyph
</note>
  <anchor x="323" y="652" name="top"/>
  <anchor x="117" y="-150" name="bottom"/>
  <outline>
    <contour>
      <point x="45" y="0" type="line"/>
      <point x="239" y="0" type="line"/>
      <point x="288" y="310" type="line"/>
      <point x="311" y="329"/>
      <point x="352" y="346"/>
      <point x="408" y="346" type="curve" smooth="yes"/>
      <point x="427" y="346.0"/>
      <point x="447" y="346.0"/>
      <point x="466" y="346" type="curve"/>
      <point x="495" y="540" type="line"/>
      <point x="480" y="544"/>
      <point x="467" y="545"/>
      <point x="449" y="545" type="curve" smooth="yes"/>
      <point x="390.7142857142857" y="545.0"/>
      <point x="348" y="510"/>
      <point x="313" y="467" type="curve"/>
      <point x="304" y="539" type="line"/>
      <point x="130" y="539" type="line"/>
    </contour>
  </outline>
</glyph>
<glyph name="s" format="2">
  <advance width="516"/>
  <unicode hex="0073"/>
  <note>
GF Latin Plus glyph
</note>
  <anchor x="376" y="650" name="top"/>
  <anchor x="250" y="-150" name="bottom"/>
  <outline>
    <contour>
      <point x="46" y="25" type="line"/>
      <point x="103" y="5"/>
      <point x="158" y="-6"/>
      <point x="262" y="-6" type="curve" smooth="yes"/>
      <point x="401" y="-6"/>
      <point x="492" y="32"/>
      <point x="508" y="138" type="curve" smooth="yes"/>
      <point x="515" y="185" type="line" smooth="yes"/>
      <point x="517.656685271496" y="202.83774396575893"/>
      <point x="518.0" y="219.94444444444446"/>
      <point x="518" y="236" type="curve" smooth="yes"/>
      <point x="518.0" y="302.8224299065421"/>
      <point x="459.0992907801418" y="346"/>
      <point x="367" y="346" type="curve" smooth="yes"/>
      <point x="286" y="346" type="line" smooth="yes"/>
      <point x="265" y="346"/>
      <point x="261" y="353"/>
      <point x="261" y="363" type="curve" smooth="yes"/>
      <point x="261" y="367"/>
      <point x="262" y="372"/>
      <point x="263" y="377" type="curve" smooth="yes"/>
      <point x="264" y="381" type="line" smooth="yes"/>
      <point x="268" y="396"/>
      <point x="276" y="400"/>
      <point x="296" y="400" type="curve" smooth="yes"/>
      <point x="523" y="400" type="line"/>
      <point x="541" y="513" type="line"/>
      <point x="488" y="532"/>
      <point x="403" y="545"/>
      <point x="333" y="545" type="curve" smooth="yes"/>
      <point x="165" y="545"/>
      <point x="108" y="481"/>
      <point x="93" y="395" type="curve" smooth="yes"/>
      <point x="87" y="360" type="line" smooth="yes"/>
      <point x="84.00523635112862" y="342.53054538158364"/>
      <point x="84.0" y="326.6938775510204"/>
      <point x="84" y="312" type="curve" smooth="yes"/>
      <point x="84.0" y="228.30252100840335"/>
      <point x="158" y="192"/>
      <point x="246" y="192" type="curve" smooth="yes"/>
      <point x="314" y="192" type="line" smooth="yes"/>
      <point x="329" y="192"/>
      <point x="339" y="187"/>
      <point x="339" y="177" type="curve" smooth="yes"/>
      <point x="339" y="176"/>
      <point x="339" y="174"/>
      <point x="338" y="168" type="curve" smooth="yes"/>
      <point x="336" y="156" type="line" smooth="yes"/>
      <point x="334" y="146"/>
      <point x="323" y="138"/>
      <point x="306" y="138" type="curve" smooth="yes"/>
      <point x="64" y="138" type="line"/>
    </contour>
  </outline>
</glyph>
<glyph name="t" format="2">
  <advance width="424"/>
  <unicode hex="0074"/>
  <note>
GF Latin Plus glyph
</note>
  <anchor x="389" y="650" name="altcaron"/>
  <anchor x="230" y="-150" name="bottom"/>
  <anchor x="318" y="750" name="top"/>
  <outline>
    <contour>
      <point x="67" y="385" type="line"/>
      <point x="150" y="385" type="line"/>
      <point x="119" y="225" type="line" smooth="yes"/>
      <point x="111" y="182"/>
      <point x="109" y="149"/>
      <point x="109" y="127" type="curve" smooth="yes"/>
      <point x="109" y="39"/>
      <point x="170" y="0"/>
      <point x="289" y="0" type="curve" smooth="yes"/>
      <point x="380" y="0" type="line"/>
      <point x="403" y="144" type="line"/>
      <point x="344" y="150" type="line" smooth="yes"/>
      <point x="317" y="153"/>
      <point x="305" y="159"/>
      <point x="305" y="183" type="curve" smooth="yes"/>
      <point x="305" y="195"/>
      <point x="309" y="216"/>
      <point x="310" y="224" type="curve" smooth="yes"/>
      <point x="336" y="385" type="line"/>
      <point x="445" y="385" type="line"/>
      <point x="469" y="539" type="line"/>
      <point x="360" y="539" type="line"/>
      <point x="384" y="690" type="line"/>
      <point x="230" y="690" type="line"/>
      <point x="182" y="539" type="line"/>
      <point x="87" y="509" type="line"/>
    </contour>
  </outline>
</glyph>
<glyph name="v" format="2">
  <advance width="557"/>
  <unicode hex="0076"/>
  <note>
GF Latin Plus glyph
</note>
  <outline>
    <contour>
      <point x="75" y="539" type="line"/>
      <point x="156" y="0" type="line"/>
      <point x="380" y="0" type="line"/>
      <point x="524" y="297" type="line" smooth="yes"/>
      <point x="559" y="370"/>
      <point x="600" y="456"/>
      <point x="603" y="547" type="curve"/>
      <point x="422" y="547" type="line"/>
      <point x="416" y="480"/>
      <point x="401" y="434"/>
      <point x="379" y="378" type="curve" smooth="yes"/>
      <point x="300" y="179" type="line"/>
      <point x="275" y="539" type="line"/>
    </contour>
  </outline>
</glyph>
<glyph name="x" format="2">
  <advance width="575"/>
  <unicode hex="0078"/>
  <note>
GF Latin Plus glyph
</note>
  <anchor x="374" y="650" name="top"/>
  <anchor x="248" y="-150" name="bottom"/>
  <outline>
    <contour>
      <point x="-6" y="0" type="line"/>
      <point x="192" y="0" type="line"/>
      <point x="312" y="146" type="line"/>
      <point x="259" y="321" type="line"/>
    </contour>
    <contour>
      <point x="323" y="359" type="line"/>
      <point x="393" y="202" type="line"/>
      <point x="655" y="539" type="line"/>
      <point x="447" y="539" type="line"/>
    </contour>
    <contour>
      <point x="261" y="208" type="line"/>
      <point x="382" y="0" type="line"/>
      <point x="581" y="0" type="line"/>
      <point x="405" y="303" type="line"/>
      <point x="266" y="539" type="line"/>
      <point x="68" y="539" type="line"/>
    </contour>
  </outline>
</glyph>
<glyph name="y" format="1">
  <advance width="587.0"/>
  <unicode hex="0079"/>
  <note>
    GF Latin Plus glyph
  </note>
  <outline>
    <contour>
      <point x="86" y="539" type="line"/>
      <point x="118" y="156" type="line" smooth="yes"/>
      <point x="126" y="66"/>
      <point x="156" y="10"/>
      <point x="273" y="0" type="curve"/>
      <point x="244" y="-58"/>
      <point x="188" y="-83"/>
      <point x="96" y="-101" type="curve"/>
      <point x="96" y="-237" type="line"/>
      <point x="254" y="-227"/>
      <point x="361" y="-168"/>
      <point x="445" y="10" type="curve" smooth="yes"/>
      <point x="561" y="257" type="line" smooth="yes"/>
      <point x="612" y="365"/>
      <point x="635" y="459"/>
      <point x="635" y="547" type="curve"/>
      <point x="451" y="547" type="line"/>
      <point x="449" y="494"/>
      <point x="434" y="440"/>
      <point x="417" y="394" type="curve" smooth="yes"/>
      <point x="331" y="156" type="line"/>
      <point x="313" y="157"/>
      <point x="289" y="166"/>
      <point x="289" y="197" type="curve" smooth="yes"/>
      <point x="286" y="539" type="line"/>
    </contour>
    <contour>
      <point x="383" y="650" type="move" name="top"/>
    </contour>
    <contour>
      <point x="517" y="-150" type="move" name="bottom"/>
    </contour>
  </outline>
</glyph>
<glyph name="z" format="2">
  <advance width="502"/>
  <unicode hex="007A"/>
  <note>
GF Latin Plus glyph
</note>
  <anchor x="324" y="650" name="top"/>
  <anchor x="198" y="-150" name="bottom"/>
  <outline>
    <contour>
      <point x="31" y="0" type="line"/>
      <point x="472" y="0" type="line"/>
      <point x="472" y="0"/>
      <point x="497" y="153"/>
      <point x="496" y="154" type="curve"/>
      <point x="279" y="154" type="line"/>
      <point x="536" y="401" type="line"/>
      <point x="557" y="539" type="line"/>
      <point x="105" y="539" type="line"/>
      <point x="81" y="385" type="line"/>
      <point x="309" y="385" type="line"/>
      <point x="53" y="138" type="line"/>
    </contour>
  </outline>
</glyph>
<glyph name="braceright" format="2">
  <advance width="322"/>
  <unicode hex="007D"/>
  <note>
GF Latin Plus glyph
</note>
  <outline>
    <contour>
      <point x="0" y="-66" type="curve"/>
      <point x="-23" y="-210" type="line"/>
      <point x="153" y="-210"/>
      <point x="223" y="-182"/>
      <point x="246" y="-38" type="curve" smooth="yes"/>
      <point x="279" y="172" type="line" smooth="yes"/>
      <point x="285" y="210"/>
      <point x="309" y="225"/>
      <point x="346" y="225" type="curve"/>
      <point x="374" y="402" type="line"/>
      <point x="345" y="405"/>
      <point x="321" y="415"/>
      <point x="321" y="445" type="curve" smooth="yes"/>
      <point x="321" y="465"/>
      <point x="357" y="680"/>
      <point x="357" y="694" type="curve" smooth="yes"/>
      <point x="357" y="790"/>
      <point x="289" y="842"/>
      <point x="143" y="842" type="curve"/>
      <point x="119" y="688" type="line"/>
      <point x="146" y="688"/>
      <point x="156" y="680"/>
      <point x="156" y="650" type="curve" smooth="yes"/>
      <point x="156.0" y="630.0"/>
      <point x="121" y="427"/>
      <point x="121" y="394" type="curve" smooth="yes"/>
      <point x="121" y="339"/>
      <point x="155" y="318"/>
      <point x="211" y="314" type="curve"/>
      <point x="144" y="301"/>
      <point x="100" y="268"/>
      <point x="91" y="211" type="curve" smooth="yes"/>
      <point x="56" y="-4" type="line" smooth="yes"/>
      <point x="51" y="-33"/>
      <point x="46" y="-66"/>
    </contour>
  </outline>
</glyph>
<glyph name="asciitilde" format="2">
  <advance width="404"/>
  <unicode hex="007E"/>
  <note>
GF Latin Plus glyph
</note>
  <outline>
    <contour>
      <point x="123" y="598" type="line"/>
      <point x="153" y="634"/>
      <point x="201" y="672"/>
      <point x="257" y="672" type="curve" smooth="yes"/>
      <point x="296" y="672"/>
      <point x="333" y="637"/>
      <point x="364" y="637" type="curve" smooth="yes"/>
      <point x="401" y="637"/>
      <point x="433" y="655"/>
      <point x="457" y="677" type="curve"/>
      <point x="472" y="603" type="line"/>
      <point x="444" y="570"/>
      <point x="399" y="531"/>
      <point x="348" y="531" type="curve" smooth="yes"/>
      <point x="305" y="531"/>
      <point x="277" y="566"/>
      <point x="238" y="566" type="curve" smooth="yes"/>
      <point x="199" y="566"/>
      <point x="174" y="555"/>
      <point x="139" y="531" type="curve"/>
    </contour>
  </outline>
</glyph>
<glyph name="cent" format="1">
  <advance width="485"/>
  <unicode hex="00A2"/>
  <note>
    GF Latin Plus glyph
  </note>
  <outline>
    <contour>
      <point x="166" y="530"/>
      <point x="56" y="418"/>
      <point x="56" y="199" type="curve" smooth="yes"/>
      <point x="56" y="42"/>
      <point x="122" y="7"/>
      <point x="211" y="-5" type="curve"/>
      <point x="197" y="-95" type="line"/>
      <point x="305" y="-95" type="line"/>
      <point x="319" y="-6" type="line"/>
      <point x="370" y="-2"/>
      <point x="421" y="6"/>
      <point x="467" y="33" type="curve"/>
      <point x="485" y="147" type="line"/>
      <point x="485" y="147"/>
      <point x="420" y="139"/>
      <point x="328" y="139" type="curve" smooth="yes"/>
      <point x="273" y="139"/>
      <point x="252" y="152"/>
      <point x="252" y="204" type="curve" smooth="yes"/>
      <point x="252" y="313"/>
      <point x="285" y="392"/>
      <point x="368" y="392" type="curve" smooth="yes"/>
      <point x="457" y="392"/>
      <point x="517" y="386"/>
      <point x="517" y="386" type="curve"/>
      <point x="535" y="500" type="line"/>
      <point x="492" y="519"/>
      <point x="449" y="530"/>
      <point x="409" y="534" type="curve"/>
      <point x="424" y="634" type="line"/>
      <point x="316" y="634" type="line"/>
      <point x="301" y="536" type="line"/>
    </contour>
  </outline>
</glyph>
<glyph name="sterling" format="1">
  <advance width="609"/>
  <unicode hex="00A3"/>
  <note>
    GF Latin Plus glyph
  </note>
  <outline>
    <contour>
      <point x="54" y="0" type="line"/>
      <point x="569" y="0" type="line"/>
      <point x="597" y="174" type="line"/>
      <point x="358" y="174" type="line"/>
      <point x="378" y="304" type="line"/>
      <point x="541" y="317" type="line"/>
      <point x="558" y="422" type="line"/>
      <point x="400" y="439" type="line"/>
      <point x="410" y="504" type="line" smooth="yes"/>
      <point x="419" y="559"/>
      <point x="441" y="576"/>
      <point x="496" y="576" type="curve" smooth="yes"/>
      <point x="661" y="576" type="line"/>
      <point x="686" y="733" type="line"/>
      <point x="649" y="740"/>
      <point x="590" y="749"/>
      <point x="516" y="749" type="curve" smooth="yes"/>
      <point x="329" y="749"/>
      <point x="242" y="669"/>
      <point x="212" y="482" type="curve" smooth="yes"/>
      <point x="206" y="439" type="line"/>
      <point x="119" y="412" type="line"/>
      <point x="104" y="317" type="line"/>
      <point x="184" y="304" type="line"/>
      <point x="164" y="174" type="line"/>
      <point x="78" y="149" type="line"/>
    </contour>
  </outline>
</glyph>
<glyph name="currency" format="2">
  <advance width="609"/>
  <unicode hex="00A4"/>
  <note>
GF Latin Plus glyph
</note>
  <outline>
    <contour>
      <point x="384" y="541" type="curve" smooth="yes"/>
      <point x="265" y="541"/>
      <point x="175" y="440"/>
      <point x="175" y="333" type="curve" smooth="yes"/>
      <point x="175" y="245"/>
      <point x="246" y="171"/>
      <point x="338" y="171" type="curve" smooth="yes"/>
      <point x="457" y="171"/>
      <point x="548" y="272"/>
      <point x="548" y="379" type="curve" smooth="yes"/>
      <point x="548" y="466"/>
      <point x="476" y="541"/>
    </contour>
    <contour>
      <point x="318" y="499" type="line"/>
      <point x="230" y="603" type="line"/>
      <point x="141" y="526" type="line"/>
      <point x="228" y="422" type="line"/>
    </contour>
    <contour>
      <point x="512" y="420" type="line"/>
      <point x="635" y="526" type="line"/>
      <point x="570" y="603" type="line"/>
      <point x="447" y="497" type="line"/>
    </contour>
    <contour>
      <point x="581" y="186" type="line"/>
      <point x="492" y="292" type="line"/>
      <point x="403" y="215" type="line"/>
      <point x="492" y="109" type="line"/>
    </contour>
    <contour>
      <point x="152" y="109" type="line"/>
      <point x="283" y="217" type="line"/>
      <point x="212" y="294" type="line"/>
      <point x="87" y="186" type="line"/>
    </contour>
    <contour>
      <point x="375" y="447" type="curve" smooth="yes"/>
      <point x="420" y="447"/>
      <point x="453" y="413"/>
      <point x="453" y="370" type="curve" smooth="yes"/>
      <point x="453" y="303"/>
      <point x="405.8235294117647" y="265.0"/>
      <point x="347" y="265" type="curve" smooth="yes"/>
      <point x="303" y="265"/>
      <point x="271" y="299"/>
      <point x="271" y="342" type="curve" smooth="yes"/>
      <point x="271" y="409"/>
      <point x="317.3529411764706" y="447.0"/>
    </contour>
  </outline>
</glyph>
<glyph name="yen" format="2">
  <advance width="609"/>
  <unicode hex="00A5"/>
  <note>
GF Latin Plus glyph
</note>
  <outline>
    <contour>
      <point x="92" y="114" type="line"/>
      <point x="546" y="114" type="line"/>
      <point x="561" y="208" type="line"/>
      <point x="107" y="208" type="line"/>
    </contour>
    <contour>
      <point x="115" y="261" type="line"/>
      <point x="569" y="261" type="line"/>
      <point x="584" y="355" type="line"/>
      <point x="130" y="355" type="line"/>
    </contour>
    <component base="Y" xOffset="-23"/>
  </outline>
</glyph>
<glyph name="copyright" format="2">
  <advance width="792"/>
  <unicode hex="00A9"/>
  <note>
GF Latin Plus glyph
</note>
  <outline>
    <contour>
      <point x="343" y="583"/>
      <point x="259" y="432"/>
      <point x="259" y="295" type="curve" smooth="yes"/>
      <point x="259" y="177"/>
      <point x="322" y="147"/>
      <point x="393" y="147" type="curve" smooth="yes"/>
      <point x="456" y="147"/>
      <point x="518" y="148"/>
      <point x="573" y="175" type="curve"/>
      <point x="587" y="267" type="line"/>
      <point x="549" y="260"/>
      <point x="502" y="251"/>
      <point x="448" y="251" type="curve" smooth="yes"/>
      <point x="399" y="251"/>
      <point x="375" y="269"/>
      <point x="375" y="321" type="curve" smooth="yes"/>
      <point x="375" y="400"/>
      <point x="406" y="479"/>
      <point x="487" y="479" type="curve" smooth="yes"/>
      <point x="516" y="479"/>
      <point x="559" y="475"/>
      <point x="613" y="467" type="curve"/>
      <point x="628" y="559" type="line"/>
      <point x="578" y="579"/>
      <point x="500" y="583"/>
      <point x="463" y="583" type="curve" smooth="yes"/>
    </contour>
    <contour>
      <point x="185" y="463"/>
      <point x="263" y="628"/>
      <point x="407" y="628" type="curve" smooth="yes"/>
      <point x="607" y="628" type="line" smooth="yes"/>
      <point x="695" y="628"/>
      <point x="728" y="565"/>
      <point x="728" y="488" type="curve" smooth="yes"/>
      <point x="728" y="253"/>
      <point x="622" y="104"/>
      <point x="514" y="104" type="curve" smooth="yes"/>
      <point x="324" y="104" type="line" smooth="yes"/>
      <point x="234" y="104"/>
      <point x="185" y="170"/>
      <point x="185" y="276" type="curve" smooth="yes"/>
    </contour>
    <contour>
      <point x="149" y="732"/>
      <point x="80" y="462"/>
      <point x="80" y="258" type="curve" smooth="yes"/>
      <point x="80" y="100"/>
      <point x="179" y="0"/>
      <point x="338" y="0" type="curve" smooth="yes"/>
      <point x="508" y="0" type="line" smooth="yes"/>
      <point x="698" y="0"/>
      <point x="833" y="245"/>
      <point x="833" y="504" type="curve" smooth="yes"/>
      <point x="833" y="643"/>
      <point x="751" y="732"/>
      <point x="594" y="732" type="curve" smooth="yes"/>
      <point x="424" y="732" type="line" smooth="yes"/>
    </contour>
  </outline>
</glyph>
<glyph name="ordfeminine" format="2">
  <advance width="412"/>
  <unicode hex="00AA"/>
  <note>
GF Latin Plus glyph
</note>
  <outline>
    <contour>
      <point x="60" y="248" type="line"/>
      <point x="432" y="248" type="line"/>
      <point x="446" y="336" type="line"/>
      <point x="74" y="336" type="line"/>
    </contour>
    <component base="a.superior" yOffset="80"/>
  </outline>
</glyph>
<glyph name="logicalnot" format="2">
  <advance width="609"/>
  <unicode hex="00AC"/>
  <note>
GF Latin Plus glyph
</note>
  <outline>
    <contour>
      <point x="553" y="159" type="line"/>
      <point x="602" y="467" type="line"/>
      <point x="448" y="467" type="line"/>
      <point x="399" y="159" type="line"/>
    </contour>
    <component base="minus" xOffset="19" yOffset="120"/>
  </outline>
</glyph>
<glyph name="uni00AD" format="1">
  <advance width="353"/>
  <unicode hex="00AD"/>
  <outline>
    <contour>
      <point x="53" y="213" type="line"/>
      <point x="77" y="367" type="line"/>
      <point x="391" y="367" type="line"/>
      <point x="367" y="213" type="line"/>
    </contour>
  </outline>
</glyph>
<glyph name="macron" format="2">
  <advance width="348"/>
  <unicode hex="00AF"/>
  <note>
GF Latin Plus glyph
</note>
  <outline>
    <contour>
      <point x="128" y="631" type="line"/>
      <point x="420" y="631" type="line"/>
      <point x="438" y="745" type="line"/>
      <point x="146" y="745" type="line"/>
    </contour>
  </outline>
</glyph>
<glyph name="degree" format="2">
  <advance width="311"/>
  <unicode hex="00B0"/>
  <note>
GF Latin Plus glyph
</note>
  <outline>
    <contour>
      <point x="188" y="656"/>
      <point x="219" y="688"/>
      <point x="265" y="688" type="curve" smooth="yes"/>
      <point x="299" y="688"/>
      <point x="320" y="668"/>
      <point x="320" y="636" type="curve" smooth="yes"/>
      <point x="320" y="587"/>
      <point x="289" y="557"/>
      <point x="244" y="557" type="curve" smooth="yes"/>
      <point x="210" y="557"/>
      <point x="188" y="577"/>
      <point x="188" y="609" type="curve" smooth="yes"/>
    </contour>
    <contour>
      <point x="156.0" y="775.0"/>
      <point x="100.0" y="689.0276243093923"/>
      <point x="100" y="604" type="curve" smooth="yes"/>
      <point x="100.0" y="522.9516129032259"/>
      <point x="153.0" y="470.0"/>
      <point x="230" y="470" type="curve" smooth="yes"/>
      <point x="356.0" y="470.0"/>
      <point x="408.0" y="554.1098901098901"/>
      <point x="408" y="642" type="curve" smooth="yes"/>
      <point x="408.0" y="722.0162601626016"/>
      <point x="359.0" y="775.0"/>
      <point x="279" y="775" type="curve" smooth="yes"/>
    </contour>
  </outline>
</glyph>
<glyph name="twosuperior" format="1">
  <advance width="414"/>
  <unicode hex="00B2"/>
  <note>
    GF Latin Plus glyph
  </note>
  <outline>
    <contour>
      <point x="155.0" y="703" type="line"/>
      <point x="291.0" y="703" type="line" smooth="yes"/>
      <point x="308.0" y="703"/>
      <point x="317" y="700"/>
      <point x="317" y="686" type="curve" smooth="yes"/>
      <point x="317" y="677"/>
      <point x="298.0" y="651"/>
      <point x="271.0" y="623" type="curve" smooth="yes"/>
      <point x="114.0" y="474" type="line"/>
      <point x="95.0" y="355" type="line"/>
      <point x="434.0" y="355" type="line"/>
      <point x="456.0" y="490" type="line"/>
      <point x="319.0" y="490" type="line"/>
      <point x="377.0" y="547" type="line" smooth="yes"/>
      <point x="455.0" y="622"/>
      <point x="481.0" y="676"/>
      <point x="481.0" y="745" type="curve" smooth="yes"/>
      <point x="481.0" y="812"/>
      <point x="444.0" y="846"/>
      <point x="344.0" y="846" type="curve" smooth="yes"/>
      <point x="271.0" y="846"/>
      <point x="218.0" y="833"/>
      <point x="174.0" y="823" type="curve"/>
    </contour>
  </outline>
</glyph>
<glyph name="threesuperior" format="2">
  <advance width="414"/>
  <unicode hex="00B3"/>
  <note>
GF Latin Plus glyph
</note>
  <outline>
    <contour>
      <point x="152.0" y="703" type="line"/>
      <point x="287.0" y="703" type="line" smooth="yes"/>
      <point x="324.7708333333333" y="703"/>
      <point x="336" y="700"/>
      <point x="336" y="690" type="curve" smooth="yes"/>
      <point x="336" y="689"/>
      <point x="336" y="688"/>
      <point x="336" y="687" type="curve" smooth="yes"/>
      <point x="335" y="681" type="line" smooth="yes"/>
      <point x="333" y="672"/>
      <point x="320.2987515824103" y="668.2035455696298"/>
      <point x="290.0" y="666" type="curve" smooth="yes"/>
      <point x="180.0" y="658" type="line"/>
      <point x="161.0" y="540" type="line"/>
      <point x="277.0" y="535" type="line" smooth="yes"/>
      <point x="303.0" y="534"/>
      <point x="313.0" y="528"/>
      <point x="313.0" y="516" type="curve" smooth="yes"/>
      <point x="313.0" y="515"/>
      <point x="313" y="513"/>
      <point x="313" y="511" type="curve" smooth="yes"/>
      <point x="312" y="505" type="line" smooth="yes"/>
      <point x="311" y="498"/>
      <point x="306.0" y="494"/>
      <point x="256.0" y="494" type="curve" smooth="yes"/>
      <point x="116.0" y="494" type="line"/>
      <point x="96.0" y="372" type="line"/>
      <point x="155.0" y="359"/>
      <point x="223.0" y="351"/>
      <point x="295.0" y="351" type="curve" smooth="yes"/>
      <point x="385.0" y="351"/>
      <point x="447" y="392"/>
      <point x="460" y="472" type="curve" smooth="yes"/>
      <point x="463.0" y="490" type="line" smooth="yes"/>
      <point x="465" y="501"/>
      <point x="466.0" y="511"/>
      <point x="466.0" y="521" type="curve" smooth="yes"/>
      <point x="466.0" y="556"/>
      <point x="458.0" y="587"/>
      <point x="423.0" y="599" type="curve"/>
      <point x="472.0" y="616"/>
      <point x="483.0" y="650"/>
      <point x="489.0" y="689" type="curve" smooth="yes"/>
      <point x="494.0" y="719" type="line" smooth="yes"/>
      <point x="495.0" y="729"/>
      <point x="496.0" y="739"/>
      <point x="496.0" y="747" type="curve" smooth="yes"/>
      <point x="495.0" y="816"/>
      <point x="448.0" y="846"/>
      <point x="373.0" y="846" type="curve" smooth="yes"/>
      <point x="309.0" y="846"/>
      <point x="243.0" y="837"/>
      <point x="171.0" y="824" type="curve"/>
    </contour>
  </outline>
</glyph>
<glyph name="paragraph" format="2">
  <advance width="574"/>
  <unicode hex="00B6"/>
  <note>
GF Latin Plus glyph
</note>
  <outline>
    <contour>
      <point x="222" y="482" type="curve" smooth="yes"/>
      <point x="236" y="569" type="line" smooth="yes"/>
      <point x="242" y="609"/>
      <point x="250" y="619"/>
      <point x="286" y="619" type="curve" smooth="yes"/>
      <point x="330" y="619" type="line"/>
      <point x="299" y="426" type="line"/>
      <point x="255" y="426" type="line" smooth="yes"/>
      <point x="232" y="426"/>
      <point x="218" y="430"/>
      <point x="218" y="450" type="curve" smooth="yes"/>
      <point x="218" y="455"/>
      <point x="219" y="465"/>
    </contour>
    <contour>
      <point x="96" y="465" type="line" smooth="yes"/>
      <point x="91" y="435"/>
      <point x="90" y="425"/>
      <point x="90" y="415" type="curve" smooth="yes"/>
      <point x="90" y="351"/>
      <point x="125" y="302"/>
      <point x="212" y="302" type="curve" smooth="yes"/>
      <point x="247" y="302"/>
      <point x="271" y="312"/>
      <point x="283" y="319" type="curve"/>
      <point x="189" y="-270" type="line"/>
      <point x="313" y="-270" type="line"/>
      <point x="454" y="619" type="line"/>
      <point x="508" y="619" type="line"/>
      <point x="410" y="0" type="line"/>
      <point x="534" y="0" type="line"/>
      <point x="632" y="617" type="line"/>
      <point x="682" y="617" type="line"/>
      <point x="702" y="743" type="line"/>
      <point x="296" y="743" type="line" smooth="yes"/>
      <point x="202" y="743"/>
      <point x="133" y="698"/>
      <point x="118" y="603" type="curve" smooth="yes"/>
    </contour>
  </outline>
</glyph>
<glyph name="periodcentered" format="2">
  <advance width="256"/>
  <unicode hex="00B7"/>
  <note>
GF Latin Plus glyph
</note>
  <outline>
    <contour>
      <point x="99" y="328" type="line" smooth="yes"/>
      <point x="97" y="314"/>
      <point x="106" y="305"/>
      <point x="120" y="305" type="curve" smooth="yes"/>
      <point x="233" y="305" type="line" smooth="yes"/>
      <point x="247" y="305"/>
      <point x="258" y="310"/>
      <point x="261" y="328" type="curve" smooth="yes"/>
      <point x="280" y="445" type="line" smooth="yes"/>
      <point x="283" y="461"/>
      <point x="277" y="470"/>
      <point x="259" y="470" type="curve" smooth="yes"/>
      <point x="146" y="470" type="line" smooth="yes"/>
      <point x="130" y="470"/>
      <point x="120" y="460"/>
      <point x="118" y="445" type="curve" smooth="yes"/>
    </contour>
  </outline>
</glyph>
<glyph name="cedilla" format="2">
  <advance width="238"/>
  <unicode hex="00B8"/>
  <note>
GF Latin Plus glyph
</note>
  <outline>
    <contour>
      <point x="8" y="-124" type="line"/>
      <point x="-4" y="-203" type="line"/>
      <point x="55" y="-203" type="line" smooth="yes"/>
      <point x="146" y="-203"/>
      <point x="183" y="-161"/>
      <point x="183" y="-113" type="curve" smooth="yes"/>
      <point x="183" y="-64"/>
      <point x="147" y="-47"/>
      <point x="111" y="-47" type="curve"/>
      <point x="33" y="-62" type="line"/>
      <point x="53" y="-68"/>
      <point x="60" y="-78"/>
      <point x="60" y="-89" type="curve" smooth="yes"/>
      <point x="60" y="-102"/>
      <point x="52" y="-116"/>
      <point x="24" y="-121" type="curve" smooth="yes"/>
    </contour>
    <contour>
      <point x="182" y="20" type="line"/>
      <point x="96" y="20" type="line"/>
      <point x="33" y="-62" type="line"/>
      <point x="119" y="-62" type="line"/>
    </contour>
  </outline>
</glyph>
<glyph name="onesuperior" format="1">
  <advance width="414"/>
  <unicode hex="00B9"/>
  <note>
    GF Latin Plus glyph
  </note>
  <outline>
    <contour>
      <point x="125.0" y="490" type="line"/>
      <point x="103.0" y="355" type="line"/>
      <point x="440.0" y="355" type="line"/>
      <point x="462.0" y="490" type="line"/>
    </contour>
    <contour>
      <point x="167" y="712" type="line"/>
      <point x="252" y="712" type="line"/>
      <point x="195.0" y="355" type="line"/>
      <point x="349.0" y="355" type="line"/>
      <point x="427.0" y="846" type="line"/>
      <point x="290.0" y="846" type="line"/>
      <point x="182.0" y="808" type="line"/>
    </contour>
  </outline>
</glyph>
<glyph name="Eth" format="2">
  <advance width="696"/>
  <unicode hex="00D0"/>
  <note>
GF Latin Plus glyph
</note>
  <outline>
    <contour>
      <point x="54" y="311" type="line"/>
      <point x="378" y="311" type="line"/>
      <point x="398" y="435" type="line"/>
      <point x="74" y="435" type="line"/>
    </contour>
    <component base="D"/>
  </outline>
</glyph>
<glyph name="multiply" format="2">
  <advance width="609"/>
  <unicode hex="00D7"/>
  <note>
GF Latin Plus glyph
</note>
  <outline>
    <contour>
      <point x="226" y="143" type="line"/>
      <point x="593" y="460" type="line"/>
      <point x="502" y="569" type="line"/>
      <point x="135" y="252" type="line"/>
    </contour>
    <contour>
      <point x="561" y="252" type="line"/>
      <point x="294" y="569" type="line"/>
      <point x="167" y="460" type="line"/>
      <point x="434" y="143" type="line"/>
    </contour>
  </outline>
</glyph>
<glyph name="Oslash" format="2">
  <advance width="708"/>
  <unicode hex="00D8"/>
  <note>
GF Latin Plus glyph
</note>
  <anchor x="464" y="810" name="top"/>
  <outline>
    <contour>
      <point x="685" y="743" type="line"/>
      <point x="35" y="0" type="line"/>
      <point x="140" y="0" type="line"/>
      <point x="790" y="743" type="line"/>
    </contour>
    <component base="O"/>
  </outline>
</glyph>
<glyph name="Thorn" format="2">
  <advance width="582"/>
  <unicode hex="00DE"/>
  <note>
GF Latin Plus glyph
</note>
  <outline>
    <contour>
      <point x="367" y="743" type="line"/>
      <point x="173.0" y="743.0" type="line"/>
      <point x="55.0" y="0.0" type="line"/>
      <point x="249.0" y="0.0" type="line"/>
    </contour>
    <contour>
      <point x="268" y="453" type="line"/>
      <point x="381" y="453" type="line" smooth="yes"/>
      <point x="421" y="453"/>
      <point x="441" y="441"/>
      <point x="441" y="406" type="curve" smooth="yes"/>
      <point x="441" y="400"/>
      <point x="439" y="382"/>
      <point x="436" y="365" type="curve" smooth="yes"/>
      <point x="431" y="329"/>
      <point x="406" y="298"/>
      <point x="362" y="298" type="curve" smooth="yes"/>
      <point x="254" y="298" type="line"/>
      <point x="231" y="151" type="line"/>
      <point x="270.7556343422255" y="139.64124733079274"/>
      <point x="330.72781065088753" y="124.0"/>
      <point x="390" y="124" type="curve" smooth="yes"/>
      <point x="493" y="124"/>
      <point x="603" y="180"/>
      <point x="629" y="343" type="curve" smooth="yes"/>
      <point x="633" y="368"/>
      <point x="639" y="404"/>
      <point x="639" y="425" type="curve" smooth="yes"/>
      <point x="639" y="583"/>
      <point x="542" y="627"/>
      <point x="419" y="627" type="curve" smooth="yes"/>
      <point x="296" y="627" type="line"/>
    </contour>
  </outline>
</glyph>
<glyph name="germandbls" format="2">
  <advance width="620"/>
  <unicode hex="00DF"/>
  <note>
GF Latin Plus glyph
</note>
  <outline>
    <contour>
      <point x="34" y="0" type="line"/>
      <point x="228" y="0" type="line"/>
      <point x="301" y="461" type="line" smooth="yes"/>
      <point x="316.98937201476895" y="561.9739794357326"/>
      <point x="340" y="598"/>
      <point x="391" y="598" type="curve" smooth="yes"/>
      <point x="436" y="598"/>
      <point x="462" y="581"/>
      <point x="462" y="550" type="curve" smooth="yes"/>
      <point x="462.0" y="488.9156626506024"/>
      <point x="353.0" y="415.6144578313253"/>
      <point x="353" y="316" type="curve" smooth="yes"/>
      <point x="353" y="224"/>
      <point x="436" y="202"/>
      <point x="436" y="167" type="curve" smooth="yes"/>
      <point x="436" y="166"/>
      <point x="436" y="162"/>
      <point x="435" y="156" type="curve" smooth="yes"/>
      <point x="433" y="143"/>
      <point x="423" y="138"/>
      <point x="381" y="138" type="curve" smooth="yes"/>
      <point x="357" y="138"/>
      <point x="333" y="138"/>
      <point x="292" y="141" type="curve"/>
      <point x="272" y="10" type="line"/>
      <point x="300" y="0"/>
      <point x="353" y="-6"/>
      <point x="410" y="-6" type="curve" smooth="yes"/>
      <point x="480" y="-6"/>
      <point x="596" y="12"/>
      <point x="616" y="142" type="curve" smooth="yes"/>
      <point x="624.6765472885699" y="194.05928373141893"/>
      <point x="625" y="204"/>
      <point x="625" y="213" type="curve" smooth="yes"/>
      <point x="625.0" y="301.56647398843927"/>
      <point x="546.0" y="341.1387283236994"/>
      <point x="546" y="376" type="curve" smooth="yes"/>
      <point x="546.0" y="423.8443396226415"/>
      <point x="639.0" y="474.8378378378378"/>
      <point x="639" y="583" type="curve" smooth="yes"/>
      <point x="639" y="677"/>
      <point x="576" y="769"/>
      <point x="408" y="769" type="curve" smooth="yes"/>
      <point x="234" y="769"/>
      <point x="139" y="667"/>
      <point x="121" y="551" type="curve" smooth="yes"/>
    </contour>
  </outline>
</glyph>
<glyph name="eth" format="2">
  <advance width="579"/>
  <unicode hex="00F0"/>
  <note>
GF Latin Plus glyph
</note>
  <outline>
    <contour>
      <point x="73" y="269" type="curve" smooth="yes"/>
      <point x="68.9821323849" y="244.089220786"/>
      <point x="68.0" y="218.115384615"/>
      <point x="68" y="185" type="curve" smooth="yes"/>
      <point x="68" y="64"/>
      <point x="138" y="-6"/>
      <point x="289" y="-6" type="curve" smooth="yes"/>
      <point x="466" y="-6"/>
      <point x="557" y="38"/>
      <point x="586" y="235" type="curve"/>
      <point x="562" y="281"/>
      <point x="539" y="328"/>
      <point x="515" y="374" type="curve"/>
      <point x="515.0" y="460"/>
      <point x="425.643274854" y="525.0"/>
      <point x="324" y="525" type="curve" smooth="yes"/>
      <point x="183.217712177" y="525.0"/>
      <point x="106.942045568" y="485.630114358"/>
    </contour>
    <contour>
      <point x="263" y="242" type="curve" smooth="yes"/>
      <point x="278" y="350"/>
      <point x="291" y="374"/>
      <point x="347" y="374" type="curve" smooth="yes"/>
      <point x="385.423076923" y="374.0"/>
      <point x="401.0" y="366.142857143"/>
      <point x="401" y="341" type="curve" smooth="yes"/>
      <point x="401.0" y="319.296703297"/>
      <point x="397.342446343" y="295.002592204"/>
      <point x="393" y="262" type="curve" smooth="yes"/>
      <point x="378" y="170"/>
      <point x="365" y="149"/>
      <point x="309" y="149" type="curve" smooth="yes"/>
      <point x="273" y="149"/>
      <point x="260" y="160"/>
      <point x="260" y="194" type="curve" smooth="yes"/>
      <point x="260.0" y="208.117647059"/>
      <point x="260.191618472" y="223.043424689"/>
    </contour>
    <contour>
      <point x="192" y="639" type="line"/>
      <point x="376" y="639"/>
      <point x="450" y="604"/>
      <point x="450" y="463" type="curve" smooth="yes"/>
      <point x="450" y="429"/>
      <point x="446" y="390"/>
      <point x="439" y="345" type="curve"/>
      <point x="586" y="235" type="line"/>
      <point x="599" y="318"/>
      <point x="607.0" y="388.851851852"/>
      <point x="607" y="452" type="curve" smooth="yes"/>
      <point x="607" y="680"/>
      <point x="488" y="763"/>
      <point x="212" y="763" type="curve"/>
    </contour>
    <contour>
      <point x="206" y="601" type="line"/>
      <point x="223" y="542" type="line"/>
      <point x="618" y="703" type="line"/>
      <point x="602" y="762" type="line"/>
    </contour>
  </outline>
</glyph>
<glyph name="divide" format="2">
  <advance width="609"/>
  <unicode hex="00F7"/>
  <note>
GF Latin Plus glyph
</note>
  <outline>
    <contour>
      <point x="309" y="516" type="line" smooth="yes"/>
      <point x="307" y="502"/>
      <point x="316" y="493"/>
      <point x="330" y="493" type="curve" smooth="yes"/>
      <point x="442" y="493" type="line" smooth="yes"/>
      <point x="456" y="493"/>
      <point x="467" y="498"/>
      <point x="470" y="516" type="curve" smooth="yes"/>
      <point x="486" y="613" type="line" smooth="yes"/>
      <point x="488" y="629"/>
      <point x="483" y="638"/>
      <point x="465" y="638" type="curve" smooth="yes"/>
      <point x="353" y="638" type="line" smooth="yes"/>
      <point x="337" y="638"/>
      <point x="327" y="628"/>
      <point x="325" y="613" type="curve" smooth="yes"/>
    </contour>
    <contour>
      <point x="243" y="97" type="line" smooth="yes"/>
      <point x="241" y="83"/>
      <point x="249" y="74"/>
      <point x="263" y="74" type="curve" smooth="yes"/>
      <point x="375" y="74" type="line" smooth="yes"/>
      <point x="389" y="74"/>
      <point x="401" y="79"/>
      <point x="404" y="97" type="curve" smooth="yes"/>
      <point x="419" y="194" type="line" smooth="yes"/>
      <point x="422" y="210"/>
      <point x="416" y="219"/>
      <point x="398" y="219" type="curve" smooth="yes"/>
      <point x="286" y="219" type="line" smooth="yes"/>
      <point x="270" y="219"/>
      <point x="261" y="209"/>
      <point x="258" y="194" type="curve" smooth="yes"/>
    </contour>
    <component base="minus"/>
  </outline>
</glyph>
<glyph name="oslash" format="2">
  <advance width="574"/>
  <unicode hex="00F8"/>
  <note>
GF Latin Plus glyph
</note>
  <anchor x="347" y="650" name="top"/>
  <outline>
    <contour>
      <point x="558" y="539" type="line"/>
      <point x="15" y="0" type="line"/>
      <point x="101" y="0" type="line"/>
      <point x="644" y="539" type="line"/>
    </contour>
    <component base="o"/>
  </outline>
</glyph>
<glyph name="Hbar" format="2">
  <advance width="708"/>
  <unicode hex="0126"/>
  <note>
GF Latin Plus glyph
</note>
  <outline>
    <contour>
      <point x="91" y="513" type="line"/>
      <point x="789" y="513" type="line"/>
      <point x="804" y="607" type="line"/>
      <point x="106" y="607" type="line"/>
    </contour>
    <component base="H"/>
  </outline>
</glyph>
<glyph name="dotlessi" format="2">
  <advance width="280"/>
  <unicode hex="0131"/>
  <outline>
    <contour>
      <point x="44" y="0" type="line"/>
      <point x="129" y="539" type="line"/>
      <point x="323" y="539" type="line"/>
      <point x="238" y="0" type="line"/>
    </contour>
  </outline>
</glyph>
<glyph name="kgreenlandic" format="2">
  <advance width="587"/>
  <unicode hex="0138"/>
  <note>
GF Latin Plus glyph
</note>
  <outline>
    <contour>
      <point x="43" y="0" type="line"/>
      <point x="237" y="0" type="line"/>
      <point x="272" y="222" type="line"/>
      <point x="282" y="222"/>
      <point x="300" y="225"/>
      <point x="312" y="228" type="curve"/>
      <point x="406" y="0" type="line"/>
      <point x="604" y="0" type="line"/>
      <point x="473" y="288" type="line"/>
      <point x="529" y="322"/>
      <point x="595" y="388"/>
      <point x="636" y="539" type="curve"/>
      <point x="442" y="539" type="line"/>
      <point x="420" y="445"/>
      <point x="371" y="387"/>
      <point x="295" y="366" type="curve"/>
      <point x="322" y="539" type="line"/>
      <point x="128" y="539" type="line"/>
    </contour>
  </outline>
</glyph>
<glyph name="Lslash" format="2">
  <advance width="537"/>
  <unicode hex="0141"/>
  <note>
GF Latin Plus glyph
</note>
  <outline>
    <contour>
      <point x="47" y="297" type="line"/>
      <point x="136" y="333" type="line"/>
      <point x="294" y="375" type="line"/>
      <point x="448" y="438" type="line"/>
      <point x="464" y="539" type="line"/>
      <point x="310" y="476" type="line"/>
      <point x="152" y="434" type="line"/>
      <point x="63" y="398" type="line"/>
    </contour>
    <component base="L"/>
  </outline>
</glyph>
<glyph name="Eng" format="1">
  <advance width="709.0"/>
  <unicode hex="014A"/>
  <note>
    GF Latin Plus glyph
  </note>
  <outline>
    <contour>
      <point x="293" y="-225" type="line"/>
      <point x="322" y="-234"/>
      <point x="369" y="-243"/>
      <point x="417" y="-243" type="curve" smooth="yes"/>
      <point x="569" y="-243"/>
      <point x="638" y="-167"/>
      <point x="658" y="-39" type="curve" smooth="yes"/>
      <point x="677" y="83" type="line"/>
      <point x="483" y="79" type="line"/>
      <point x="469" y="-9" type="line" smooth="yes"/>
      <point x="463" y="-45"/>
      <point x="445" y="-69"/>
      <point x="406" y="-69" type="curve" smooth="yes"/>
      <point x="318" y="-69" type="line"/>
    </contour>
    <component base="N"/>
  </outline>
</glyph>
<glyph name="eng" format="2">
  <advance width="600"/>
  <unicode hex="014B"/>
  <note>
GF Latin Plus glyph
</note>
  <outline>
    <contour>
      <point x="264" y="-237" type="curve"/>
      <point x="418" y="-237" type="line"/>
      <point x="476" y="-208"/>
      <point x="535" y="-145"/>
      <point x="551" y="-45" type="curve" smooth="yes"/>
      <point x="558" y="0" type="line"/>
      <point x="364" y="0" type="line"/>
      <point x="356" y="-50" type="line" smooth="yes"/>
      <point x="338" y="-159"/>
      <point x="292" y="-209"/>
    </contour>
    <component base="n"/>
  </outline>
</glyph>
<glyph name="Tbar" format="2">
  <advance width="600"/>
  <unicode hex="0166"/>
  <note>
GF Latin Plus glyph
</note>
  <outline>
    <contour>
      <point x="96" y="333" type="line"/>
      <point x="611" y="333" type="line"/>
      <point x="626" y="427" type="line"/>
      <point x="111" y="427" type="line"/>
    </contour>
    <component base="T"/>
  </outline>
</glyph>
<glyph name="tbar" format="1">
  <advance width="403.0"/>
  <unicode hex="0167"/>
  <note>
    GF Latin Plus glyph
  </note>
  <outline>
    <contour>
      <point x="38" y="246" type="line"/>
      <point x="416" y="246" type="line"/>
      <point x="428" y="320" type="line"/>
      <point x="50" y="320" type="line"/>
    </contour>
    <component base="t"/>
  </outline>
</glyph>
<glyph name="Ohorn" format="2">
  <advance width="708"/>
  <unicode hex="01A0"/>
  <note>
GF Latin Plus glyph
</note>
  <anchor x="452" y="810" name="top"/>
  <anchor x="324" y="-150" name="bottom"/>
  <outline>
    <contour>
      <point x="470" y="639" type="line"/>
      <point x="628" y="639" type="line" smooth="yes"/>
      <point x="729" y="639"/>
      <point x="802" y="717"/>
      <point x="824" y="851" type="curve"/>
      <point x="692" y="851" type="line"/>
      <point x="679" y="770"/>
      <point x="651" y="743"/>
      <point x="607" y="743" type="curve" smooth="yes"/>
      <point x="486" y="743" type="line"/>
    </contour>
    <component base="O"/>
  </outline>
</glyph>
<glyph name="Ohorn" format="1">
  <advance width="708.0"/>
  <unicode hex="01A0"/>
  <note>
    GF Latin Plus glyph
  </note>
  <outline>
    <contour>
      <point x="470" y="639" type="line"/>
      <point x="628" y="639" type="line" smooth="yes"/>
      <point x="729" y="639"/>
      <point x="802" y="717"/>
      <point x="824" y="851" type="curve"/>
      <point x="692" y="851" type="line"/>
      <point x="679" y="770"/>
      <point x="651" y="743"/>
      <point x="607" y="743" type="curve" smooth="yes"/>
      <point x="486" y="743" type="line"/>
    </contour>
    <component base="O"/>
    <contour>
      <point x="452" y="810" type="move" name="top"/>
    </contour>
    <contour>
      <point x="324" y="-150" type="move" name="bottom"/>
    </contour>
  </outline>
</glyph>
<glyph name="Uhorn" format="2">
  <advance width="692"/>
  <unicode hex="01AF"/>
  <note>
GF Latin Plus glyph
</note>
  <anchor x="456" y="810" name="top"/>
  <anchor x="346" y="-150" name="bottom"/>
  <outline>
    <contour>
      <point x="563" y="639" type="line"/>
      <point x="659" y="639" type="line" smooth="yes"/>
      <point x="760" y="639"/>
      <point x="833" y="717"/>
      <point x="855" y="851" type="curve"/>
      <point x="723" y="851" type="line"/>
      <point x="710" y="770"/>
      <point x="682" y="743"/>
      <point x="638" y="743" type="curve" smooth="yes"/>
      <point x="579" y="743" type="line"/>
    </contour>
    <component base="U"/>
  </outline>
</glyph>
<glyph name="circumflex" format="2">
  <advance width="378"/>
  <unicode hex="02C6"/>
  <note>
GF Latin Plus glyph
</note>
  <outline>
    <contour>
      <point x="251" y="777" type="line"/>
      <point x="128" y="631" type="line"/>
      <point x="240" y="631" type="line"/>
      <point x="300" y="692" type="line"/>
      <point x="339" y="631" type="line"/>
      <point x="450" y="631" type="line"/>
      <point x="382" y="777" type="line"/>
    </contour>
  </outline>
</glyph>
<glyph name="caron" format="2">
  <advance width="378"/>
  <unicode hex="02C7"/>
  <note>
GF Latin Plus glyph
</note>
  <outline>
    <contour>
      <point x="350" y="631" type="line"/>
      <point x="473" y="777" type="line"/>
      <point x="361" y="777" type="line"/>
      <point x="301" y="716" type="line"/>
      <point x="262" y="777" type="line"/>
      <point x="151" y="777" type="line"/>
      <point x="219" y="631" type="line"/>
    </contour>
  </outline>
</glyph>
<glyph name="verticallinemod" format="2">
  <advance width="210"/>
  <unicode hex="02C8"/>
  <outline>
    <contour>
      <point x="110" y="503" type="line"/>
      <point x="260" y="503" type="line"/>
      <point x="301" y="763" type="line"/>
      <point x="151" y="763" type="line"/>
    </contour>
  </outline>
</glyph>
<glyph name="dotaccent" format="2">
  <advance width="193"/>
  <unicode hex="02D9"/>
  <note>
GF Latin Plus glyph
</note>
  <outline>
    <contour>
      <point x="131" y="650" type="line" smooth="yes"/>
      <point x="131" y="649"/>
      <point x="131" y="647"/>
      <point x="131" y="646" type="curve" smooth="yes"/>
      <point x="131" y="634"/>
      <point x="139" y="627"/>
      <point x="151" y="627" type="curve" smooth="yes"/>
      <point x="241" y="627" type="line" smooth="yes"/>
      <point x="255" y="627"/>
      <point x="266" y="635"/>
      <point x="268" y="650" type="curve" smooth="yes"/>
      <point x="286" y="761" type="line" smooth="yes"/>
      <point x="286" y="763"/>
      <point x="286" y="765"/>
      <point x="286" y="766" type="curve" smooth="yes"/>
      <point x="286" y="778"/>
      <point x="280" y="786"/>
      <point x="266" y="786" type="curve" smooth="yes"/>
      <point x="176" y="786" type="line" smooth="yes"/>
      <point x="160" y="786"/>
      <point x="151" y="776"/>
      <point x="149" y="761" type="curve" smooth="yes"/>
    </contour>
  </outline>
</glyph>
<glyph name="ring" format="1">
  <advance width="319.0"/>
  <unicode hex="02DA"/>
  <note>
    GF Latin Plus glyph
  </note>
  <outline>
    <contour>
      <point x="225" y="716"/>
      <point x="240" y="746"/>
      <point x="277" y="746" type="curve" smooth="yes"/>
      <point x="300" y="746"/>
      <point x="315" y="736"/>
      <point x="315" y="709" type="curve" smooth="yes"/>
      <point x="315" y="677"/>
      <point x="300" y="649"/>
      <point x="265" y="649" type="curve" smooth="yes"/>
      <point x="240" y="649"/>
      <point x="225" y="659"/>
      <point x="225" y="686" type="curve" smooth="yes"/>
    </contour>
    <contour>
      <point x="189" y="815"/>
      <point x="136" y="756"/>
      <point x="136" y="683" type="curve" smooth="yes"/>
      <point x="136" y="607"/>
      <point x="178" y="580"/>
      <point x="256" y="580" type="curve" smooth="yes"/>
      <point x="353" y="580"/>
      <point x="404" y="637"/>
      <point x="404" y="712" type="curve" smooth="yes"/>
      <point x="404" y="787"/>
      <point x="364" y="815"/>
      <point x="285" y="815" type="curve" smooth="yes"/>
    </contour>
  </outline>
</glyph>
<glyph name="hungarumlaut" format="2">
  <advance width="419"/>
  <unicode hex="02DD"/>
  <note>
GF Latin Plus glyph
</note>
  <outline>
    <contour>
      <point x="365" y="774" type="line"/>
      <point x="284" y="631" type="line"/>
      <point x="398" y="631" type="line"/>
      <point x="509" y="774" type="line"/>
    </contour>
    <contour>
      <point x="192" y="774" type="line"/>
      <point x="111" y="631" type="line"/>
      <point x="225" y="631" type="line"/>
      <point x="336" y="774" type="line"/>
    </contour>
  </outline>
</glyph>
<glyph name="emdash" format="2">
  <advance width="736"/>
  <unicode hex="2014"/>
  <note>
GF Latin Plus glyph
</note>
  <outline>
    <contour>
      <point x="54" y="212" type="line"/>
      <point x="750" y="212" type="line"/>
      <point x="774" y="367" type="line"/>
      <point x="78" y="367" type="line"/>
    </contour>
  </outline>
</glyph>
<glyph name="quoteleft" format="2">
  <advance width="250"/>
  <unicode hex="2018"/>
  <note>
GF Latin Plus glyph
</note>
  <outline>
    <contour>
      <point x="115" y="499" type="line" smooth="yes"/>
      <point x="115" y="496"/>
      <point x="114" y="494"/>
      <point x="114" y="492" type="curve" smooth="yes"/>
      <point x="114" y="480"/>
      <point x="120" y="472"/>
      <point x="135" y="472" type="curve" smooth="yes"/>
      <point x="256" y="472" type="line" smooth="yes"/>
      <point x="272" y="472"/>
      <point x="282" y="481"/>
      <point x="285" y="499" type="curve" smooth="yes"/>
      <point x="303" y="613" type="line" smooth="yes"/>
      <point x="303" y="615"/>
      <point x="303" y="617"/>
      <point x="303" y="618" type="curve" smooth="yes"/>
      <point x="303" y="632"/>
      <point x="294" y="638"/>
      <point x="282" y="638" type="curve" smooth="yes"/>
      <point x="271" y="638" type="line"/>
      <point x="273" y="653" type="line" smooth="yes"/>
      <point x="275" y="663"/>
      <point x="279" y="684"/>
      <point x="309" y="684" type="curve"/>
      <point x="321" y="756" type="line"/>
      <point x="311" y="759"/>
      <point x="302" y="760"/>
      <point x="278" y="760" type="curve" smooth="yes"/>
      <point x="228" y="760"/>
      <point x="154" y="745"/>
      <point x="140" y="659" type="curve" smooth="yes"/>
    </contour>
  </outline>
</glyph>
<glyph name="quotesinglbase" format="2">
  <advance width="250"/>
  <unicode hex="201A"/>
  <note>
GF Latin Plus glyph
</note>
  <outline>
    <contour>
      <point x="38" y="19" type="line" smooth="yes"/>
      <point x="38" y="17"/>
      <point x="38" y="15"/>
      <point x="38" y="14" type="curve" smooth="yes"/>
      <point x="38" y="0"/>
      <point x="47" y="-6"/>
      <point x="59" y="-6" type="curve" smooth="yes"/>
      <point x="70" y="-6" type="line"/>
      <point x="68" y="-21" type="line" smooth="yes"/>
      <point x="66" y="-31"/>
      <point x="62" y="-52"/>
      <point x="32" y="-52" type="curve"/>
      <point x="20" y="-124" type="line"/>
      <point x="20" y="-124"/>
      <point x="39" y="-128"/>
      <point x="63" y="-128" type="curve" smooth="yes"/>
      <point x="113" y="-128"/>
      <point x="187" y="-113"/>
      <point x="201" y="-27" type="curve" smooth="yes"/>
      <point x="226" y="133" type="line" smooth="yes"/>
      <point x="226" y="136"/>
      <point x="227" y="138"/>
      <point x="227" y="140" type="curve" smooth="yes"/>
      <point x="227" y="152"/>
      <point x="221" y="160"/>
      <point x="206" y="160" type="curve" smooth="yes"/>
      <point x="85" y="160" type="line" smooth="yes"/>
      <point x="69" y="160"/>
      <point x="59" y="151"/>
      <point x="56" y="133" type="curve" smooth="yes"/>
    </contour>
  </outline>
</glyph>
<glyph name="dagger" format="1">
  <advance width="486"/>
  <unicode hex="2020"/>
  <note>
    GF Latin Plus glyph
  </note>
  <outline>
    <contour>
      <point x="78" y="424" type="line"/>
      <point x="209" y="409" type="line"/>
      <point x="145" y="-72" type="line"/>
      <point x="318" y="-72" type="line"/>
      <point x="408" y="409" type="line"/>
      <point x="542" y="424" type="line"/>
      <point x="566" y="573" type="line"/>
      <point x="436" y="588" type="line"/>
      <point x="452" y="770" type="line"/>
      <point x="279" y="770" type="line"/>
      <point x="237" y="588" type="line"/>
      <point x="102" y="573" type="line"/>
    </contour>
  </outline>
</glyph>
<glyph name="daggerdbl" format="2">
  <advance width="497"/>
  <unicode hex="2021"/>
  <note>
GF Latin Plus glyph
</note>
  <outline>
    <contour>
      <point x="31" y="124" type="line"/>
      <point x="159" y="105" type="line"/>
      <point x="144" y="-72" type="line"/>
      <point x="317" y="-72" type="line"/>
      <point x="358" y="107" type="line"/>
      <point x="495" y="124" type="line"/>
      <point x="518" y="273" type="line"/>
      <point x="389" y="291" type="line"/>
      <point x="408" y="409" type="line"/>
      <point x="542" y="424" type="line"/>
      <point x="566" y="573" type="line"/>
      <point x="436" y="588" type="line"/>
      <point x="452" y="770" type="line"/>
      <point x="279" y="770" type="line"/>
      <point x="237" y="588" type="line"/>
      <point x="102" y="573" type="line"/>
      <point x="78" y="424" type="line"/>
      <point x="209" y="409" type="line"/>
      <point x="190" y="292" type="line"/>
      <point x="54" y="273" type="line"/>
    </contour>
  </outline>
</glyph>
<glyph name="bullet" format="2">
  <advance width="306"/>
  <unicode hex="2022"/>
  <note>
GF Latin Plus glyph
</note>
  <outline>
    <contour>
      <point x="96" y="306" type="line" smooth="yes"/>
      <point x="93" y="286"/>
      <point x="103" y="274"/>
      <point x="123" y="274" type="curve" smooth="yes"/>
      <point x="267" y="274" type="line" smooth="yes"/>
      <point x="287" y="274"/>
      <point x="304" y="282"/>
      <point x="308" y="306" type="curve" smooth="yes"/>
      <point x="332" y="456" type="line" smooth="yes"/>
      <point x="336" y="478"/>
      <point x="328" y="491"/>
      <point x="303" y="491" type="curve" smooth="yes"/>
      <point x="159" y="491" type="line" smooth="yes"/>
      <point x="137" y="491"/>
      <point x="123" y="477"/>
      <point x="120" y="456" type="curve" smooth="yes"/>
    </contour>
  </outline>
</glyph>
<glyph name="guilsinglleft" format="2">
  <advance width="376"/>
  <unicode hex="2039"/>
  <note>
GF Latin Plus glyph
</note>
  <outline>
    <contour>
      <point x="64" y="284" type="line"/>
      <point x="259" y="56" type="line"/>
      <point x="368" y="154" type="line"/>
      <point x="257" y="284" type="line"/>
      <point x="407" y="412" type="line"/>
      <point x="325" y="507" type="line"/>
    </contour>
  </outline>
</glyph>
<glyph name="guilsinglright" format="2">
  <advance width="376"/>
  <unicode hex="203A"/>
  <note>
GF Latin Plus glyph
</note>
  <outline>
    <contour>
      <point x="398" y="284" type="line"/>
      <point x="207" y="507" type="line"/>
      <point x="95" y="412" type="line"/>
      <point x="205" y="284" type="line"/>
      <point x="54" y="154" type="line"/>
      <point x="131" y="56" type="line"/>
    </contour>
  </outline>
</glyph>
<glyph name="fraction" format="2">
  <advance width="395"/>
  <unicode hex="2044"/>
  <note>
GF Latin Plus glyph
</note>
  <outline>
    <contour>
      <point x="-51" y="0" type="line"/>
      <point x="80" y="0" type="line"/>
      <point x="567.956" y="770" type="line"/>
      <point x="436.956" y="770" type="line"/>
    </contour>
  </outline>
</glyph>
<glyph name="zerosuperior" format="2">
  <advance width="414"/>
  <unicode hex="2070"/>
  <note>
GF Latin Plus glyph
</note>
  <outline>
    <contour>
      <point x="256.0" y="513" type="curve" smooth="yes"/>
      <point x="283.0" y="684" type="line" smooth="yes"/>
      <point x="286.0" y="704"/>
      <point x="291.0" y="711"/>
      <point x="306.0" y="711" type="curve" smooth="yes"/>
      <point x="333.0" y="711" type="line" smooth="yes"/>
      <point x="339.0" y="711"/>
      <point x="347.0" y="710"/>
      <point x="347.0" y="694" type="curve" smooth="yes"/>
      <point x="347.0" y="691"/>
      <point x="347.0" y="688"/>
      <point x="347.0" y="684" type="curve" smooth="yes"/>
      <point x="320.0" y="512" type="line" smooth="yes"/>
      <point x="316.0" y="490"/>
      <point x="305.0" y="486"/>
      <point x="291.0" y="486" type="curve" smooth="yes"/>
      <point x="277.0" y="486" type="line" smooth="yes"/>
      <point x="261.0" y="486"/>
      <point x="255.0" y="489"/>
      <point x="255.0" y="503" type="curve" smooth="yes"/>
      <point x="255.0" y="506"/>
      <point x="255.0" y="509"/>
    </contour>
    <contour>
      <point x="98.0" y="488" type="line" smooth="yes"/>
      <point x="96.0" y="476"/>
      <point x="95.0" y="465"/>
      <point x="95.0" y="455" type="curve" smooth="yes"/>
      <point x="95.0" y="390"/>
      <point x="131.0" y="350"/>
      <point x="216.0" y="350" type="curve" smooth="yes"/>
      <point x="313.0" y="350" type="line" smooth="yes"/>
      <point x="401.0" y="350"/>
      <point x="456.0" y="405"/>
      <point x="470.0" y="488" type="curve" smooth="yes"/>
      <point x="503.0" y="700" type="line" smooth="yes"/>
      <point x="505.0" y="714"/>
      <point x="507.0" y="726"/>
      <point x="507.0" y="737" type="curve" smooth="yes"/>
      <point x="507.0" y="809"/>
      <point x="465.0" y="846"/>
      <point x="393.0" y="846" type="curve" smooth="yes"/>
      <point x="295.0" y="846" type="line" smooth="yes"/>
      <point x="203.0" y="846"/>
      <point x="147.0" y="794"/>
      <point x="132.0" y="700" type="curve" smooth="yes"/>
    </contour>
  </outline>
</glyph>
<glyph name="i.superior" format="2">
  <advance width="216"/>
  <unicode hex="2071"/>
  <note>
GF Latin Plus glyph
</note>
  <anchor x="226.0" y="280" name="ogonek"/>
  <anchor x="142.0" y="171" name="bottom"/>
  <outline>
    <contour>
      <point x="144.0" y="733" type="line" smooth="yes"/>
      <point x="141.0" y="722"/>
      <point x="148.0" y="715"/>
      <point x="159.0" y="715" type="curve" smooth="yes"/>
      <point x="286.0" y="715" type="line" smooth="yes"/>
      <point x="297.0" y="715"/>
      <point x="304.0" y="721"/>
      <point x="306.0" y="733" type="curve" smooth="yes"/>
      <point x="320.0" y="821" type="line" smooth="yes"/>
      <point x="321.0" y="832"/>
      <point x="317.0" y="841"/>
      <point x="305.0" y="841" type="curve" smooth="yes"/>
      <point x="179.0" y="841" type="line" smooth="yes"/>
      <point x="167.0" y="841"/>
      <point x="160.0" y="833"/>
      <point x="157.0" y="821" type="curve" smooth="yes"/>
    </contour>
    <contour>
      <point x="295" y="672" type="line"/>
      <point x="135" y="672" type="line"/>
      <point x="73" y="280" type="line"/>
      <point x="233" y="280" type="line"/>
    </contour>
  </outline>
</glyph>
<glyph name="fivesuperior" format="2">
  <advance width="414"/>
  <unicode hex="2075"/>
  <note>
GF Latin Plus glyph
</note>
  <outline>
    <contour>
      <point x="96" y="366" type="line"/>
      <point x="155" y="360"/>
      <point x="217" y="351"/>
      <point x="264" y="351" type="curve" smooth="yes"/>
      <point x="391" y="351"/>
      <point x="451" y="386"/>
      <point x="466" y="479" type="curve" smooth="yes"/>
      <point x="477" y="551" type="line" smooth="yes"/>
      <point x="479" y="560"/>
      <point x="480" y="570"/>
      <point x="479" y="579" type="curve" smooth="yes"/>
      <point x="479" y="633"/>
      <point x="453" y="672"/>
      <point x="386" y="672" type="curve" smooth="yes"/>
      <point x="338" y="672" type="line" smooth="yes"/>
      <point x="324" y="672"/>
      <point x="303" y="675"/>
      <point x="285" y="666" type="curve"/>
      <point x="293" y="707" type="line"/>
      <point x="480" y="707" type="line"/>
      <point x="501" y="842" type="line"/>
      <point x="183" y="842" type="line"/>
      <point x="120" y="532" type="line"/>
      <point x="266" y="532" type="line"/>
      <point x="268" y="540"/>
      <point x="271" y="545"/>
      <point x="286" y="545" type="curve" smooth="yes"/>
      <point x="308" y="545" type="line" smooth="yes"/>
      <point x="319" y="545"/>
      <point x="320" y="540"/>
      <point x="320" y="535" type="curve" smooth="yes"/>
      <point x="320" y="532"/>
      <point x="319" y="524"/>
      <point x="318" y="517" type="curve" smooth="yes"/>
      <point x="315" y="498" type="line" smooth="yes"/>
      <point x="314" y="491"/>
      <point x="309" y="486"/>
      <point x="293" y="486" type="curve" smooth="yes"/>
      <point x="116" y="486" type="line"/>
    </contour>
  </outline>
</glyph>
<glyph name="sixsuperior" format="1">
  <advance width="414"/>
  <unicode hex="2076"/>
  <note>
    GF Latin Plus glyph
  </note>
  <outline>
    <contour>
      <point x="267.0" y="543" type="curve"/>
      <point x="303.0" y="543" type="line" smooth="yes"/>
      <point x="311" y="543"/>
      <point x="316" y="539"/>
      <point x="316.0" y="530" type="curve" smooth="yes"/>
      <point x="316" y="526"/>
      <point x="316" y="522"/>
      <point x="315" y="517" type="curve" smooth="yes"/>
      <point x="313" y="504" type="line" smooth="yes"/>
      <point x="311" y="493"/>
      <point x="306" y="486"/>
      <point x="293" y="486" type="curve" smooth="yes"/>
      <point x="290" y="486" type="line" smooth="yes"/>
      <point x="269" y="486"/>
      <point x="263.0" y="493"/>
      <point x="263.0" y="515" type="curve" smooth="yes"/>
      <point x="263.0" y="522"/>
      <point x="265" y="533"/>
    </contour>
    <contour>
      <point x="196.0" y="846"/>
      <point x="109.0" y="733"/>
      <point x="110.0" y="487" type="curve" smooth="yes"/>
      <point x="111.0" y="382"/>
      <point x="156.0" y="350"/>
      <point x="245.0" y="350" type="curve" smooth="yes"/>
      <point x="311.0" y="350" type="line" smooth="yes"/>
      <point x="393.0" y="350"/>
      <point x="449.0" y="388"/>
      <point x="462.0" y="476" type="curve" smooth="yes"/>
      <point x="474.0" y="547" type="line" smooth="yes"/>
      <point x="476.0" y="559"/>
      <point x="477.0" y="571"/>
      <point x="477.0" y="582" type="curve" smooth="yes"/>
      <point x="477.0" y="629"/>
      <point x="458.0" y="670"/>
      <point x="369.0" y="670" type="curve" smooth="yes"/>
      <point x="316.0" y="670"/>
      <point x="306.0" y="667"/>
      <point x="284.0" y="654" type="curve"/>
      <point x="289.0" y="688"/>
      <point x="302.0" y="711"/>
      <point x="358.0" y="711" type="curve" smooth="yes"/>
      <point x="470.0" y="711" type="line"/>
      <point x="489.0" y="831" type="line"/>
      <point x="455.0" y="842"/>
      <point x="413.0" y="846"/>
      <point x="362.0" y="846" type="curve" smooth="yes"/>
    </contour>
  </outline>
</glyph>
<glyph name="sevensuperior" format="2">
  <advance width="414"/>
  <unicode hex="2077"/>
  <note>
GF Latin Plus glyph
</note>
  <outline>
    <contour>
      <point x="132.0" y="691" type="line"/>
      <point x="300.0" y="691" type="line"/>
      <point x="131.0" y="355" type="line"/>
      <point x="299.0" y="355" type="line"/>
      <point x="511.0" y="783" type="line"/>
      <point x="485.0" y="842" type="line"/>
      <point x="156.0" y="842" type="line"/>
    </contour>
  </outline>
</glyph>
<glyph name="ninesuperior" format="2">
  <advance width="414"/>
  <unicode hex="2079"/>
  <note>
GF Latin Plus glyph
</note>
  <outline>
    <contour>
      <point x="332.0" y="654" type="curve"/>
      <point x="304" y="654" type="line" smooth="yes"/>
      <point x="285" y="654"/>
      <point x="282" y="658"/>
      <point x="282" y="667" type="curve" smooth="yes"/>
      <point x="282" y="671"/>
      <point x="283" y="677"/>
      <point x="284" y="682" type="curve" smooth="yes"/>
      <point x="286" y="693" type="line" smooth="yes"/>
      <point x="288" y="703"/>
      <point x="291" y="711"/>
      <point x="303.0" y="711" type="curve" smooth="yes"/>
      <point x="308" y="711" type="line" smooth="yes"/>
      <point x="327" y="711"/>
      <point x="335.0" y="704"/>
      <point x="335.0" y="682" type="curve" smooth="yes"/>
      <point x="335.0" y="675"/>
      <point x="334.0" y="665"/>
    </contour>
    <contour>
      <point x="403.0" y="351"/>
      <point x="490.0" y="464"/>
      <point x="489.0" y="710" type="curve" smooth="yes"/>
      <point x="488.0" y="815"/>
      <point x="443.0" y="846"/>
      <point x="354.0" y="846" type="curve" smooth="yes"/>
      <point x="288.0" y="846" type="line" smooth="yes"/>
      <point x="206.0" y="846"/>
      <point x="150.0" y="809"/>
      <point x="136.0" y="721" type="curve" smooth="yes"/>
      <point x="125.0" y="650" type="line" smooth="yes"/>
      <point x="123.0" y="638"/>
      <point x="122.0" y="626"/>
      <point x="122.0" y="615" type="curve" smooth="yes"/>
      <point x="122.0" y="567"/>
      <point x="141.0" y="527"/>
      <point x="230.0" y="527" type="curve" smooth="yes"/>
      <point x="283.0" y="527"/>
      <point x="293.0" y="529"/>
      <point x="314.0" y="542" type="curve"/>
      <point x="310.0" y="508"/>
      <point x="297.0" y="486"/>
      <point x="241.0" y="486" type="curve" smooth="yes"/>
      <point x="129.0" y="486" type="line"/>
      <point x="109.0" y="366" type="line"/>
      <point x="144.0" y="355"/>
      <point x="186.0" y="351"/>
      <point x="237.0" y="351" type="curve" smooth="yes"/>
    </contour>
  </outline>
</glyph>
<glyph name="n.superior" format="2">
  <advance width="447"/>
  <unicode hex="207F"/>
  <note>
GF Latin Plus glyph
</note>
  <anchor x="333.0" y="751.0" name="top"/>
  <anchor x="242.0" y="171.0" name="bottom"/>
  <outline>
    <contour>
      <point x="73" y="280" type="line"/>
      <point x="233" y="280" type="line"/>
      <point x="269" y="504" type="line"/>
      <point x="277" y="516"/>
      <point x="296.0" y="527"/>
      <point x="312.0" y="527" type="curve" smooth="yes"/>
      <point x="330.0" y="527"/>
      <point x="339" y="523"/>
      <point x="339" y="511" type="curve" smooth="yes"/>
      <point x="339" y="507"/>
      <point x="338" y="496"/>
      <point x="335" y="475" type="curve" smooth="yes"/>
      <point x="304.0" y="280" type="line"/>
      <point x="464.0" y="280" type="line"/>
      <point x="496" y="480" type="line" smooth="yes"/>
      <point x="506" y="542"/>
      <point x="507.0" y="572"/>
      <point x="507.0" y="592" type="curve" smooth="yes"/>
      <point x="507.0" y="642"/>
      <point x="467.0" y="676"/>
      <point x="408.0" y="676" type="curve" smooth="yes"/>
      <point x="355.0" y="676"/>
      <point x="316.0" y="657"/>
      <point x="289.0" y="636" type="curve"/>
      <point x="269" y="672" type="line"/>
      <point x="135" y="672" type="line"/>
    </contour>
  </outline>
</glyph>
<glyph name="franc" format="2">
  <advance width="609"/>
  <unicode hex="20A3"/>
  <note>
GF Latin Plus glyph
</note>
  <outline>
    <contour>
      <point x="125" y="0" type="line"/>
      <point x="319" y="0" type="line"/>
      <point x="367" y="304" type="line"/>
      <point x="558" y="314" type="line"/>
      <point x="582" y="468" type="line"/>
      <point x="395" y="478" type="line"/>
      <point x="402" y="522" type="line" smooth="yes"/>
      <point x="405" y="542"/>
      <point x="421" y="564"/>
      <point x="455" y="564" type="curve" smooth="yes"/>
      <point x="647" y="564" type="line"/>
      <point x="673" y="727" type="line"/>
      <point x="586" y="739"/>
      <point x="474" y="743"/>
      <point x="428" y="743" type="curve" smooth="yes"/>
      <point x="344" y="743"/>
      <point x="237" y="706"/>
      <point x="215" y="569" type="curve" smooth="yes"/>
    </contour>
    <contour>
      <point x="71" y="104" type="line"/>
      <point x="140" y="94" type="line"/>
      <point x="334" y="94" type="line"/>
      <point x="494" y="104" type="line"/>
      <point x="516" y="238" type="line"/>
      <point x="358" y="248" type="line"/>
      <point x="164" y="248" type="line"/>
      <point x="93" y="238" type="line"/>
    </contour>
  </outline>
</glyph>
<glyph name="lira" format="1">
  <advance width="609"/>
  <unicode hex="20A4"/>
  <note>
    GF Latin Plus glyph
  </note>
  <outline>
    <contour>
      <point x="54" y="0" type="line"/>
      <point x="569" y="0" type="line"/>
      <point x="597" y="174" type="line"/>
      <point x="358" y="174" type="line"/>
      <point x="368" y="241" type="line"/>
      <point x="529" y="244" type="line"/>
      <point x="542" y="329" type="line"/>
      <point x="383" y="336" type="line"/>
      <point x="389" y="374" type="line"/>
      <point x="551" y="377" type="line"/>
      <point x="564" y="462" type="line"/>
      <point x="404" y="469" type="line"/>
      <point x="410" y="504" type="line" smooth="yes"/>
      <point x="419" y="559"/>
      <point x="441" y="576"/>
      <point x="496" y="576" type="curve" smooth="yes"/>
      <point x="661" y="576" type="line"/>
      <point x="686" y="733" type="line"/>
      <point x="649" y="740"/>
      <point x="590" y="749"/>
      <point x="516" y="749" type="curve" smooth="yes"/>
      <point x="329" y="749"/>
      <point x="243" y="675"/>
      <point x="216" y="502" type="curve" smooth="yes"/>
      <point x="210" y="469" type="line"/>
      <point x="127" y="462" type="line"/>
      <point x="114" y="377" type="line"/>
      <point x="195" y="374" type="line"/>
      <point x="191" y="345" type="line"/>
      <point x="110" y="338" type="line"/>
      <point x="96" y="253" type="line"/>
      <point x="175" y="249" type="line"/>
      <point x="164" y="174" type="line"/>
      <point x="78" y="149" type="line"/>
    </contour>
  </outline>
</glyph>
<glyph name="won" format="2">
  <advance width="609"/>
  <unicode hex="20A9"/>
  <note>
GF Latin Plus glyph
</note>
  <outline>
    <contour>
      <point x="153" y="743" type="line"/>
      <point x="75" y="0" type="line"/>
      <point x="246" y="0" type="line"/>
      <point x="342" y="298" type="line"/>
      <point x="364" y="0" type="line"/>
      <point x="534" y="0" type="line"/>
      <point x="687" y="743" type="line"/>
      <point x="518" y="743" type="line"/>
      <point x="446" y="371" type="line"/>
      <point x="437" y="603" type="line"/>
      <point x="360" y="603" type="line"/>
      <point x="276" y="371" type="line"/>
      <point x="323" y="743" type="line"/>
    </contour>
    <contour>
      <point x="79" y="469" type="line"/>
      <point x="196" y="469" type="line"/>
      <point x="211" y="563" type="line"/>
      <point x="94" y="563" type="line"/>
    </contour>
    <contour>
      <point x="584" y="469" type="line"/>
      <point x="678" y="469" type="line"/>
      <point x="693" y="563" type="line"/>
      <point x="589" y="563" type="line"/>
    </contour>
    <contour>
      <point x="34" y="180" type="line"/>
      <point x="214" y="180" type="line"/>
      <point x="199" y="274" type="line"/>
      <point x="48" y="274" type="line"/>
    </contour>
    <contour>
      <point x="476" y="180" type="line"/>
      <point x="633" y="180" type="line"/>
      <point x="647" y="274" type="line"/>
      <point x="490" y="274" type="line"/>
    </contour>
  </outline>
</glyph>
<glyph name="euro" format="2">
  <advance width="609"/>
  <unicode hex="20AC"/>
  <note>
GF Latin Plus glyph
</note>
  <outline>
    <contour>
      <point x="77" y="388" type="line"/>
      <point x="149" y="379" type="line"/>
      <point x="304" y="379" type="line"/>
      <point x="569" y="387" type="line"/>
      <point x="582" y="473" type="line"/>
      <point x="320" y="481" type="line"/>
      <point x="176" y="481" type="line"/>
      <point x="90" y="471" type="line"/>
    </contour>
    <contour>
      <point x="54" y="245" type="line"/>
      <point x="137" y="237" type="line"/>
      <point x="281" y="237" type="line"/>
      <point x="546" y="245" type="line"/>
      <point x="560" y="332" type="line"/>
      <point x="298" y="340" type="line"/>
      <point x="143" y="340" type="line"/>
      <point x="68" y="332" type="line"/>
    </contour>
    <component base="C" xOffset="39"/>
  </outline>
</glyph>
<glyph name="kip" format="2">
  <advance width="609"/>
  <unicode hex="20AD"/>
  <note>
GF Latin Plus glyph
</note>
  <outline>
    <contour>
      <point x="54" y="275" type="line"/>
      <point x="623" y="275" type="line"/>
      <point x="652" y="459" type="line"/>
      <point x="83" y="459" type="line"/>
    </contour>
    <contour>
      <point x="55" y="0" type="line"/>
      <point x="249" y="0" type="line"/>
      <point x="293" y="280" type="line"/>
      <point x="347" y="280" type="line"/>
      <point x="401" y="0" type="line"/>
      <point x="604" y="0" type="line"/>
      <point x="512" y="369" type="line"/>
      <point x="713" y="743" type="line"/>
      <point x="510" y="743" type="line"/>
      <point x="375" y="454" type="line"/>
      <point x="321" y="454" type="line"/>
      <point x="367" y="743" type="line"/>
      <point x="173" y="743" type="line"/>
    </contour>
  </outline>
</glyph>
<glyph name="guarani" format="2">
  <advance width="609"/>
  <unicode hex="20B2"/>
  <note>
GF Latin Plus glyph
</note>
  <outline>
    <contour>
      <point x="351" y="-80" type="line"/>
      <point x="490" y="793" type="line"/>
      <point x="407" y="793" type="line"/>
      <point x="268" y="-80" type="line"/>
    </contour>
    <contour>
      <point x="123" y="750"/>
      <point x="61" y="462"/>
      <point x="61" y="218" type="curve" smooth="yes"/>
      <point x="61" y="87"/>
      <point x="103" y="-5"/>
      <point x="238" y="-5" type="curve" smooth="yes"/>
      <point x="327" y="-5"/>
      <point x="409" y="26"/>
      <point x="446" y="49" type="curve"/>
      <point x="464" y="0" type="line"/>
      <point x="590" y="0" type="line"/>
      <point x="660" y="441" type="line"/>
      <point x="486" y="441" type="line"/>
      <point x="445" y="183" type="line"/>
      <point x="425" y="179"/>
      <point x="382" y="173"/>
      <point x="331" y="173" type="curve" smooth="yes"/>
      <point x="269" y="173"/>
      <point x="239" y="191"/>
      <point x="239" y="271" type="curve" smooth="yes"/>
      <point x="239" y="401"/>
      <point x="266" y="576"/>
      <point x="433" y="576" type="curve" smooth="yes"/>
      <point x="527" y="576"/>
      <point x="608" y="569"/>
      <point x="652" y="562" type="curve"/>
      <point x="676" y="713" type="line"/>
      <point x="598" y="735"/>
      <point x="542" y="750"/>
      <point x="424" y="750" type="curve" smooth="yes"/>
    </contour>
  </outline>
</glyph>
<glyph name="cedi" format="1">
  <advance width="609"/>
  <unicode hex="20B5"/>
  <note>
    GF Latin Plus glyph
  </note>
  <outline>
    <contour>
      <point x="403" y="-80" type="line"/>
      <point x="542" y="793" type="line"/>
      <point x="459" y="793" type="line"/>
      <point x="320" y="-80" type="line"/>
    </contour>
    <contour>
      <point x="250.0" y="740.0"/>
      <point x="89" y="547"/>
      <point x="89" y="244" type="curve" smooth="yes"/>
      <point x="89" y="37"/>
      <point x="183.0" y="-6.0"/>
      <point x="326" y="-6" type="curve" smooth="yes"/>
      <point x="444" y="-6"/>
      <point x="514" y="7"/>
      <point x="565" y="26" type="curve"/>
      <point x="587" y="167" type="line"/>
      <point x="551" y="162"/>
      <point x="493" y="158"/>
      <point x="397" y="158" type="curve" smooth="yes"/>
      <point x="300" y="158"/>
      <point x="265" y="178"/>
      <point x="265" y="259" type="curve" smooth="yes"/>
      <point x="265.0" y="406.0"/>
      <point x="325.81553398058253" y="576.0"/>
      <point x="481" y="576" type="curve" smooth="yes"/>
      <point x="525.3888888888889" y="576.0"/>
      <point x="601.871398731494" y="572.7791231745005"/>
      <point x="651" y="569" type="curve"/>
      <point x="673" y="710" type="line"/>
      <point x="638" y="721"/>
      <point x="567" y="740"/>
      <point x="454" y="740" type="curve" smooth="yes"/>
    </contour>
  </outline>
</glyph>
<glyph name="manat" format="1">
  <advance width="609"/>
  <unicode hex="20BC"/>
  <note>
    GF Latin Plus glyph
  </note>
  <outline>
    <contour>
      <point x="276" y="80" type="line"/>
      <point x="359" y="80" type="line"/>
      <point x="472" y="793" type="line"/>
      <point x="389" y="793" type="line"/>
    </contour>
    <contour>
      <point x="15" y="0" type="curve"/>
      <point x="189" y="0" type="line"/>
      <point x="248" y="309" type="line" smooth="yes"/>
      <point x="268" y="416"/>
      <point x="302" y="545"/>
      <point x="390" y="545" type="curve" smooth="yes"/>
      <point x="451" y="545"/>
      <point x="467" y="485"/>
      <point x="467" y="414" type="curve" smooth="yes"/>
      <point x="467" y="380"/>
      <point x="463" y="343"/>
      <point x="459" y="309" type="curve" smooth="yes"/>
      <point x="420" y="0" type="line"/>
      <point x="594" y="0" type="line"/>
      <point x="613" y="141"/>
      <point x="626" y="269"/>
      <point x="626" y="377" type="curve" smooth="yes"/>
      <point x="626" y="586"/>
      <point x="576" y="719"/>
      <point x="418" y="719" type="curve" smooth="yes"/>
      <point x="178" y="719"/>
      <point x="90" y="413"/>
    </contour>
  </outline>
</glyph>
<glyph name="ruble" format="2">
  <advance width="609"/>
  <unicode hex="20BD"/>
  <note>
GF Latin Plus glyph
</note>
  <outline>
    <contour>
      <point x="202" y="90" type="line"/>
      <point x="503" y="90" type="line"/>
      <point x="518" y="184" type="line"/>
      <point x="227" y="184" type="line"/>
    </contour>
    <contour>
      <point x="24" y="90" type="line"/>
      <point x="191" y="90" type="line"/>
      <point x="206" y="184" type="line"/>
      <point x="39" y="184" type="line"/>
    </contour>
    <contour>
      <point x="331" y="418" type="line"/>
      <point x="355" y="569" type="line"/>
      <point x="411" y="569" type="line" smooth="yes"/>
      <point x="441" y="569"/>
      <point x="454" y="553"/>
      <point x="454" y="521" type="curve" smooth="yes"/>
      <point x="454" y="463"/>
      <point x="435" y="418"/>
      <point x="387" y="418" type="curve" smooth="yes"/>
    </contour>
    <contour>
      <point x="81" y="0" type="line"/>
      <point x="265" y="0" type="line"/>
      <point x="307" y="264" type="line"/>
      <point x="325" y="260"/>
      <point x="361" y="250"/>
      <point x="392" y="250" type="curve" smooth="yes"/>
      <point x="574" y="250"/>
      <point x="642" y="395"/>
      <point x="642" y="548" type="curve" smooth="yes"/>
      <point x="642" y="723"/>
      <point x="544" y="743"/>
      <point x="459" y="743" type="curve" smooth="yes"/>
      <point x="199" y="743" type="line"/>
    </contour>
    <contour>
      <point x="61" y="324" type="line"/>
      <point x="228" y="324" type="line"/>
      <point x="243" y="418" type="line"/>
      <point x="76" y="418" type="line"/>
    </contour>
  </outline>
</glyph>
<glyph name="literSign" format="2">
  <advance width="524"/>
  <unicode hex="2113"/>
  <outline>
    <contour>
      <point x="322" y="436" type="curve"/>
      <point x="336" y="554" type="line" smooth="yes"/>
      <point x="340" y="584"/>
      <point x="354" y="594"/>
      <point x="372" y="594" type="curve" smooth="yes"/>
      <point x="390" y="594"/>
      <point x="399" y="585"/>
      <point x="399" y="567" type="curve" smooth="yes"/>
      <point x="399" y="551"/>
      <point x="385" y="500"/>
    </contour>
    <contour>
      <point x="49" y="258" type="curve"/>
      <point x="60" y="165" type="line"/>
      <point x="72" y="171"/>
      <point x="86" y="178"/>
      <point x="97" y="185" type="curve"/>
      <point x="96" y="177" type="line" smooth="yes"/>
      <point x="94" y="162"/>
      <point x="93" y="148"/>
      <point x="93" y="136" type="curve" smooth="yes"/>
      <point x="93" y="33"/>
      <point x="152" y="0"/>
      <point x="253" y="0" type="curve" smooth="yes"/>
      <point x="444" y="0" type="line"/>
      <point x="458" y="113" type="line"/>
      <point x="399" y="124" type="line" smooth="yes"/>
      <point x="313" y="140"/>
      <point x="296" y="175"/>
      <point x="296" y="216" type="curve" smooth="yes"/>
      <point x="296" y="227"/>
      <point x="297" y="238"/>
      <point x="299" y="250" type="curve" smooth="yes"/>
      <point x="299" y="254" type="line"/>
      <point x="390" y="301"/>
      <point x="560" y="506"/>
      <point x="560" y="587" type="curve" smooth="yes"/>
      <point x="560" y="701"/>
      <point x="487" y="739"/>
      <point x="393" y="739" type="curve" smooth="yes"/>
      <point x="241" y="739"/>
      <point x="157" y="674"/>
      <point x="138" y="521" type="curve" smooth="yes"/>
      <point x="113" y="314" type="line"/>
      <point x="91" y="294"/>
      <point x="70" y="275"/>
    </contour>
  </outline>
</glyph>
<glyph name="numero" format="2">
  <advance width="1198"/>
  <unicode hex="2116"/>
  <note>
GF Latin Plus glyph
</note>
  <outline>
    <contour>
      <point x="55" y="0" type="line"/>
      <point x="249" y="0" type="line"/>
      <point x="335" y="542" type="line" smooth="yes"/>
      <point x="336" y="550"/>
      <point x="341" y="555"/>
      <point x="346" y="555" type="curve" smooth="yes"/>
      <point x="350" y="555"/>
      <point x="354" y="551"/>
      <point x="356" y="542" type="curve" smooth="yes"/>
      <point x="417" y="153" type="line" smooth="yes"/>
      <point x="434" y="46"/>
      <point x="489" y="-6"/>
      <point x="604" y="-6" type="curve" smooth="yes"/>
      <point x="691" y="-6"/>
      <point x="779" y="48"/>
      <point x="796" y="155" type="curve" smooth="yes"/>
      <point x="854" y="521" type="line" smooth="yes"/>
      <point x="864" y="590"/>
      <point x="884" y="604"/>
      <point x="929" y="604" type="curve" smooth="yes"/>
      <point x="1095" y="604" type="line" smooth="yes"/>
      <point x="1118" y="604"/>
      <point x="1128" y="596"/>
      <point x="1128" y="571" type="curve" smooth="yes"/>
      <point x="1128" y="538"/>
      <point x="1115" y="492"/>
      <point x="1089" y="492" type="curve" smooth="yes"/>
      <point x="1080" y="492" type="line" smooth="yes"/>
      <point x="1062" y="492"/>
      <point x="1050" y="501"/>
      <point x="1050" y="529" type="curve" smooth="yes"/>
      <point x="1050" y="536"/>
      <point x="1051" y="544"/>
      <point x="1053" y="554" type="curve"/>
      <point x="915" y="554" type="line"/>
      <point x="911" y="528"/>
      <point x="909" y="506"/>
      <point x="909" y="486" type="curve" smooth="yes"/>
      <point x="909" y="387"/>
      <point x="960" y="360"/>
      <point x="1054" y="360" type="curve" smooth="yes"/>
      <point x="1080" y="360" type="line" smooth="yes"/>
      <point x="1214" y="360"/>
      <point x="1277" y="488"/>
      <point x="1277" y="613" type="curve" smooth="yes"/>
      <point x="1277" y="707"/>
      <point x="1235" y="760"/>
      <point x="1128" y="760" type="curve" smooth="yes"/>
      <point x="922" y="760" type="line" smooth="yes"/>
      <point x="789" y="760"/>
      <point x="690" y="712"/>
      <point x="662" y="535" type="curve" smooth="yes"/>
      <point x="609" y="200" type="line" smooth="yes"/>
      <point x="607" y="192"/>
      <point x="604" y="188"/>
      <point x="599" y="188" type="curve" smooth="yes"/>
      <point x="593" y="188"/>
      <point x="591" y="194"/>
      <point x="590" y="200" type="curve" smooth="yes"/>
      <point x="529" y="593" type="line" smooth="yes"/>
      <point x="513" y="698"/>
      <point x="463" y="749"/>
      <point x="350" y="749" type="curve" smooth="yes"/>
      <point x="249" y="749"/>
      <point x="164" y="688"/>
      <point x="145" y="569" type="curve" smooth="yes"/>
    </contour>
  </outline>
</glyph>
<glyph name="trademark" format="2">
  <advance width="716"/>
  <unicode hex="2122"/>
  <note>
GF Latin Plus glyph
</note>
  <outline>
    <contour>
      <point x="370" y="383" type="line"/>
      <point x="484" y="383" type="line"/>
      <point x="529" y="551" type="line"/>
      <point x="529" y="383" type="line"/>
      <point x="612" y="383" type="line"/>
      <point x="666" y="553" type="line"/>
      <point x="655" y="383" type="line"/>
      <point x="769" y="383" type="line"/>
      <point x="773" y="732" type="line"/>
      <point x="650" y="732" type="line"/>
      <point x="600" y="553" type="line"/>
      <point x="595" y="732" type="line"/>
      <point x="472" y="732" type="line"/>
    </contour>
    <contour>
      <point x="165" y="383" type="line"/>
      <point x="279" y="383" type="line"/>
      <point x="319" y="638" type="line"/>
      <point x="411" y="638" type="line"/>
      <point x="426" y="732" type="line"/>
      <point x="127" y="732" type="line"/>
      <point x="112" y="638" type="line"/>
      <point x="205" y="638" type="line"/>
    </contour>
  </outline>
</glyph>
<glyph name="partialdiff" format="1">
  <advance width="625"/>
  <unicode hex="2202"/>
  <outline>
    <contour>
      <point x="268" y="251"/>
      <point x="287" y="294"/>
      <point x="350" y="294" type="curve" smooth="yes"/>
      <point x="380" y="294"/>
      <point x="404" y="286"/>
      <point x="417" y="278" type="curve"/>
      <point x="412" y="231"/>
      <point x="389" y="166"/>
      <point x="329" y="166" type="curve" smooth="yes"/>
      <point x="296" y="166"/>
      <point x="268" y="184"/>
      <point x="268" y="221" type="curve" smooth="yes"/>
    </contour>
    <contour>
      <point x="171" y="465"/>
      <point x="74" y="356"/>
      <point x="74" y="193" type="curve" smooth="yes"/>
      <point x="74" y="58"/>
      <point x="169" y="-5"/>
      <point x="300" y="-5" type="curve" smooth="yes"/>
      <point x="553" y="-5"/>
      <point x="648" y="277"/>
      <point x="648" y="468" type="curve" smooth="yes"/>
      <point x="648" y="637"/>
      <point x="571" y="740"/>
      <point x="402" y="740" type="curve" smooth="yes"/>
      <point x="317" y="740"/>
      <point x="241" y="713"/>
      <point x="173" y="662" type="curve"/>
      <point x="178" y="515" type="line"/>
      <point x="218" y="538"/>
      <point x="289" y="566"/>
      <point x="359" y="566" type="curve" smooth="yes"/>
      <point x="431" y="566"/>
      <point x="455" y="533"/>
      <point x="455" y="466" type="curve" smooth="yes"/>
      <point x="455" y="451"/>
      <point x="453" y="435"/>
      <point x="451" y="417" type="curve"/>
      <point x="424" y="452"/>
      <point x="380" y="465"/>
      <point x="329" y="465" type="curve" smooth="yes"/>
    </contour>
  </outline>
</glyph>
<glyph name="emptyset" format="2">
  <advance width="609"/>
  <unicode hex="2205"/>
  <outline>
    <contour>
      <point x="593" y="622" type="line"/>
      <point x="40" y="-21" type="line"/>
      <point x="97" y="-78" type="line"/>
      <point x="649" y="566" type="line"/>
    </contour>
    <contour>
      <point x="278" y="216" type="curve" smooth="yes"/>
      <point x="278" y="322" type="line" smooth="yes"/>
      <point x="278" y="368"/>
      <point x="299" y="380"/>
      <point x="326" y="380" type="curve" smooth="yes"/>
      <point x="363" y="380" type="line" smooth="yes"/>
      <point x="390" y="380"/>
      <point x="411" y="368"/>
      <point x="411" y="322" type="curve" smooth="yes"/>
      <point x="411" y="216" type="line" smooth="yes"/>
      <point x="411" y="170"/>
      <point x="390" y="158"/>
      <point x="363" y="158" type="curve" smooth="yes"/>
      <point x="326" y="158" type="line" smooth="yes"/>
      <point x="299" y="158"/>
      <point x="278" y="170"/>
    </contour>
    <contour>
      <point x="84" y="226" type="line" smooth="yes"/>
      <point x="84" y="100"/>
      <point x="154" y="-6"/>
      <point x="310" y="-6" type="curve" smooth="yes"/>
      <point x="379" y="-6" type="line" smooth="yes"/>
      <point x="535" y="-6"/>
      <point x="605" y="100"/>
      <point x="605" y="226" type="curve" smooth="yes"/>
      <point x="605" y="312" type="line" smooth="yes"/>
      <point x="605" y="438"/>
      <point x="535" y="544"/>
      <point x="379" y="544" type="curve" smooth="yes"/>
      <point x="310" y="544" type="line" smooth="yes"/>
      <point x="154" y="544"/>
      <point x="84" y="438"/>
      <point x="84" y="312" type="curve" smooth="yes"/>
    </contour>
  </outline>
</glyph>
<glyph name="increment" format="1">
  <advance width="706"/>
  <unicode hex="2206"/>
  <outline>
    <contour>
      <point x="284" y="164" type="line"/>
      <point x="446" y="578" type="line"/>
      <point x="477" y="164" type="line"/>
    </contour>
    <contour>
      <point x="15" y="0" type="line"/>
      <point x="697" y="0" type="line"/>
      <point x="595" y="743" type="line"/>
      <point x="353" y="743" type="line"/>
    </contour>
  </outline>
</glyph>
<glyph name="product" format="2">
  <advance width="656"/>
  <unicode hex="220F"/>
  <outline>
    <contour>
      <point x="77" y="0" type="line"/>
      <point x="271" y="0" type="line"/>
      <point x="361" y="569" type="line"/>
      <point x="474" y="569" type="line"/>
      <point x="384" y="0" type="line"/>
      <point x="578" y="0" type="line"/>
      <point x="668" y="569" type="line"/>
      <point x="735" y="569" type="line"/>
      <point x="763" y="743" type="line"/>
      <point x="129" y="743" type="line"/>
      <point x="101" y="569" type="line"/>
      <point x="167" y="569" type="line"/>
    </contour>
  </outline>
</glyph>
<glyph name="minus" format="2">
  <advance width="609"/>
  <unicode hex="2212"/>
  <note>
GF Latin Plus glyph
</note>
  <outline>
    <contour>
      <point x="124" y="279" type="line"/>
      <point x="572" y="279" type="line"/>
      <point x="597" y="433" type="line"/>
      <point x="149" y="433" type="line"/>
    </contour>
  </outline>
</glyph>
<glyph name="bulletoperator" format="2">
  <advance width="609"/>
  <unicode hex="2219"/>
  <note>
GF Latin Plus glyph
</note>
  <outline>
    <contour>
      <point x="272" y="301" type="line" smooth="yes"/>
      <point x="271" y="300"/>
      <point x="271" y="298"/>
      <point x="271" y="297" type="curve" smooth="yes"/>
      <point x="271" y="285"/>
      <point x="280" y="278"/>
      <point x="292" y="278" type="curve" smooth="yes"/>
      <point x="404" y="278" type="line" smooth="yes"/>
      <point x="418" y="278"/>
      <point x="430" y="283"/>
      <point x="433" y="301" type="curve" smooth="yes"/>
      <point x="450" y="409" type="line" smooth="yes"/>
      <point x="450" y="411"/>
      <point x="450" y="414"/>
      <point x="450" y="416" type="curve" smooth="yes"/>
      <point x="450" y="428"/>
      <point x="444" y="434"/>
      <point x="429" y="434" type="curve" smooth="yes"/>
      <point x="317" y="434" type="line" smooth="yes"/>
      <point x="301" y="434"/>
      <point x="291" y="424"/>
      <point x="289" y="409" type="curve" smooth="yes"/>
    </contour>
  </outline>
</glyph>
<glyph name="integral" format="1">
  <advance width="444"/>
  <unicode hex="222B"/>
  <outline>
    <contour>
      <point x="-17" y="-179" type="line"/>
      <point x="9" y="-193"/>
      <point x="47" y="-204"/>
      <point x="103" y="-204" type="curve" smooth="yes"/>
      <point x="240" y="-204"/>
      <point x="296" y="-138"/>
      <point x="315" y="-21" type="curve" smooth="yes"/>
      <point x="402" y="528" type="line" smooth="yes"/>
      <point x="412" y="593"/>
      <point x="429" y="656"/>
      <point x="498" y="656" type="curve" smooth="yes"/>
      <point x="536" y="656" type="line"/>
      <point x="555" y="775" type="line"/>
      <point x="538" y="782"/>
      <point x="502" y="800"/>
      <point x="438" y="800" type="curve" smooth="yes"/>
      <point x="303" y="800"/>
      <point x="239" y="726"/>
      <point x="220" y="604" type="curve" smooth="yes"/>
      <point x="134" y="62" type="line" smooth="yes"/>
      <point x="127" y="18"/>
      <point x="112" y="-60"/>
      <point x="42" y="-60" type="curve" smooth="yes"/>
      <point x="1" y="-60" type="line"/>
    </contour>
  </outline>
</glyph>
<glyph name="notequal" format="2">
  <advance width="609"/>
  <unicode hex="2260"/>
  <note>
GF Latin Plus glyph
</note>
  <outline>
    <contour>
      <point x="476" y="633" type="line"/>
      <point x="124" y="79" type="line"/>
      <point x="248" y="79" type="line"/>
      <point x="600" y="633" type="line"/>
    </contour>
    <component base="equal"/>
  </outline>
</glyph>
<glyph name="lozenge" format="1">
  <advance width="504"/>
  <unicode hex="25CA"/>
  <outline>
    <contour>
      <point x="240" y="366" type="line"/>
      <point x="285" y="241" type="line"/>
      <point x="387" y="380" type="line"/>
      <point x="339" y="494" type="line"/>
    </contour>
    <contour>
      <point x="70" y="373" type="line"/>
      <point x="334" y="732" type="line"/>
      <point x="408" y="732" type="line"/>
      <point x="552" y="373" type="line"/>
      <point x="292" y="0" type="line"/>
      <point x="218" y="0" type="line"/>
    </contour>
  </outline>
</glyph>
<glyph name="Omega" format="2">
  <advance width="751"/>
  <unicode hex="A7B6"/>
  <unicode hex="03A9"/>
  <outline>
    <contour>
      <point x="185" y="739"/>
      <point x="96" y="517"/>
      <point x="96" y="361" type="curve" smooth="yes"/>
      <point x="96" y="265"/>
      <point x="127" y="203"/>
      <point x="170" y="168" type="curve"/>
      <point x="57" y="158" type="line"/>
      <point x="32" y="0" type="line"/>
      <point x="320" y="0" type="line"/>
      <point x="347" y="168" type="line"/>
      <point x="306" y="219"/>
      <point x="287" y="272"/>
      <point x="287" y="334" type="curve" smooth="yes"/>
      <point x="287" y="436"/>
      <point x="309" y="565"/>
      <point x="457" y="565" type="curve" smooth="yes"/>
      <point x="560" y="565"/>
      <point x="582" y="500"/>
      <point x="582" y="440" type="curve" smooth="yes"/>
      <point x="582" y="334"/>
      <point x="539" y="241"/>
      <point x="464" y="168" type="curve"/>
      <point x="437" y="0" type="line"/>
      <point x="725" y="0" type="line"/>
      <point x="750" y="157" type="line"/>
      <point x="640" y="167" type="line"/>
      <point x="711" y="240"/>
      <point x="780" y="346"/>
      <point x="780" y="481" type="curve" smooth="yes"/>
      <point x="780" y="627"/>
      <point x="704" y="739"/>
      <point x="483" y="739" type="curve" smooth="yes"/>
    </contour>
  </outline>
</glyph>
<glyph name="fl" format="2">
  <advance width="743"/>
  <unicode hex="FB02"/>
  <note>
GF Latin Plus glyph
</note>
  <outline>
    <contour>
      <point x="70" y="385" type="line"/>
      <point x="141" y="385" type="line"/>
      <point x="80" y="0" type="line"/>
      <point x="274" y="0" type="line"/>
      <point x="335" y="385" type="line"/>
      <point x="444" y="385" type="line"/>
      <point x="468" y="539" type="line"/>
      <point x="359" y="539" type="line"/>
      <point x="361" y="560" type="line" smooth="yes"/>
      <point x="365" y="605"/>
      <point x="385" y="615"/>
      <point x="430" y="615" type="curve" smooth="yes"/>
      <point x="734" y="615" type="line"/>
      <point x="755" y="732" type="line"/>
      <point x="621" y="760"/>
      <point x="526" y="769"/>
      <point x="412" y="769" type="curve" smooth="yes"/>
      <point x="271" y="769"/>
      <point x="198" y="736"/>
      <point x="178" y="616" type="curve" smooth="yes"/>
      <point x="165" y="539" type="line"/>
      <point x="90" y="509" type="line"/>
    </contour>
    <contour>
      <point x="475" y="189" type="line" smooth="yes"/>
      <point x="472" y="171"/>
      <point x="472" y="152"/>
      <point x="472" y="129" type="curve" smooth="yes"/>
      <point x="472" y="54"/>
      <point x="534" y="0"/>
      <point x="657" y="0" type="curve" smooth="yes"/>
      <point x="725" y="0" type="line"/>
      <point x="747" y="141" type="line"/>
      <point x="718" y="146" type="line" smooth="yes"/>
      <point x="688" y="151"/>
      <point x="672" y="157"/>
      <point x="672" y="189" type="curve" smooth="yes"/>
      <point x="672" y="204"/>
      <point x="678" y="245"/>
      <point x="680" y="258" type="curve" smooth="yes"/>
      <point x="755" y="732" type="line"/>
      <point x="561" y="732" type="line"/>
    </contour>
  </outline>
</glyph>
<glyph name="A.smcp" format="2">
  <advance width="597"/>
  <note>
GF Latin Plus glyph
</note>
  <anchor x="397" y="650" name="top"/>
  <anchor x="450" y="0" name="ogonek"/>
  <anchor x="274" y="-150" name="bottom"/>
  <outline>
    <contour>
      <point x="296" y="222" type="line"/>
      <point x="363" y="413" type="line"/>
      <point x="370" y="222" type="line"/>
    </contour>
    <contour>
      <point x="19" y="0" type="line"/>
      <point x="207" y="0" type="line"/>
      <point x="230" y="66" type="line"/>
      <point x="388" y="66" type="line"/>
      <point x="391" y="0" type="line"/>
      <point x="581" y="0" type="line"/>
      <point x="502" y="560" type="line"/>
      <point x="273" y="560" type="line"/>
    </contour>
  </outline>
</glyph>
<glyph name="AE.smcp" format="2">
  <advance width="849"/>
  <note>
GF Latin Plus glyph
</note>
  <anchor x="567" y="650" name="top"/>
  <outline>
    <contour>
      <point x="342" y="213" type="line"/>
      <point x="438" y="374" type="line"/>
      <point x="413" y="213" type="line"/>
    </contour>
    <contour>
      <point x="13" y="0" type="line"/>
      <point x="191" y="0" type="line"/>
      <point x="239" y="67" type="line"/>
      <point x="394" y="67" type="line"/>
      <point x="395" y="60" type="line" smooth="yes"/>
      <point x="401" y="15"/>
      <point x="436" y="-5"/>
      <point x="539" y="-5" type="curve" smooth="yes"/>
      <point x="592" y="-5"/>
      <point x="689" y="0"/>
      <point x="791" y="12" type="curve"/>
      <point x="814" y="158" type="line"/>
      <point x="618" y="158" type="line" smooth="yes"/>
      <point x="582" y="158"/>
      <point x="568" y="166"/>
      <point x="573" y="188" type="curve" smooth="yes"/>
      <point x="576" y="202" type="line"/>
      <point x="781" y="211" type="line"/>
      <point x="803" y="349" type="line"/>
      <point x="600" y="358" type="line"/>
      <point x="602" y="369" type="line" smooth="yes"/>
      <point x="607" y="394"/>
      <point x="617" y="400"/>
      <point x="647" y="400" type="curve" smooth="yes"/>
      <point x="852" y="400" type="line"/>
      <point x="875" y="546" type="line"/>
      <point x="765" y="556"/>
      <point x="701" y="560"/>
      <point x="633" y="560" type="curve" smooth="yes"/>
      <point x="518" y="560"/>
      <point x="377" y="541"/>
      <point x="286" y="408" type="curve" smooth="yes"/>
    </contour>
  </outline>
</glyph>
<glyph name="Eth.smcp" format="2">
  <advance width="584"/>
  <note>
GF Latin Plus glyph
</note>
  <outline>
    <contour>
      <point x="51" y="225" type="line"/>
      <point x="319" y="225" type="line"/>
      <point x="336" y="335" type="line"/>
      <point x="68" y="335" type="line"/>
    </contour>
    <component base="D.smcp"/>
  </outline>
</glyph>
<glyph name="G.smcp" format="1">
  <advance width="544"/>
  <note>
    GF Latin Plus glyph
  </note>
  <outline>
    <contour>
      <point x="83" y="313" type="curve" smooth="yes"/>
      <point x="77" y="271"/>
      <point x="69" y="223"/>
      <point x="70" y="176" type="curve" smooth="yes"/>
      <point x="71" y="52"/>
      <point x="113" y="-5"/>
      <point x="226" y="-5" type="curve" smooth="yes"/>
      <point x="262" y="-5"/>
      <point x="328" y="16"/>
      <point x="361" y="36" type="curve"/>
      <point x="379" y="0" type="line"/>
      <point x="518" y="0" type="line"/>
      <point x="572" y="344" type="line"/>
      <point x="554" y="344"/>
      <point x="494" y="345"/>
      <point x="464" y="345" type="curve" smooth="yes"/>
      <point x="406" y="345"/>
      <point x="360" y="338"/>
      <point x="333" y="337" type="curve"/>
      <point x="310" y="198" type="line"/>
      <point x="373" y="198" type="line"/>
      <point x="366" y="156" type="line"/>
      <point x="351" y="155"/>
      <point x="318" y="156"/>
      <point x="292" y="156" type="curve" smooth="yes"/>
      <point x="266" y="156"/>
      <point x="256" y="174"/>
      <point x="256" y="195" type="curve" smooth="yes"/>
      <point x="255" y="214"/>
      <point x="258" y="240"/>
      <point x="264" y="276" type="curve" smooth="yes"/>
      <point x="281" y="390"/>
      <point x="296" y="409"/>
      <point x="378" y="409" type="curve" smooth="yes"/>
      <point x="471" y="409"/>
      <point x="524" y="404"/>
      <point x="548" y="400" type="curve"/>
      <point x="570" y="536" type="line"/>
      <point x="521" y="552"/>
      <point x="462" y="564"/>
      <point x="351" y="564" type="curve" smooth="yes"/>
      <point x="206" y="564"/>
      <point x="112" y="492"/>
    </contour>
    <contour>
      <point x="375" y="650" type="move" name="top"/>
    </contour>
    <contour>
      <point x="241" y="-150" type="move" name="bottom"/>
    </contour>
  </outline>
</glyph>
<glyph name="Germandbls.smcp" format="2">
  <advance width="649"/>
  <note>
GF Latin Plus glyph
</note>
  <outline>
    <contour>
      <point x="484" y="282" type="line"/>
      <point x="619" y="414" type="line"/>
      <point x="640" y="549" type="line"/>
      <point x="424" y="409" type="line"/>
      <point x="337" y="318" type="line"/>
    </contour>
    <contour>
      <point x="319" y="199" type="line"/>
      <point x="427" y="199" type="line" smooth="yes"/>
      <point x="445.2352941176471" y="199"/>
      <point x="458.0" y="194.04166666666666"/>
      <point x="458" y="182" type="curve" smooth="yes"/>
      <point x="458" y="179"/>
      <point x="457" y="174"/>
      <point x="456" y="169" type="curve" smooth="yes"/>
      <point x="452.7841477697616" y="156.1365910790465"/>
      <point x="444.5111111111111" y="151.0"/>
      <point x="409" y="151" type="curve" smooth="yes"/>
      <point x="377.58715596330273" y="151.0"/>
      <point x="336.39797719973916" y="161.1548058629242"/>
      <point x="302" y="170" type="curve"/>
      <point x="277" y="13" type="line"/>
      <point x="318" y="2"/>
      <point x="368" y="-5"/>
      <point x="415" y="-5" type="curve" smooth="yes"/>
      <point x="540.8711111111111" y="-5.0"/>
      <point x="613.6535362686934" y="18.267681343467373"/>
      <point x="638" y="140" type="curve" smooth="yes"/>
      <point x="644.5369351495984" y="166.14774059839334"/>
      <point x="647.0" y="186.30769230769232"/>
      <point x="647" y="196" type="curve" smooth="yes"/>
      <point x="647.0" y="283.6504854368932"/>
      <point x="571.0" y="318"/>
      <point x="480" y="318" type="curve" smooth="yes"/>
      <point x="337" y="318" type="line"/>
    </contour>
    <contour>
      <point x="50" y="0" type="line"/>
      <point x="234" y="0" type="line"/>
      <point x="294" y="379" type="line" smooth="yes"/>
      <point x="297" y="396"/>
      <point x="308" y="404"/>
      <point x="336" y="404" type="curve" smooth="yes"/>
      <point x="525" y="404" type="line"/>
      <point x="640" y="549" type="line"/>
      <point x="549" y="554"/>
      <point x="501" y="560"/>
      <point x="353" y="560" type="curve" smooth="yes"/>
      <point x="237" y="560"/>
      <point x="132" y="511"/>
      <point x="110" y="376" type="curve" smooth="yes"/>
    </contour>
  </outline>
</glyph>
<glyph name="I.smcp" format="1">
  <advance width="287"/>
  <note>
    GF Latin Plus glyph
  </note>
  <outline>
    <contour>
      <point x="51" y="0" type="line"/>
      <point x="235" y="0" type="line"/>
      <point x="324" y="560" type="line"/>
      <point x="140" y="560" type="line"/>
    </contour>
    <contour>
      <point x="242" y="650" type="move" name="top"/>
    </contour>
    <contour>
      <point x="225" y="0" type="move" name="ogonek"/>
    </contour>
    <contour>
      <point x="115" y="-150" type="move" name="bottom"/>
    </contour>
  </outline>
</glyph>
<glyph name="J.smcp" format="2">
  <advance width="373"/>
  <note>
GF Latin Plus glyph
</note>
  <anchor x="325" y="650" name="top"/>
  <outline>
    <contour>
      <point x="39" y="11" type="line"/>
      <point x="64" y="2"/>
      <point x="109" y="-5"/>
      <point x="146" y="-5" type="curve" smooth="yes"/>
      <point x="267" y="-5"/>
      <point x="322" y="34"/>
      <point x="340" y="146" type="curve" smooth="yes"/>
      <point x="406" y="560" type="line"/>
      <point x="222" y="560" type="line"/>
      <point x="162" y="185" type="line" smooth="yes"/>
      <point x="159" y="167"/>
      <point x="149" y="156"/>
      <point x="107" y="153" type="curve" smooth="yes"/>
      <point x="92" y="152"/>
      <point x="76" y="151"/>
      <point x="61" y="150" type="curve"/>
    </contour>
  </outline>
</glyph>
<glyph name="K.smcp" format="2">
  <advance width="577"/>
  <note>
GF Latin Plus glyph
</note>
  <anchor x="386" y="650" name="top"/>
  <anchor x="267" y="-150" name="bottom"/>
  <outline>
    <contour>
      <point x="51" y="0" type="line"/>
      <point x="235" y="0" type="line"/>
      <point x="267" y="203" type="line"/>
      <point x="324" y="203" type="line"/>
      <point x="390" y="0" type="line"/>
      <point x="572" y="0" type="line"/>
      <point x="474" y="278" type="line"/>
      <point x="643" y="560" type="line"/>
      <point x="457" y="560" type="line"/>
      <point x="339" y="359" type="line"/>
      <point x="292" y="359" type="line"/>
      <point x="324" y="560" type="line"/>
      <point x="140" y="560" type="line"/>
    </contour>
  </outline>
</glyph>
<glyph name="L.smcp" format="1">
  <advance width="455"/>
  <note>
    GF Latin Plus glyph
  </note>
  <outline>
    <contour>
      <point x="77" y="162" type="line" smooth="yes"/>
      <point x="75" y="148"/>
      <point x="74" y="135"/>
      <point x="74" y="122" type="curve" smooth="yes"/>
      <point x="75" y="41"/>
      <point x="128" y="0"/>
      <point x="211" y="0" type="curve" smooth="yes"/>
      <point x="428" y="0" type="line"/>
      <point x="453" y="156" type="line"/>
      <point x="295" y="156" type="line" smooth="yes"/>
      <point x="271" y="156"/>
      <point x="265" y="167"/>
      <point x="265" y="180" type="curve" smooth="yes"/>
      <point x="265" y="184"/>
      <point x="265" y="190"/>
      <point x="267" y="200" type="curve" smooth="yes"/>
      <point x="324" y="560" type="line"/>
      <point x="140" y="560" type="line"/>
    </contour>
    <contour>
      <point x="244" y="650" type="move" name="top"/>
    </contour>
    <contour>
      <point x="352" y="481" type="move" name="altcaron"/>
    </contour>
    <contour>
      <point x="203" y="-150" type="move" name="bottom"/>
    </contour>
  </outline>
</glyph>
<glyph name="Lslash.smcp" format="1">
  <advance width="455"/>
  <note>
    GF Latin Plus glyph
  </note>
  <outline>
    <contour>
      <point x="47" y="219" type="line"/>
      <point x="117" y="246" type="line"/>
      <point x="267" y="284" type="line"/>
      <point x="389" y="331" type="line"/>
      <point x="403" y="420" type="line"/>
      <point x="281" y="373" type="line"/>
      <point x="131" y="335" type="line"/>
      <point x="61" y="308" type="line"/>
    </contour>
    <component base="L.smcp"/>
  </outline>
</glyph>
<glyph name="M.salt" format="1">
  <advance width="906"/>
  <outline>
    <contour>
      <point x="35" y="0" type="line"/>
      <point x="222" y="0" type="line"/>
      <point x="333" y="541" type="line" smooth="yes"/>
      <point x="337" y="561"/>
      <point x="343" y="566"/>
      <point x="352" y="566" type="curve" smooth="yes"/>
      <point x="359.05882352941177" y="566.0"/>
      <point x="361" y="560"/>
      <point x="361" y="548" type="curve" smooth="yes"/>
      <point x="357" y="253" type="line" smooth="yes"/>
      <point x="356" y="177"/>
      <point x="402.88235294117646" y="127.0"/>
      <point x="477" y="127" type="curve" smooth="yes"/>
      <point x="541" y="127"/>
      <point x="609" y="157"/>
      <point x="638" y="253" type="curve" smooth="yes"/>
      <point x="728" y="546" type="line" smooth="yes"/>
      <point x="734" y="563"/>
      <point x="739" y="567"/>
      <point x="745" y="567" type="curve" smooth="yes"/>
      <point x="751" y="567"/>
      <point x="755" y="564"/>
      <point x="755" y="554" type="curve" smooth="yes"/>
      <point x="755" y="551"/>
      <point x="755" y="549"/>
      <point x="754" y="546" type="curve" smooth="yes"/>
      <point x="693" y="0" type="line"/>
      <point x="880" y="0" type="line"/>
      <point x="942" y="593" type="line" smooth="yes"/>
      <point x="943" y="603"/>
      <point x="944" y="613"/>
      <point x="944" y="623" type="curve" smooth="yes"/>
      <point x="944" y="729"/>
      <point x="875" y="759"/>
      <point x="798" y="759" type="curve" smooth="yes"/>
      <point x="713" y="759"/>
      <point x="639" y="729"/>
      <point x="601" y="594" type="curve" smooth="yes"/>
      <point x="533" y="355" type="line" smooth="yes"/>
      <point x="528" y="337"/>
      <point x="520" y="331"/>
      <point x="511" y="331" type="curve" smooth="yes"/>
      <point x="503" y="331"/>
      <point x="497" y="336"/>
      <point x="497" y="355" type="curve" smooth="yes"/>
      <point x="503" y="594" type="line" smooth="yes"/>
      <point x="506" y="697"/>
      <point x="459.0" y="760.0"/>
      <point x="359" y="760" type="curve" smooth="yes"/>
      <point x="275" y="760"/>
      <point x="186" y="723"/>
      <point x="159" y="591" type="curve" smooth="yes"/>
    </contour>
    <contour>
      <point x="575" y="810" type="move" name="top"/>
    </contour>
    <contour>
      <point x="423" y="-150" type="move" name="bottom"/>
    </contour>
  </outline>
</glyph>
